<svg xmlns="http://www.w3.org/2000/svg" width="21" height="21" fill="none" viewBox="0 0 21 21">
  <path fill="#fff" d="M3.833 17.167h-.75a.75.75 0 0 0 .75.75v-.75Zm0-3.333-.53-.53a.75.75 0 0 0-.22.53h.75Zm9.057-9.058-.53-.53.53.53Zm1.886 0-.53.53.53-.53Zm1.448 1.448.53-.53-.53.53Zm0 1.886-.53-.53.53.53Zm-9.057 9.057v.75a.75.75 0 0 0 .53-.22l-.53-.53ZM16.78 6.909l.713-.231-.713.231Zm0 .515-.714-.231.714.231ZM13.576 4.22l-.232-.713.232.714Zm.515 0 .232-.713-.232.714Zm-3.06 2.418a.75.75 0 1 0-1.061 1.06l1.06-1.06Zm2.272 4.394a.75.75 0 1 0 1.06-1.061l-1.06 1.06Zm-8.72 6.136v-3.333h-1.5v3.333h1.5Zm-.22-2.803 9.058-9.057-1.06-1.061-9.058 9.057 1.06 1.06Zm9.883-9.057 1.447 1.447 1.061-1.06-1.448-1.448-1.06 1.06Zm1.447 2.272-9.057 9.058 1.061 1.06 9.057-9.057-1.06-1.06Zm-8.526 8.838H3.833v1.5h3.334v-1.5Zm8.527-9.663c.173.174.271.273.337.35.06.071.048.074.036.037l1.427-.463a1.603 1.603 0 0 0-.32-.544c-.114-.135-.264-.284-.42-.44l-1.06 1.06Zm1.06 1.886c.156-.156.306-.305.42-.44.12-.142.246-.317.32-.544l-1.427-.463c.012-.037.024-.035-.036.036a6.848 6.848 0 0 1-.337.35l1.06 1.061Zm-.687-1.499a.084.084 0 0 1 0 .052l1.427.463c.103-.318.103-.66 0-.978l-1.427.463Zm-2.646-1.834c.174-.174.272-.272.35-.338.07-.06.073-.048.037-.036l-.464-1.427a1.603 1.603 0 0 0-.544.32c-.135.114-.284.264-.44.42l1.06 1.06Zm1.885-1.061c-.156-.156-.304-.306-.44-.42a1.601 1.601 0 0 0-.543-.32l-.464 1.427c-.036-.012-.034-.024.037.036.077.066.176.164.35.338l1.06-1.061Zm-1.498.687a.083.083 0 0 1 .051 0l.464-1.427a1.583 1.583 0 0 0-.979 0l.464 1.427ZM9.97 7.697l3.333 3.333 1.06-1.06-3.333-3.333-1.06 1.06Z"/>
</svg>
