<svg width="30" height="29" viewBox="0 0 30 29" fill="none" xmlns="http://www.w3.org/2000/svg">
<g id="Design_Dev / Layout_Sidebar">
<g id="Vector">
<path d="M11.375 3.625H5.33333C4.66599 3.625 4.125 4.16599 4.125 4.83333V24.1667C4.125 24.834 4.66599 25.375 5.33333 25.375H11.375C12.0423 25.375 12.5833 24.834 12.5833 24.1667V4.83333C12.5833 4.16599 12.0423 3.625 11.375 3.625Z" stroke="white" stroke-width="2" stroke-linecap="round" stroke-linejoin="round"/>
<path d="M24.6667 3.625H18.625C17.9577 3.625 17.4167 4.16599 17.4167 4.83333V10.875C17.4167 11.5423 17.9577 12.0833 18.625 12.0833H24.6667C25.334 12.0833 25.875 11.5423 25.875 10.875V4.83333C25.875 4.16599 25.334 3.625 24.6667 3.625Z" stroke="white" stroke-width="2" stroke-linecap="round" stroke-linejoin="round"/>
<path d="M24.6667 16.9167H18.625C17.9577 16.9167 17.4167 17.4577 17.4167 18.125V24.1667C17.4167 24.834 17.9577 25.375 18.625 25.375H24.6667C25.334 25.375 25.875 24.834 25.875 24.1667V18.125C25.875 17.4577 25.334 16.9167 24.6667 16.9167Z" stroke="white" stroke-width="2" stroke-linecap="round" stroke-linejoin="round"/>
</g>
</g>
</svg>
