<svg width="29" height="29" viewBox="0 0 29 29" fill="none" xmlns="http://www.w3.org/2000/svg">
<g id="Group">
<path id="Vector" d="M15.4116 1.8125C15.9121 1.8125 16.3178 2.21824 16.3178 2.71875C16.3178 3.18351 15.968 3.56655 15.5173 3.6189L15.4116 3.625H6.34375C4.89585 3.625 3.71231 4.75683 3.62962 6.184L3.625 6.34375V22.6562C3.625 24.1041 4.75683 25.2877 6.184 25.3704L6.34375 25.375H22.6562C24.1041 25.375 25.2877 24.2432 25.3704 22.816L25.375 22.6562V13.5971C25.375 13.0966 25.7807 12.6909 26.2812 12.6909C26.746 12.6909 27.1291 13.0407 27.1814 13.4914L27.1875 13.5971V22.6562C27.1875 25.0929 25.2642 27.0804 22.8528 27.1833L22.6562 27.1875H6.34375C3.90707 27.1875 1.9196 25.2642 1.81669 22.8528L1.8125 22.6562V6.34375C1.8125 3.90707 3.73584 1.9196 6.14719 1.81669L6.34375 1.8125H15.4116ZM25.064 3.71608C25.4179 4.07 25.4179 4.6438 25.064 4.99771L14.6566 15.4062H18.8114C19.3119 15.4062 19.7176 15.812 19.7176 16.3125C19.7176 16.813 19.3119 17.2188 18.8114 17.2188H12.4676C11.9671 17.2188 11.5614 16.813 11.5614 16.3125V9.96875C11.5614 9.46824 11.9671 9.0625 12.4676 9.0625C12.9681 9.0625 13.3739 9.46824 13.3739 9.96875L13.3742 14.1248L23.7824 3.71608C24.1363 3.36217 24.7101 3.36217 25.064 3.71608Z" fill="white"/>
</g>
</svg>
