<svg xmlns="http://www.w3.org/2000/svg" width="16" height="17" fill="none" viewBox="0 0 16 17">
  <g clip-path="url(#a)">
    <path fill="#000" d="M11.833 1.833a4.5 4.5 0 0 1 3.297 7.563l-.142.146-6.545 6.545-.04.037-.042.034a2.79 2.79 0 0 1-3.94-3.932l.112-.122.01-.009 5.47-5.478a.75.75 0 1 1 1.06 1.06l-5.468 5.478-.008.006a1.29 1.29 0 0 0 1.717 1.915L7.406 15v.002l6.527-6.526.119-.123a3 3 0 0 0-4.315-4.166l-.116.12-.014.01-6.994 6.996a.75.75 0 1 1-1.06-1.06l6.98-6.985.036-.032a4.489 4.489 0 0 1 3.264-1.403Z"/>
  </g>
  <defs>
    <clipPath id="a">
      <path fill="#fff" d="M0 .5h16v16H0z"/>
    </clipPath>
  </defs>
</svg>
