<svg width="25" height="25" viewBox="0 0 25 25" fill="none" xmlns="http://www.w3.org/2000/svg">
<g id="Attach / undefined / Glyph: undefined">
<path id="Vector" d="M16.6656 2.08203C20.1173 2.08203 22.9156 4.88025 22.9156 8.33203C22.9156 9.93339 22.3092 11.4407 21.2448 12.5857L21.047 12.7887L11.9563 21.8792L11.901 21.9308L11.8429 21.9776C11.1458 22.5778 10.2552 22.9154 9.31451 22.9154C7.17377 22.9154 5.43835 21.1799 5.43835 19.0392C5.43835 18.1003 5.77483 17.212 6.37122 16.5168L6.52569 16.3471L6.5414 16.3347L14.1362 8.7266C14.5427 8.31946 15.2022 8.31888 15.6093 8.72531C16.0165 9.13176 16.017 9.7913 15.6107 10.1985L8.01583 17.8066L8.00444 17.8153C7.6958 18.1454 7.52168 18.5772 7.52168 19.0392C7.52168 20.0293 8.32435 20.832 9.31451 20.832C9.70925 20.832 10.0821 20.7051 10.3887 20.4748L10.5159 20.3699L10.5167 20.3716L19.5817 11.3082L19.7469 11.1369C20.4397 10.3768 20.8322 9.38672 20.8322 8.33203C20.8322 6.03084 18.9667 4.16536 16.6656 4.16536C15.5597 4.16536 14.5254 4.59724 13.754 5.35139L13.5928 5.51789L13.5736 5.5314L3.85969 15.249C3.453 15.6559 2.79344 15.656 2.38656 15.2493C1.97967 14.8426 1.97953 14.1831 2.38624 13.7762L12.0831 4.07499L12.1316 4.03017C13.3023 2.79637 14.9278 2.08203 16.6656 2.08203Z" fill="#6E6E6E"/>
</g>
</svg>
