<svg width="30" height="32" viewBox="0 0 30 32" fill="none" xmlns="http://www.w3.org/2000/svg">
<g id="Group 12072">
<path id="Vector" fill-rule="evenodd" clip-rule="evenodd" d="M24.6761 2.24311L27.6602 4.61931C27.9483 4.89052 28.1109 5.26934 28.1086 5.66508C28.1065 6.06081 27.9399 6.43784 27.6488 6.70587L25.3812 9.41935L17.6657 18.6212C17.5306 18.7757 17.3509 18.8844 17.1512 18.9318L13.1496 19.8388C12.6246 19.8651 12.1674 19.4835 12.0996 18.9623V14.8502C12.1131 14.6518 12.193 14.4639 12.3264 14.3166L19.899 5.75501L22.4981 2.65089C23.0122 1.97687 23.9528 1.80078 24.6761 2.24311Z" stroke="black" stroke-width="3" stroke-linecap="round" stroke-linejoin="round"/>
<path id="Vector_2" d="M13.878 6.98916C14.6673 6.98916 15.3072 6.34932 15.3072 5.56001C15.3072 4.77072 14.6673 4.13086 13.878 4.13086V6.98916ZM8.54253 5.56001V4.13086H8.5391L8.54253 5.56001ZM1.42917 12.7059H2.85832V12.7026L1.42917 12.7059ZM1.42917 23.4245L2.85832 23.4275V23.4245H1.42917ZM8.54253 30.5702L8.5391 31.9994H8.54253V30.5702ZM19.2135 30.5702V31.9994H19.2169L19.2135 30.5702ZM26.3269 23.4245H24.8977V23.4275L26.3269 23.4245ZM27.756 16.2787C27.756 15.4893 27.1161 14.8496 26.3269 14.8496C25.5376 14.8496 24.8977 15.4893 24.8977 16.2787H27.756ZM21.2206 5.20903C20.9193 4.47946 20.0838 4.13217 19.3541 4.43336C18.6245 4.73455 18.2773 5.57015 18.5786 6.29972L21.2206 5.20903ZM25.6902 10.8066C26.4608 10.6362 26.9475 9.87332 26.7771 9.10263C26.6068 8.33193 25.844 7.84526 25.0732 8.01563L25.6902 10.8066ZM6.76466 23.7827C5.97537 23.7827 5.33551 24.4224 5.33551 25.2119C5.33551 26.0011 5.97537 26.641 6.76466 26.641V23.7827ZM20.9933 26.641C21.7825 26.641 22.4224 26.0011 22.4224 25.2119C22.4224 24.4224 21.7825 23.7827 20.9933 23.7827V26.641ZM13.878 4.13086H8.54253V6.98916H13.878V4.13086ZM8.5391 4.13086C3.81261 4.14222 -0.0100983 7.98234 2.00406e-05 12.7089L2.85832 12.7026C2.85157 9.55452 5.39779 6.99672 8.54596 6.98916L8.5391 4.13086ZM2.00406e-05 12.7059V23.4245H2.85832V12.7059H2.00406e-05ZM2.00406e-05 23.4212C-0.0100983 28.1477 3.81261 31.988 8.5391 31.9994L8.54596 29.1411C5.39779 29.1335 2.85157 26.5757 2.85832 23.4275L2.00406e-05 23.4212ZM8.54253 31.9994H19.2135V29.1411H8.54253V31.9994ZM19.2169 31.9994C23.9434 31.988 27.7661 28.1477 27.756 23.4212L24.8977 23.4275C24.9044 26.5757 22.3582 29.1335 19.2101 29.1411L19.2169 31.9994ZM27.756 23.4245V16.2787H24.8977V23.4245H27.756ZM18.5786 6.29972C18.95 7.19938 19.7076 8.47452 20.8401 9.4598C21.9982 10.4677 23.6627 11.2548 25.6902 10.8066L25.0732 8.01563C24.1871 8.2115 23.4173 7.91342 22.7162 7.30348C21.9893 6.67094 21.4628 5.79569 21.2206 5.20903L18.5786 6.29972ZM6.76466 26.641H20.9933V23.7827H6.76466V26.641Z" fill="black"/>
</g>
</svg>
