<svg width="31" height="30" viewBox="0 0 31 30" fill="none" xmlns="http://www.w3.org/2000/svg">
<g id="Communication / Bell_Notification">
<path id="Vector" d="M17.8918 4.13C17.0825 3.88292 16.2234 3.75 15.3333 3.75C10.5008 3.75 6.58325 7.66751 6.58325 12.5V17.153C6.58325 17.3752 6.49499 17.5883 6.33789 17.7454L5.69946 18.3839C5.46505 18.6184 5.33325 18.9362 5.33325 19.2677V20C5.33325 20.6904 5.8929 21.25 6.58325 21.25H24.0833C24.7736 21.25 25.3333 20.6904 25.3333 20V19.2677C25.3333 18.9362 25.2014 18.6183 24.967 18.3838L24.3286 17.7454C24.1715 17.5882 24.0833 17.3753 24.0833 17.153V12.5C24.0833 12.2795 24.0753 12.0608 24.0588 11.8452M19.0833 21.25V22.5C19.0833 24.5711 17.4043 26.25 15.3333 26.25C13.2622 26.25 11.5833 24.5711 11.5833 22.5V21.25H19.0833ZM26.5833 7.5C26.5833 10.2614 24.3447 12.5 21.5833 12.5C18.8218 12.5 16.5833 10.2614 16.5833 7.5C16.5833 4.73858 18.8218 2.5 21.5833 2.5C24.3447 2.5 26.5833 4.73858 26.5833 7.5Z" stroke="#1A1A1A" stroke-width="2.5" stroke-linecap="round" stroke-linejoin="round"/>
</g>
</svg>
