<svg width="31" height="30" viewBox="0 0 31 30" fill="none" xmlns="http://www.w3.org/2000/svg">
<path id="Vector" d="M10.0757 7.518C8.93169 7.733 7.24569 9.689 7.98969 10.433L12.5627 15.004L7.98969 19.575C7.07469 20.49 9.81869 23.231 10.7337 22.317L15.3067 17.746L19.8797 22.317C20.7947 23.232 23.5377 20.488 22.6237 19.575L18.0507 15.004L22.6237 10.433C23.5387 9.518 20.7947 6.777 19.8797 7.691L15.3067 12.262L10.7337 7.691C10.5607 7.52 10.3397 7.468 10.0767 7.518H10.0757ZM15.3047 0C7.01969 0 0.304688 6.716 0.304688 15C0.304688 23.284 7.01969 30 15.3047 30C23.5897 30 30.3047 23.284 30.3047 15C30.3047 6.716 23.5897 0 15.3047 0ZM15.3047 3.75C21.5177 3.75 26.5547 8.787 26.5547 15C26.5547 21.213 21.5177 26.25 15.3047 26.25C9.09169 26.25 4.05469 21.213 4.05469 15C4.05569 8.787 9.09169 3.75 15.3047 3.75Z" fill="black"/>
</svg>
