<svg width="29" height="29" viewBox="0 0 29 29" fill="none" xmlns="http://www.w3.org/2000/svg">
<g clip-path="url(#clip0_6604_5830)">
<path d="M14.1909 0.061698C13.9617 0.141029 13.8119 0.308507 10.6386 3.70212C8.93742 5.51793 7.39486 7.17507 7.20094 7.37781C6.92769 7.65988 6.84836 7.82735 6.8131 8.14468C6.76903 8.51489 6.78666 8.56778 7.07754 8.85866L7.38605 9.16717H8.27632H9.1666V11.6441C9.1666 13.1778 9.20186 14.1827 9.25474 14.2884C9.36052 14.4824 9.85414 14.5264 10.0304 14.3502C10.1098 14.2708 10.1362 13.4863 10.1362 11.362C10.1362 8.79696 10.1186 8.47082 9.99517 8.36504C9.89821 8.28571 9.50155 8.22401 8.81401 8.19757L7.78271 8.15349L9.73073 6.07325C10.7973 4.92735 12.3134 3.31428 13.0891 2.4769L14.4994 0.960787L14.9313 1.42796C15.1781 1.68358 15.6101 2.15076 15.9009 2.46808C16.2006 2.78541 16.9587 3.59635 17.5845 4.27507C18.8274 5.61489 19.6207 6.46109 20.6256 7.51003L21.269 8.19757H20.2642C18.7304 8.19757 18.8626 7.90668 18.8626 11.2915C18.8626 13.072 18.8979 14.1739 18.9508 14.2884C19.0742 14.5088 19.5502 14.5176 19.7088 14.2973C19.797 14.1827 19.8234 13.5921 19.8323 11.6529V9.16717H20.6785C21.8508 9.16717 22.2122 8.92918 22.2122 8.15349C22.2122 7.7921 22.318 7.9155 18.0693 3.35836C16.4915 1.66595 15.0812 0.220361 14.9225 0.141029C14.6405 -3.8147e-06 14.4289 -0.0264473 14.1909 0.061698Z" fill="#4AD771"/>
<path d="M12.2172 9.83819C12.0938 9.95278 12.0762 10.2789 12.0762 12.0418C12.0762 13.3023 12.1114 14.1838 12.1643 14.2896C12.226 14.4041 12.3494 14.457 12.561 14.457C12.7725 14.457 12.8959 14.4041 12.9576 14.2896C13.0105 14.1838 13.0458 13.3023 13.0458 12.0418C13.0458 9.80293 13.0281 9.69715 12.561 9.69715C12.4464 9.69715 12.2877 9.75885 12.2172 9.83819Z" fill="#4AD771"/>
<path d="M16.0942 9.83819C15.9708 9.95278 15.9531 10.2789 15.9531 12.0418C15.9531 13.3023 15.9884 14.1838 16.0413 14.2896C16.103 14.4041 16.2264 14.457 16.4379 14.457C16.6495 14.457 16.7729 14.4041 16.8346 14.2896C16.8875 14.1838 16.9227 13.3023 16.9227 12.0418C16.9227 9.80293 16.9051 9.69715 16.4379 9.69715C16.3233 9.69715 16.1647 9.75885 16.0942 9.83819Z" fill="#4AD771"/>
<path d="M4.36296 15.5577C3.93105 15.7076 3.56965 16.1043 3.44625 16.545C3.30521 17.0298 3.31403 27.5456 3.44625 27.9511C3.57847 28.3301 3.93105 28.7267 4.29245 28.8766C4.53044 28.9824 6.26692 29 14.4909 29C21.2958 29 24.4867 28.9736 24.6541 28.903C25.0067 28.7708 25.2976 28.4799 25.4827 28.0745C25.6326 27.7395 25.6502 27.3869 25.6502 22.3009C25.6502 18.634 25.6149 16.7653 25.5532 16.5274C25.4298 16.0866 24.9891 15.6459 24.5484 15.5225C24.3016 15.452 21.2693 15.4255 14.4557 15.4255C6.29336 15.4343 4.66266 15.452 4.36296 15.5577ZM10.9739 16.8711L10.445 17.3471L8.96418 17.3824C7.61555 17.4088 7.4657 17.4264 7.35111 17.5763C7.28059 17.6733 7.22771 17.8672 7.22771 17.9994C7.22771 18.5018 6.69002 19.1629 6.20521 19.2599C5.21798 19.4626 5.2885 19.2334 5.2885 22.1951C5.2885 24.9805 5.31494 25.1216 5.79974 25.1216C6.16995 25.1304 6.7429 25.4213 6.95445 25.721C7.06023 25.8708 7.17482 26.1705 7.21889 26.3909C7.34229 27.0696 7.32467 27.0608 8.98181 27.0608L10.445 27.0696L10.9563 27.5456L11.4675 28.0304H8.06509C4.78606 28.0304 4.66266 28.0216 4.49518 27.8541C4.31889 27.6778 4.31889 27.5632 4.31889 22.2568V16.827L4.53926 16.6155L4.75081 16.3951H8.12679H11.5028L10.9739 16.8711ZM15.8043 16.6772C17.2235 17.1356 18.4575 18.4754 19.004 20.1502C19.242 20.8818 19.2596 21.0316 19.2596 22.2568C19.2508 23.4556 19.2332 23.6495 19.0128 24.2842C18.6867 25.2538 18.2195 26.0295 17.5408 26.7082C16.6152 27.6337 15.4253 28.1009 14.2353 28.004C12.1286 27.8365 10.4803 26.2498 9.86327 23.7994C9.59002 22.7064 9.65172 21.1638 10.0219 20.0796C10.9651 17.3207 13.4067 15.8839 15.8043 16.6772ZM24.4602 16.6155L24.6806 16.827V22.2568C24.6806 27.5632 24.6806 27.6778 24.5043 27.8541C24.3368 28.0216 24.2134 28.0304 20.9344 28.0304H17.532L18.0432 27.5456L18.5545 27.0696L20.0177 27.0608C21.6748 27.0608 21.6572 27.0696 21.7806 26.3909C21.8247 26.1705 21.9393 25.8708 22.045 25.721C22.2566 25.4213 22.8295 25.1304 23.1997 25.1216C23.6845 25.1216 23.711 24.9805 23.711 22.1951C23.711 19.4538 23.711 19.445 23.2174 19.348C23.1028 19.3216 22.9089 19.2863 22.7943 19.2599C22.3095 19.1629 21.7718 18.5018 21.7718 17.9994C21.7718 17.8672 21.7189 17.6733 21.6484 17.5763C21.5338 17.4264 21.3839 17.4088 20.0353 17.3824L18.5545 17.3471L18.0256 16.8711L17.4967 16.3951H20.8727H24.2487L24.4602 16.6155ZM9.66935 18.4401C8.97299 19.9915 8.72619 20.9787 8.72619 22.2657C8.72619 23.3234 8.92011 24.2666 9.30795 25.1657C9.48424 25.5535 9.6429 25.9237 9.66935 25.9766C9.70461 26.0647 9.52831 26.0912 8.95537 26.0912H8.20612L8.0122 25.6505C7.78302 25.1128 7.1043 24.4693 6.6195 24.3195L6.2581 24.2137L6.27573 22.2304L6.30217 20.2471L6.66357 20.1237C7.32467 19.9033 7.86236 19.3039 8.13561 18.4842C8.17968 18.3608 8.30309 18.3343 8.95537 18.3343C9.52831 18.3343 9.70461 18.3608 9.66935 18.4401ZM20.952 18.7398C21.1724 19.3921 21.8423 20.0003 22.5915 20.2207C22.7238 20.2647 22.7414 20.441 22.7414 22.2392V24.2137L22.38 24.3195C21.8952 24.4693 21.2165 25.1128 20.9873 25.6505L20.7934 26.0912H20.0529C19.6386 26.0912 19.3037 26.0736 19.3037 26.0471C19.3037 26.0207 19.383 25.8444 19.48 25.6505C20 24.6191 20.2733 23.4909 20.2733 22.2833C20.2733 20.9787 20.0353 20.0179 19.3301 18.4401C19.2949 18.352 19.4535 18.3343 20.0529 18.352L20.8286 18.3784L20.952 18.7398Z" fill="#4AD771"/>
<path d="M14.3673 17.4261C14.1381 17.5054 14.0147 17.7346 14.0147 18.0784C14.0147 18.3869 13.9971 18.4045 13.6886 18.4662C12.4986 18.6778 11.6348 19.5592 11.6348 20.5376C11.6348 21.1018 11.8639 21.5689 12.3487 21.9832C12.719 22.3006 13.5123 22.6531 13.8384 22.6531C14.0059 22.6531 14.0147 22.7237 14.0147 23.8431C14.0147 25.1829 14.0235 25.1741 13.3536 24.8656C12.9041 24.6629 12.719 24.4425 12.5779 23.9753C12.4457 23.5082 12.2606 23.3759 11.9256 23.4993C11.6965 23.5787 11.6788 23.6139 11.6788 24.0723C11.6788 24.4689 11.7317 24.6364 11.9345 24.9361C12.2606 25.4033 12.8071 25.7647 13.4858 25.9498C14.0147 26.0996 14.0147 26.0996 14.0147 26.4346C14.0147 26.6462 14.0764 26.8224 14.1734 26.9106C14.5436 27.2455 14.9843 26.9723 14.9843 26.417C14.9843 26.0996 14.9931 26.0996 15.5132 25.9498C16.1919 25.7647 16.7384 25.4033 17.0646 24.9273C17.2849 24.61 17.3202 24.4866 17.3202 23.9313C17.3202 23.3848 17.2849 23.2525 17.0734 22.9264C16.7737 22.4769 16.1655 22.0714 15.4956 21.8863L14.9843 21.7452V20.5641C14.9843 19.6826 15.0108 19.3917 15.0989 19.3917C15.1518 19.3917 15.4074 19.4887 15.6454 19.6033C16.1126 19.8148 16.3241 20.0528 16.4299 20.4936C16.518 20.855 16.6415 20.9784 16.9147 20.9784C17.2408 20.9784 17.3642 20.8285 17.3642 20.4319C17.3642 19.5592 16.4387 18.6689 15.3193 18.4662C15.0019 18.4045 14.9843 18.3869 14.9843 18.0607C14.9843 17.8316 14.9226 17.6553 14.808 17.5407C14.6229 17.3556 14.5877 17.3468 14.3673 17.4261ZM14.0147 20.5376C14.0147 21.3927 13.9883 21.6835 13.9089 21.6835C13.6798 21.6835 12.8864 21.2516 12.7454 21.0577C12.384 20.5376 12.6661 19.903 13.4153 19.568C14.0323 19.286 14.0147 19.2683 14.0147 20.5376ZM16.0509 23.2702C16.3241 23.5258 16.3946 23.658 16.3946 23.9048C16.3946 24.3015 16.1214 24.6541 15.6542 24.8656C14.9755 25.1741 14.9843 25.1829 14.9843 23.896V22.7589L15.3457 22.8559C15.5573 22.9088 15.857 23.0851 16.0509 23.2702Z" fill="#4AD771"/>
</g>
<defs>
<clipPath id="clip0_6604_5830">
<rect width="29" height="29" fill="white"/>
</clipPath>
</defs>
</svg>
