<svg width="40" height="40" viewBox="0 0 40 40" fill="none" xmlns="http://www.w3.org/2000/svg">
<g id="Arrow Circle Up Right / undefined / Glyph: undefined" clip-path="url(#clip0_6604_4271)">
<path id="Vector" d="M8.86511 31.4132C2.5557 25.1038 2.55576 14.8742 8.86511 8.56482C15.1745 2.25541 25.4041 2.25541 31.7135 8.56482C38.0229 14.8742 38.0229 25.1038 31.7135 31.4132C25.4041 37.7226 15.1745 37.7226 8.86511 31.4132ZM19.4326 13.42L24.8482 18.8357L12.8695 18.7774C12.2003 18.7742 11.6552 19.3139 11.652 19.9831C11.6486 20.6524 12.1885 21.1976 12.8578 21.2008L24.7318 21.2586L19.4326 26.5578C18.9594 27.031 18.9594 27.7982 19.4326 28.2714C19.9058 28.7446 20.673 28.7446 21.1462 28.2714L28.5719 20.8457C29.0451 20.3725 29.0451 19.6053 28.5719 19.1321L21.1462 11.7064C20.673 11.2332 19.9058 11.2332 19.4326 11.7064C18.9594 12.1796 18.9594 12.9468 19.4326 13.42Z" fill="#032F59"/>
</g>
<defs>
<clipPath id="clip0_6604_4271">
<rect width="38.775" height="38.775" fill="white" transform="translate(0.901611 0.601562)"/>
</clipPath>
</defs>
</svg>
