<svg width="100" height="100" viewBox="0 0 100 100" fill="none" xmlns="http://www.w3.org/2000/svg">
<g id="Group 12070">
<rect id="Rectangle 4507" width="100" height="100" rx="15" fill="#D9D9D9"/>
<path id="Vector" d="M27.5 15C25.567 15 24 16.567 24 18.5C24 20.433 25.567 22 27.5 22H73C74.933 22 76.5 20.433 76.5 18.5C76.5 16.567 74.933 15 73 15H27.5ZM52.7248 28.2751C51.3581 26.9083 49.1419 26.9083 47.7752 28.2751L30.2751 45.7752C28.9083 47.1419 28.9083 49.3581 30.2751 50.7248C31.642 52.0916 33.858 52.0916 35.2249 50.7248L46.75 39.1997V81.5C46.75 83.4331 48.3169 85 50.25 85C52.1831 85 53.75 83.4331 53.75 81.5V39.1997L65.2752 50.7248C66.6419 52.0916 68.8581 52.0916 70.2248 50.7248C71.5916 49.3581 71.5916 47.1419 70.2248 45.7752L52.7248 28.2751Z" fill="#0074E3"/>
</g>
</svg>
