<svg width="33" height="32" viewBox="0 0 33 32" fill="none" xmlns="http://www.w3.org/2000/svg">
<g id="Group 12071">
<path id="Vector" d="M24.0835 3.43984C21.9507 2.20611 19.4745 1.5 16.8335 1.5C8.82536 1.5 2.3335 7.99187 2.3335 16C2.3335 18.3196 2.87814 20.5118 3.84651 22.4561C4.10386 22.9728 4.18951 23.5633 4.04032 24.1209L3.17669 27.3487C2.80177 28.7499 4.08366 30.0317 5.48485 29.6568L8.71261 28.7932C9.2702 28.644 9.86075 28.7297 10.3774 28.9869C12.3216 29.9554 14.5139 30.5 16.8335 30.5C24.8416 30.5 31.3335 24.0081 31.3335 16C31.3335 13.359 30.6273 10.8828 29.3937 8.75" stroke="#764AD7" stroke-width="2.75" stroke-linecap="round"/>
<path id="Vector_2" d="M11.0337 16H11.0467M16.8206 16H16.8337M22.6206 16H22.6337" stroke="#764AD7" stroke-width="3" stroke-linecap="round" stroke-linejoin="round"/>
</g>
</svg>
