<svg width="29" height="30" viewBox="0 0 29 30" fill="none" xmlns="http://www.w3.org/2000/svg">
<g id="Group">
<path id="Vector" d="M15.4116 2.3125C15.9121 2.3125 16.3178 2.71824 16.3178 3.21875C16.3178 3.68351 15.968 4.06655 15.5173 4.1189L15.4116 4.125H6.34375C4.89585 4.125 3.71231 5.25683 3.62962 6.684L3.625 6.84375V23.1562C3.625 24.6041 4.75683 25.7877 6.184 25.8704L6.34375 25.875H22.6562C24.1041 25.875 25.2877 24.7432 25.3704 23.316L25.375 23.1562V14.0971C25.375 13.5966 25.7807 13.1909 26.2812 13.1909C26.746 13.1909 27.1291 13.5407 27.1814 13.9914L27.1875 14.0971V23.1562C27.1875 25.5929 25.2642 27.5804 22.8528 27.6833L22.6562 27.6875H6.34375C3.90707 27.6875 1.9196 25.7642 1.81669 23.3528L1.8125 23.1562V6.84375C1.8125 4.40707 3.73584 2.4196 6.14719 2.31669L6.34375 2.3125H15.4116ZM25.064 4.21608C25.4179 4.57 25.4179 5.1438 25.064 5.49771L14.6566 15.9062H18.8114C19.3119 15.9062 19.7176 16.312 19.7176 16.8125C19.7176 17.313 19.3119 17.7188 18.8114 17.7188H12.4676C11.9671 17.7188 11.5614 17.313 11.5614 16.8125V10.4688C11.5614 9.96824 11.9671 9.5625 12.4676 9.5625C12.9681 9.5625 13.3739 9.96824 13.3739 10.4688L13.3742 14.6248L23.7824 4.21608C24.1363 3.86217 24.7101 3.86217 25.064 4.21608Z" fill="#4AD771"/>
</g>
</svg>
