<svg xmlns="http://www.w3.org/2000/svg" width="68" height="21" fill="none" viewBox="0 0 68 21">
  <rect width="68" height="21" fill="#E64444" rx="10.5"/>
  <path fill="#fff" d="M16.84 9.592h-1.108a1.694 1.694 0 0 0-.664-1.083 1.836 1.836 0 0 0-.565-.284 2.204 2.204 0 0 0-.657-.096c-.42 0-.794.106-1.126.316-.329.211-.59.52-.781.927-.19.407-.284.905-.284 1.492 0 .591.095 1.091.284 1.498.192.407.453.715.785.924.331.208.704.312 1.118.312.23 0 .448-.03.654-.092.208-.064.396-.158.564-.28a1.718 1.718 0 0 0 .671-1.07l1.109.004c-.06.357-.174.686-.345.987a2.725 2.725 0 0 1-.65.774 2.94 2.94 0 0 1-.902.5 3.338 3.338 0 0 1-1.108.178c-.63 0-1.19-.149-1.683-.447-.492-.3-.88-.73-1.165-1.29-.281-.558-.422-1.224-.422-1.998 0-.777.142-1.443.426-2 .284-.558.672-.987 1.165-1.285a3.159 3.159 0 0 1 1.68-.451c.385 0 .745.055 1.079.167.336.109.638.27.905.483.268.21.49.468.664.774.176.303.294.65.355 1.04Zm2.815 5.029c-.346 0-.659-.064-.938-.192-.28-.13-.5-.318-.664-.565-.16-.246-.241-.548-.241-.905 0-.308.059-.561.177-.76.119-.199.278-.356.48-.472.2-.116.426-.204.674-.263.249-.06.502-.104.76-.135l.796-.093c.203-.026.351-.067.444-.124.092-.057.138-.149.138-.277v-.025c0-.31-.087-.55-.263-.72-.172-.171-.43-.256-.774-.256-.357 0-.64.08-.845.238-.204.156-.345.33-.423.522l-.997-.227a1.92 1.92 0 0 1 .518-.803c.23-.206.494-.355.792-.448a3.11 3.11 0 0 1 1.633-.063c.247.05.476.142.69.277.215.134.391.327.528.578.138.249.206.572.206.97V14.5H21.31v-.746h-.042a1.513 1.513 0 0 1-.31.405 1.64 1.64 0 0 1-.528.33 2.052 2.052 0 0 1-.774.132Zm.23-.853c.294 0 .545-.058.753-.174.211-.115.37-.267.48-.454.111-.19.167-.392.167-.607v-.704a.553.553 0 0 1-.22.107 3.43 3.43 0 0 1-.366.082 41.63 41.63 0 0 1-.402.06c-.13.017-.239.03-.326.043a2.66 2.66 0 0 0-.565.131.97.97 0 0 0-.405.266.666.666 0 0 0-.149.455c0 .263.097.462.291.597.194.132.442.198.742.198Zm4.937-2.507V14.5h-1.061V9.045h1.019v.888h.067a1.56 1.56 0 0 1 .59-.696c.27-.175.61-.263 1.019-.263.372 0 .697.079.977.235.279.154.495.383.65.689.153.305.23.683.23 1.133V14.5h-1.062v-3.342c0-.395-.103-.704-.309-.926-.206-.225-.488-.338-.848-.338a1.33 1.33 0 0 0-.657.16 1.15 1.15 0 0 0-.451.469c-.11.203-.164.45-.164.738Zm7.213 3.35c-.528 0-.983-.12-1.364-.36a2.375 2.375 0 0 1-.873-.997c-.204-.424-.306-.91-.306-1.456 0-.554.104-1.043.313-1.467.208-.426.502-.759.88-.998.38-.239.825-.359 1.34-.359.413 0 .783.077 1.107.231a1.94 1.94 0 0 1 1.144 1.602h-1.034a1.238 1.238 0 0 0-.39-.66c-.202-.185-.472-.278-.81-.278-.296 0-.555.078-.778.235-.22.154-.392.374-.515.66-.123.284-.184.62-.184 1.009 0 .398.06.74.18 1.03.121.288.292.512.512.67.223.16.484.239.785.239.201 0 .383-.037.547-.11.166-.076.304-.184.415-.324a1.21 1.21 0 0 0 .238-.504h1.034a2.008 2.008 0 0 1-.345.945 1.984 1.984 0 0 1-.77.653c-.32.159-.695.238-1.126.238Zm5.727 0c-.538 0-1-.116-1.389-.345a2.336 2.336 0 0 1-.895-.977c-.208-.421-.312-.915-.312-1.48 0-.56.104-1.052.313-1.478.21-.426.504-.759.88-.998.379-.239.822-.359 1.328-.359.308 0 .606.051.895.153.289.102.548.262.778.48.23.217.41.5.543.848.133.346.2.766.2 1.26v.377h-4.337v-.795h3.296c0-.28-.057-.527-.17-.742a1.29 1.29 0 0 0-.48-.515 1.34 1.34 0 0 0-.718-.188 1.38 1.38 0 0 0-.78.22 1.466 1.466 0 0 0-.512.568 1.64 1.64 0 0 0-.178.756v.622c0 .364.064.675.192.93.13.256.311.451.543.586.232.133.503.199.813.199.202 0 .385-.029.551-.085a1.143 1.143 0 0 0 .707-.692l1.005.18a1.82 1.82 0 0 1-.434.778 2.1 2.1 0 0 1-.777.515c-.31.12-.664.181-1.062.181Zm4.58-7.384V14.5H41.28V7.227h1.062Zm2.49 0V14.5H43.77V7.227h1.062Zm3.78 7.383c-.538 0-1-.115-1.389-.344a2.336 2.336 0 0 1-.895-.977c-.208-.421-.312-.915-.312-1.48 0-.56.104-1.052.312-1.478.21-.426.504-.759.88-.998.38-.239.822-.359 1.329-.359.308 0 .606.051.895.153.289.102.548.262.777.48.23.217.411.5.544.848.132.346.199.766.199 1.26v.377h-4.336v-.795h3.295c0-.28-.057-.527-.17-.742a1.29 1.29 0 0 0-.48-.515 1.34 1.34 0 0 0-.717-.188c-.298 0-.559.073-.781.22a1.49 1.49 0 0 0-.512.568 1.64 1.64 0 0 0-.177.756v.622c0 .364.064.675.192.93.13.256.31.451.543.586.232.133.503.199.813.199.201 0 .385-.029.55-.085a1.143 1.143 0 0 0 .707-.692l1.005.18a1.82 1.82 0 0 1-.433.778 2.1 2.1 0 0 1-.778.515c-.31.12-.664.181-1.062.181Zm5.56-.003c-.44 0-.834-.113-1.18-.338a2.3 2.3 0 0 1-.809-.97c-.194-.42-.291-.926-.291-1.516s.098-1.093.295-1.512c.199-.42.47-.74.816-.963a2.124 2.124 0 0 1 1.176-.334c.338 0 .61.057.817.17.208.112.369.242.482.392.116.149.206.28.27.394h.064V7.227h1.062V14.5h-1.037v-.849h-.089a2.8 2.8 0 0 1-.277.398c-.118.15-.281.28-.49.39-.208.112-.478.168-.81.168Zm.234-.906c.306 0 .563-.08.774-.242.213-.163.374-.389.483-.678.111-.289.167-.625.167-1.008 0-.38-.054-.71-.163-.995a1.461 1.461 0 0 0-.48-.664c-.21-.158-.47-.238-.78-.238-.32 0-.587.083-.8.249a1.519 1.519 0 0 0-.483.678c-.106.287-.16.61-.16.97 0 .364.055.692.164.983.109.292.27.522.483.693.215.168.48.252.795.252Z"/>
</svg>
