<svg xmlns="http://www.w3.org/2000/svg" width="60" height="21" fill="none" viewBox="0 0 60 21">
  <rect width="60" height="21" fill="#DCB012" rx="10.5"/>
  <path fill="#fff" d="M10.799 14.5V7.227h2.592c.566 0 1.035.103 1.407.31.371.205.65.487.834.844.185.356.277.756.277 1.2 0 .448-.093.85-.28 1.208a2.03 2.03 0 0 1-.838.845c-.372.206-.84.31-1.403.31h-1.783v-.931h1.683c.358 0 .648-.062.87-.185.223-.125.386-.296.49-.511.105-.216.157-.46.157-.735 0-.275-.052-.519-.157-.732a1.12 1.12 0 0 0-.493-.5c-.223-.121-.516-.182-.88-.182h-1.379V14.5H10.8Zm8.594.11c-.538 0-1-.115-1.389-.344a2.336 2.336 0 0 1-.895-.977c-.208-.421-.312-.915-.312-1.48 0-.56.104-1.052.312-1.478.211-.426.505-.759.881-.998.379-.239.822-.359 1.328-.359.308 0 .606.051.895.153.289.102.548.262.778.48.23.217.41.5.543.848.133.346.199.766.199 1.26v.377h-4.336v-.795h3.296c0-.28-.057-.527-.171-.742a1.288 1.288 0 0 0-.48-.515 1.34 1.34 0 0 0-.717-.188c-.298 0-.558.073-.781.22a1.48 1.48 0 0 0-.511.568 1.64 1.64 0 0 0-.178.756v.622c0 .364.064.675.192.93.13.256.311.451.543.586.232.133.503.199.813.199.202 0 .385-.029.55-.085a1.14 1.14 0 0 0 .707-.692l1.006.18a1.82 1.82 0 0 1-.434.778 2.1 2.1 0 0 1-.777.515 2.91 2.91 0 0 1-1.062.181Zm4.58-3.349V14.5H22.91V9.045h1.02v.888h.067a1.56 1.56 0 0 1 .59-.696c.27-.175.609-.263 1.018-.263.372 0 .698.079.977.235.28.154.496.383.65.689.154.305.23.683.23 1.133V14.5h-1.061v-3.342c0-.395-.103-.704-.31-.926-.205-.225-.488-.338-.848-.338a1.33 1.33 0 0 0-.657.16 1.15 1.15 0 0 0-.45.469c-.11.203-.164.45-.164.738Zm6.957 3.346c-.44 0-.834-.113-1.18-.338a2.3 2.3 0 0 1-.81-.97c-.193-.42-.29-.926-.29-1.516s.098-1.093.294-1.512c.2-.42.472-.74.817-.963a2.124 2.124 0 0 1 1.176-.334c.338 0 .61.057.816.17.209.112.37.242.483.392.116.149.206.28.27.394h.064V7.227h1.062V14.5h-1.037v-.849h-.089a2.8 2.8 0 0 1-.277.398c-.118.15-.281.28-.49.39-.208.112-.478.168-.81.168Zm.234-.906c.305 0 .563-.08.774-.242.213-.163.374-.389.483-.678.111-.289.167-.625.167-1.008 0-.38-.055-.71-.163-.995a1.461 1.461 0 0 0-.48-.664c-.21-.158-.471-.238-.781-.238-.32 0-.586.083-.8.249a1.519 1.519 0 0 0-.482.678 2.76 2.76 0 0 0-.16.97c0 .364.055.692.163.983.11.292.27.522.483.693.216.168.481.252.796.252Zm3.983.799V9.045h1.062V14.5h-1.062Zm.537-6.296a.675.675 0 0 1-.476-.185.6.6 0 0 1-.196-.447c0-.175.066-.325.196-.448a.668.668 0 0 1 .476-.188c.184 0 .342.063.472.188a.588.588 0 0 1 .199.448.595.595 0 0 1-.2.447.663.663 0 0 1-.471.185Zm3.015 3.057V14.5h-1.061V9.045h1.019v.888h.067c.126-.289.322-.52.59-.696.27-.175.61-.263 1.019-.263.372 0 .697.079.977.235.279.154.495.383.65.689.153.305.23.683.23 1.133V14.5h-1.062v-3.342c0-.395-.103-.704-.309-.926-.206-.225-.488-.338-.848-.338a1.33 1.33 0 0 0-.657.16 1.15 1.15 0 0 0-.451.469c-.11.203-.164.45-.164.738Zm7.202 5.398c-.433 0-.806-.057-1.119-.17a2.166 2.166 0 0 1-.76-.451 1.895 1.895 0 0 1-.44-.615l.913-.376c.064.104.149.214.256.33.108.118.255.22.44.302.187.083.427.124.72.124.403 0 .736-.098.999-.295.262-.194.394-.504.394-.93v-1.072h-.068a2.418 2.418 0 0 1-.277.387 1.498 1.498 0 0 1-.49.37c-.208.103-.48.155-.813.155-.43 0-.82-.1-1.165-.301a2.142 2.142 0 0 1-.816-.899c-.2-.398-.299-.887-.299-1.467 0-.58.099-1.077.295-1.491.199-.414.471-.732.817-.952a2.124 2.124 0 0 1 1.175-.334c.339 0 .612.057.82.17.209.112.371.242.487.392.118.149.21.28.273.394h.079v-.885h1.04v5.576c0 .468-.109.853-.327 1.154-.217.3-.512.523-.884.667a3.41 3.41 0 0 1-1.25.217Zm-.01-3.121c.305 0 .563-.071.774-.213.213-.145.374-.35.483-.618.11-.27.166-.593.166-.97 0-.367-.054-.69-.163-.97a1.44 1.44 0 0 0-.48-.653c-.21-.158-.47-.238-.78-.238-.32 0-.587.083-.8.249a1.5 1.5 0 0 0-.483.668c-.106.281-.16.596-.16.944 0 .358.055.671.164.941.109.27.27.48.483.632.215.152.48.228.795.228Z"/>
</svg>
