<svg xmlns="http://www.w3.org/2000/svg" width="73" height="21" fill="none" viewBox="0 0 73 21">
  <rect width="73" height="21" fill="#4AD771" rx="10.5"/>
  <path fill="#fff" d="M16.84 9.592h-1.108a1.694 1.694 0 0 0-.664-1.083 1.836 1.836 0 0 0-.565-.284 2.204 2.204 0 0 0-.657-.096c-.42 0-.794.106-1.126.316-.329.211-.59.52-.781.927-.19.407-.284.905-.284 1.492 0 .591.095 1.091.284 1.498.192.407.453.715.785.924.331.208.704.312 1.118.312.23 0 .448-.03.654-.092.208-.064.396-.158.564-.28a1.718 1.718 0 0 0 .671-1.07l1.109.004c-.06.357-.174.686-.345.987a2.725 2.725 0 0 1-.65.774 2.94 2.94 0 0 1-.902.5 3.338 3.338 0 0 1-1.108.178c-.63 0-1.19-.149-1.683-.447-.492-.3-.88-.73-1.165-1.29-.281-.558-.422-1.224-.422-1.998 0-.777.142-1.443.426-2 .284-.558.672-.987 1.165-1.285a3.159 3.159 0 0 1 1.68-.451c.385 0 .745.055 1.079.167.336.109.638.27.905.483.268.21.49.468.664.774.176.303.294.65.355 1.04Zm3.525 5.018c-.511 0-.958-.117-1.339-.351a2.37 2.37 0 0 1-.888-.984c-.21-.421-.316-.914-.316-1.477 0-.566.106-1.061.316-1.485.211-.424.507-.753.888-.987.381-.234.828-.352 1.339-.352s.958.118 1.339.352c.38.234.677.563.887.987.211.424.316.919.316 1.485 0 .563-.105 1.056-.316 1.477a2.37 2.37 0 0 1-.887.983c-.381.235-.828.352-1.34.352Zm.003-.891c.332 0 .607-.088.824-.263a1.54 1.54 0 0 0 .483-.7c.107-.29.16-.612.16-.962a2.77 2.77 0 0 0-.16-.959 1.561 1.561 0 0 0-.483-.706c-.218-.178-.492-.267-.824-.267-.333 0-.61.089-.83.267-.218.177-.38.413-.487.706a2.833 2.833 0 0 0-.156.959c0 .35.052.671.156.962.107.292.269.525.487.7.22.175.497.263.83.263Zm3.725.781V9.045h1.019v.888h.067c.114-.3.3-.535.558-.703.258-.17.567-.256.927-.256.364 0 .67.086.916.256.248.17.432.405.55.703h.057c.13-.291.337-.523.622-.696.284-.175.622-.263 1.015-.263.495 0 .899.155 1.211.466.315.31.473.777.473 1.402V14.5h-1.062v-3.558c0-.37-.1-.637-.302-.803a1.098 1.098 0 0 0-.721-.248c-.346 0-.614.106-.806.32-.192.21-.288.481-.288.812V14.5h-1.058v-3.626c0-.296-.092-.534-.277-.713-.185-.18-.425-.27-.72-.27-.202 0-.388.053-.558.16a1.17 1.17 0 0 0-.409.436 1.338 1.338 0 0 0-.152.65V14.5h-1.062Zm8.838 2.046v-7.5h1.037v.884h.088c.062-.114.15-.245.267-.394.116-.15.277-.28.483-.391.206-.114.478-.17.816-.17.44 0 .834.11 1.18.333.345.223.616.544.813.963.198.419.298.923.298 1.512 0 .59-.098 1.095-.295 1.517a2.3 2.3 0 0 1-.81.97 2.097 2.097 0 0 1-1.175.337c-.331 0-.602-.056-.813-.167a1.537 1.537 0 0 1-.49-.391 2.958 2.958 0 0 1-.274-.398h-.064v2.895h-1.061Zm1.04-4.773c0 .383.056.72.167 1.008.111.29.272.515.483.678.21.162.469.242.774.242.317 0 .582-.084.795-.252.214-.17.375-.401.483-.693a2.74 2.74 0 0 0 .167-.983c0-.36-.054-.683-.163-.97a1.484 1.484 0 0 0-.483-.678c-.213-.166-.48-.249-.799-.249-.308 0-.568.08-.781.238-.21.159-.37.38-.48.664a2.77 2.77 0 0 0-.163.995Zm6.193-4.546V14.5h-1.062V7.227h1.062Zm3.78 7.383c-.538 0-1-.115-1.389-.344a2.337 2.337 0 0 1-.895-.977c-.208-.421-.312-.915-.312-1.48 0-.56.104-1.052.312-1.478.21-.426.504-.759.88-.998.38-.239.822-.359 1.329-.359.308 0 .606.051.895.153.289.102.548.262.777.48.23.217.411.5.544.848.132.346.199.766.199 1.26v.377h-4.336v-.795h3.295c0-.28-.057-.527-.17-.742a1.288 1.288 0 0 0-.48-.515 1.34 1.34 0 0 0-.717-.188c-.298 0-.559.073-.781.22a1.48 1.48 0 0 0-.511.568 1.64 1.64 0 0 0-.178.756v.622c0 .364.064.675.192.93.13.256.311.451.543.586.232.133.503.199.813.199.201 0 .385-.029.55-.085a1.142 1.142 0 0 0 .707-.692l1.005.18a1.82 1.82 0 0 1-.433.778 2.1 2.1 0 0 1-.778.515c-.31.12-.664.181-1.062.181Zm6.064-5.565v.853h-2.98v-.853h2.98Zm-2.18-1.306h1.061v5.16c0 .205.031.36.093.465.061.101.14.171.238.21.1.035.207.052.323.052.085 0 .16-.005.224-.017l.149-.029.191.877a2.07 2.07 0 0 1-.689.114 1.844 1.844 0 0 1-.78-.15 1.34 1.34 0 0 1-.587-.482c-.149-.218-.223-.491-.223-.82v-5.38Zm5.647 6.871c-.538 0-1-.115-1.389-.344a2.336 2.336 0 0 1-.895-.977c-.208-.421-.312-.915-.312-1.48 0-.56.104-1.052.312-1.478.211-.426.505-.759.881-.998.379-.239.822-.359 1.328-.359.308 0 .606.051.895.153.289.102.548.262.778.48.23.217.41.5.543.848.133.346.199.766.199 1.26v.377h-4.336v-.795h3.296c0-.28-.057-.527-.171-.742a1.288 1.288 0 0 0-.48-.515 1.34 1.34 0 0 0-.717-.188 1.38 1.38 0 0 0-.78.22 1.466 1.466 0 0 0-.512.568 1.64 1.64 0 0 0-.178.756v.622c0 .364.064.675.192.93.13.256.311.451.543.586.232.133.503.199.813.199.202 0 .385-.029.55-.085a1.142 1.142 0 0 0 .707-.692l1.005.18a1.82 1.82 0 0 1-.433.778 2.1 2.1 0 0 1-.777.515c-.31.12-.664.181-1.062.181Zm5.56-.003c-.44 0-.833-.113-1.179-.338a2.3 2.3 0 0 1-.81-.97c-.194-.42-.29-.926-.29-1.516s.097-1.093.294-1.512c.199-.42.471-.74.817-.963a2.124 2.124 0 0 1 1.175-.334c.339 0 .61.057.817.17.208.112.37.242.483.392.116.149.206.28.27.394h.064V7.227h1.061V14.5H60.7v-.849h-.088a2.809 2.809 0 0 1-.277.398 1.52 1.52 0 0 1-.49.39c-.209.112-.479.168-.81.168Zm.234-.906c.306 0 .564-.08.775-.242.213-.163.374-.389.483-.678.11-.289.166-.625.166-1.008 0-.38-.054-.71-.163-.995a1.461 1.461 0 0 0-.48-.664c-.21-.158-.47-.238-.78-.238-.32 0-.587.083-.8.249a1.52 1.52 0 0 0-.483.678c-.106.287-.16.61-.16.97 0 .364.055.692.164.983.109.292.27.522.483.693.215.168.48.252.795.252Z"/>
</svg>
