<svg xmlns="http://www.w3.org/2000/svg" width="61" height="21" fill="none" viewBox="0 0 61 21">
  <rect width="61" height="21" fill="#764AD7" rx="10.5"/>
  <path fill="#fff" d="M17.116 10.864c0 .776-.142 1.444-.426 2.002a3.128 3.128 0 0 1-1.168 1.286c-.492.298-1.052.447-1.68.447-.63 0-1.192-.149-1.687-.447-.492-.3-.88-.73-1.164-1.29-.284-.558-.426-1.224-.426-1.998 0-.777.142-1.443.426-2 .284-.558.672-.987 1.165-1.285a3.183 3.183 0 0 1 1.686-.451c.628 0 1.188.15 1.68.45.495.3.884.728 1.168 1.286.284.557.426 1.223.426 2Zm-1.086 0c0-.592-.096-1.09-.288-1.495-.19-.408-.45-.715-.781-.924a2.03 2.03 0 0 0-1.119-.316c-.419 0-.793.106-1.122.316-.329.209-.59.516-.781.924-.19.404-.284.903-.284 1.495 0 .591.095 1.091.284 1.498.192.405.452.713.781.924.33.208.703.312 1.122.312.417 0 .79-.104 1.119-.313.331-.21.592-.518.781-.923.192-.407.288-.906.288-1.498Zm3.431.397V14.5H18.4V9.045h1.02v.888h.067c.125-.289.322-.52.59-.696.27-.175.61-.263 1.019-.263.371 0 .697.079.976.235.28.154.496.383.65.689.154.305.23.683.23 1.133V14.5h-1.06v-3.342c0-.395-.104-.704-.31-.926-.206-.225-.489-.338-.849-.338a1.33 1.33 0 0 0-.656.16c-.19.107-.34.263-.451.469-.11.203-.164.45-.164.738Zm7.202 5.398c-.433 0-.806-.057-1.119-.17a2.165 2.165 0 0 1-.76-.451 1.894 1.894 0 0 1-.44-.615l.913-.376c.063.104.149.214.255.33.11.118.256.22.44.302.188.083.428.124.721.124.403 0 .736-.098.998-.295.263-.194.395-.504.395-.93v-1.072h-.068a2.423 2.423 0 0 1-.277.387 1.5 1.5 0 0 1-.49.37c-.208.103-.48.155-.813.155-.431 0-.82-.1-1.165-.301a2.141 2.141 0 0 1-.817-.899c-.199-.398-.298-.887-.298-1.467 0-.58.098-1.077.295-1.491.199-.414.47-.732.817-.952a2.124 2.124 0 0 1 1.175-.334c.338 0 .612.057.82.17.208.112.37.242.487.392.118.149.21.28.273.394h.078v-.885h1.04v5.576c0 .468-.108.853-.326 1.154-.218.3-.512.523-.884.667a3.41 3.41 0 0 1-1.25.217Zm-.01-3.121c.305 0 .563-.071.773-.213.213-.145.374-.35.483-.618a2.54 2.54 0 0 0 .167-.97c0-.367-.054-.69-.163-.97a1.44 1.44 0 0 0-.48-.653c-.21-.158-.47-.238-.78-.238-.32 0-.587.083-.8.249a1.5 1.5 0 0 0-.483.668c-.106.281-.16.596-.16.944 0 .358.055.671.164.941.109.27.27.48.483.632.215.152.48.228.795.228Zm6.192 1.072c-.511 0-.957-.117-1.338-.351a2.37 2.37 0 0 1-.888-.984c-.21-.421-.316-.914-.316-1.477 0-.566.105-1.061.316-1.485.21-.424.506-.753.888-.987.38-.234.827-.352 1.338-.352.512 0 .958.118 1.34.352.38.234.676.563.887.987.21.424.316.919.316 1.485 0 .563-.105 1.056-.316 1.477a2.37 2.37 0 0 1-.888.983c-.381.235-.827.352-1.339.352Zm.004-.891c.331 0 .606-.088.824-.263a1.54 1.54 0 0 0 .483-.7c.106-.29.16-.612.16-.962a2.77 2.77 0 0 0-.16-.959 1.561 1.561 0 0 0-.483-.706c-.218-.178-.493-.267-.824-.267-.334 0-.61.089-.831.267-.218.177-.38.413-.487.706a2.83 2.83 0 0 0-.156.959c0 .35.052.671.156.962.107.292.27.525.487.7.22.175.497.263.83.263Zm3.724.781V9.045h1.062V14.5h-1.062Zm.536-6.296a.675.675 0 0 1-.476-.185.6.6 0 0 1-.195-.447c0-.175.065-.325.195-.448a.668.668 0 0 1 .476-.188c.185 0 .343.063.473.188a.588.588 0 0 1 .199.448.595.595 0 0 1-.2.447.663.663 0 0 1-.472.185Zm3.016 3.057V14.5h-1.062V9.045h1.02v.888h.067a1.56 1.56 0 0 1 .59-.696c.27-.175.61-.263 1.019-.263.371 0 .697.079.976.235.28.154.496.383.65.689.154.305.23.683.23 1.133V14.5h-1.06v-3.342c0-.395-.104-.704-.31-.926-.206-.225-.489-.338-.848-.338a1.33 1.33 0 0 0-.657.16 1.15 1.15 0 0 0-.452.469c-.108.203-.163.45-.163.738Zm7.202 5.398c-.433 0-.806-.057-1.119-.17a2.165 2.165 0 0 1-.76-.451 1.894 1.894 0 0 1-.44-.615l.913-.376c.064.104.149.214.255.33.11.118.256.22.44.302.188.083.428.124.721.124.403 0 .736-.098.998-.295.263-.194.395-.504.395-.93v-1.072h-.068a2.418 2.418 0 0 1-.277.387 1.5 1.5 0 0 1-.49.37c-.208.103-.48.155-.813.155-.431 0-.82-.1-1.165-.301a2.142 2.142 0 0 1-.817-.899c-.199-.398-.298-.887-.298-1.467 0-.58.098-1.077.295-1.491.199-.414.47-.732.816-.952a2.124 2.124 0 0 1 1.176-.334c.339 0 .612.057.82.17.209.112.37.242.487.392.118.149.21.28.273.394h.078v-.885h1.04v5.576c0 .468-.108.853-.326 1.154-.218.3-.512.523-.884.667a3.41 3.41 0 0 1-1.25.217Zm-.01-3.121c.305 0 .563-.071.773-.213.213-.145.374-.35.483-.618.112-.27.167-.593.167-.97 0-.367-.054-.69-.163-.97a1.44 1.44 0 0 0-.48-.653c-.21-.158-.47-.238-.78-.238-.32 0-.587.083-.8.249a1.5 1.5 0 0 0-.483.668c-.106.281-.16.596-.16.944 0 .358.055.671.164.941.109.27.27.48.483.632.215.152.48.228.795.228Z"/>
</svg>
