<svg xmlns="http://www.w3.org/2000/svg" width="47" height="49" fill="none" viewBox="0 0 47 49">
  <rect width="46.4" height="49" fill="#fff" rx="23.2"/>
  <path fill="#764AD7" d="M27.241 15.547h-9.508a1.584 1.584 0 0 0 0 3.169h9.507a1.584 1.584 0 0 0 .001-3.17Zm0 4.753h-9.508a1.584 1.584 0 0 0 0 3.17h9.507c.875 0 1.584-.71 1.584-1.585a1.582 1.582 0 0 0-1.583-1.584Zm-3.653 4.753H17.21c-.586 0-1.062.71-1.062 1.584 0 .875.476 1.585 1.062 1.585h6.376c.587 0 1.062-.71 1.062-1.585.001-.875-.475-1.584-1.061-1.584Z"/>
  <path fill="#764AD7" d="M12.417 12.416H31.75v13.292h2.416V10H10v29h13.287v-2.417h-10.87V12.417Z"/>
  <path fill="#764AD7" d="M29.7 25.6a6.7 6.7 0 1 0 6.7 6.7 6.708 6.708 0 0 0-6.7-6.7Zm0 12.442a5.743 5.743 0 0 1 0-11.485V32.3l4.059 4.059a5.726 5.726 0 0 1-4.059 1.683Z"/>
</svg>
