<svg xmlns="http://www.w3.org/2000/svg" width="47" height="49" fill="none" viewBox="0 0 47 49">
  <rect width="46.6" height="49" fill="#fff" rx="23.3"/>
  <path fill="#DCB012" d="M27.241 15.547h-9.508a1.584 1.584 0 0 0 0 3.169h9.507a1.584 1.584 0 0 0 .001-3.17Zm0 4.753h-9.508a1.584 1.584 0 0 0 0 3.17h9.507c.875 0 1.584-.71 1.584-1.585a1.582 1.582 0 0 0-1.583-1.584Zm-3.216 4.753h-6.751c-.621 0-1.125.71-1.125 1.584 0 .875.504 1.585 1.125 1.585h6.75c.622 0 1.125-.71 1.125-1.585.002-.875-.502-1.584-1.124-1.584Z"/>
  <path fill="#DCB012" d="M12.417 12.416H31.75v13.292h2.416V10H10v29h13.287v-2.417h-10.87V12.417Z"/>
  <path fill="#DCB012" d="M30.1 26a6.507 6.507 0 0 0-6.5 6.5c0 3.584 2.915 6.5 6.5 6.5 3.584 0 6.5-2.915 6.5-6.5S33.684 26 30.1 26Zm0 10.9a4.405 4.405 0 0 1-4.4-4.4 4.405 4.405 0 0 1 4.4-4.401 4.406 4.406 0 0 1 4.401 4.4A4.407 4.407 0 0 1 30.1 36.9Z"/>
  <path fill="#DCB012" d="M31.249 32.974h-.65V31.05a1.05 1.05 0 1 0-2.099 0v2.973c0 .58.47 1.05 1.05 1.05h1.699a1.05 1.05 0 1 0 0-2.1Z"/>
</svg>
