<svg xmlns="http://www.w3.org/2000/svg" width="48" height="49" fill="none" viewBox="0 0 48 49">
  <rect width="47.785" height="49" fill="#fff" rx="23.893"/>
  <path fill="#4AD771" d="M13.168 33.768V13.17h16.637v17.3l3.17-2.618V11.584c0-.874-.71-1.584-1.584-1.584H11.584c-.875 0-1.584.71-1.584 1.585v23.767c0 .875.709 1.585 1.584 1.585H25.41l-2.24-3.169H13.169Z"/>
  <path fill="#4AD771" d="M37.537 27.036a.792.792 0 0 0-1.048-.035l-7.267 6.006-4.843-2.905a.792.792 0 0 0-1.055 1.136l5.249 7.428a.793.793 0 0 0 .64.335h.007a.79.79 0 0 0 .639-.324l7.774-10.597a.794.794 0 0 0-.096-1.044ZM26.241 15.547h-9.508a1.584 1.584 0 0 0 0 3.169h9.507a1.584 1.584 0 0 0 .001-3.17Zm0 4.752h-9.508a1.584 1.584 0 0 0 0 3.169h9.507c.875 0 1.584-.71 1.584-1.585A1.582 1.582 0 0 0 26.24 20.3Zm0 4.754h-9.508a1.584 1.584 0 0 0 0 3.169h9.507a1.584 1.584 0 0 0 .001-3.17Z"/>
</svg>
