<svg width="39" height="34" viewBox="0 0 39 34" fill="none" xmlns="http://www.w3.org/2000/svg">
<g id="Group 12073">
<path id="Vector" d="M10.8761 6.28571C10.8761 4.26541 10.8761 3.25526 11.5037 2.62762C12.1314 2 13.1415 2 15.1618 2H18.9416C20.2303 2 20.8747 2 21.3926 2.32004C21.9103 2.64007 22.1985 3.21641 22.775 4.36908L24.8047 8.42857H32.3047C34.325 8.42857 35.3351 8.42857 35.9627 9.05619C36.5904 9.68383 36.5904 10.694 36.5904 12.7143V19.1429C36.5904 21.1631 36.5904 22.1733 35.9627 22.8009C35.3351 23.4286 34.325 23.4286 32.3047 23.4286H15.1618C13.1415 23.4286 12.1314 23.4286 11.5037 22.8009C10.8761 22.1733 10.8761 21.1631 10.8761 19.1429V6.28571Z" stroke="black" stroke-width="3.3" stroke-linejoin="round"/>
<path id="Vector_2" d="M30.1618 23.4277V28.5706C30.1618 29.7708 30.1618 30.3708 29.9283 30.8292C29.7228 31.2324 29.3951 31.5601 28.9918 31.7656C28.5335 31.9992 27.9335 31.9992 26.7333 31.9992H5.73326C4.53315 31.9992 3.93309 31.9992 3.47471 31.7656C3.07151 31.5601 2.7437 31.2324 2.53824 30.8292C2.30469 30.3708 2.30469 29.7708 2.30469 28.5706V11.8563C2.30469 10.6562 2.30469 10.0561 2.53824 9.59776C2.7437 9.19456 3.07151 8.86674 3.47471 8.66128C3.93309 8.42773 4.53315 8.42773 5.73326 8.42773H10.8761" stroke="black" stroke-width="3.3" stroke-linejoin="round"/>
</g>
</svg>
