<svg width="30" height="29" viewBox="0 0 30 29" fill="none" xmlns="http://www.w3.org/2000/svg">
<g id="edit-3_svgrepo.com">
<path id="Vector" d="M26.2132 7.73395L14.6857 19.2614C13.5378 20.4093 10.1303 20.941 9.36901 20.1797C8.60776 19.4185 9.12735 16.011 10.2753 14.8631L21.8149 3.3235C22.0994 3.01303 22.4439 2.76346 22.8277 2.58983C23.2114 2.41619 23.6263 2.32206 24.0474 2.31319C24.4684 2.30433 24.8869 2.38087 25.2776 2.53821C25.6683 2.69554 26.023 2.93044 26.3204 3.22866C26.6178 3.52688 26.8517 3.88225 27.0079 4.27334C27.1642 4.66444 27.2397 5.08312 27.2297 5.50417C27.2196 5.92521 27.1243 6.3399 26.9497 6.72312C26.775 7.10635 26.5245 7.45023 26.2132 7.73395Z" stroke="white" stroke-width="2" stroke-linecap="round" stroke-linejoin="round"/>
<path id="Vector_2" d="M13.7915 4.83398H7.74984C6.46795 4.83398 5.23865 5.3432 4.33222 6.24963C3.4258 7.15606 2.9165 8.38543 2.9165 9.66732V21.7507C2.9165 23.0326 3.4258 24.2619 4.33222 25.1683C5.23865 26.0748 6.46795 26.584 7.74984 26.584H21.0415C23.7119 26.584 24.6665 24.409 24.6665 21.7507V15.709" stroke="white" stroke-width="2" stroke-linecap="round" stroke-linejoin="round"/>
</g>
</svg>
