<svg width="29" height="29" viewBox="0 0 29 29" fill="none" xmlns="http://www.w3.org/2000/svg">
<g id="Actions / Edit">
<path id="Vector" d="M4.83325 24.1668H4.08325C4.08325 24.3658 4.16227 24.5565 4.30292 24.6972C4.44358 24.8378 4.63434 24.9168 4.83326 24.9168L4.83325 24.1668ZM4.83325 19.3335L4.30292 18.8032C4.16227 18.9438 4.08325 19.1346 4.08325 19.3335H4.83325ZM17.9662 6.20055L17.4359 5.67022L17.4358 5.67022L17.9662 6.20055ZM20.7003 6.20055L20.17 6.73088L20.17 6.73088L20.7003 6.20055ZM22.7995 8.29974L23.3298 7.76941L22.7995 8.29974ZM22.7995 11.0339L22.2692 10.5036L22.2692 10.5036L22.7995 11.0339ZM9.66659 24.1668L9.66659 24.9168C9.8655 24.9168 10.0563 24.8378 10.1969 24.6971L9.66659 24.1668ZM23.607 9.29347L24.3203 9.06171L23.607 9.29347ZM23.607 10.0402L22.8937 9.8084L23.607 10.0402ZM18.9599 5.39312L18.7281 4.67983L18.9599 5.39312ZM19.7067 5.39312L19.9385 4.67983L19.7067 5.39312ZM15.0302 9.13651C14.7374 8.84361 14.2625 8.84361 13.9696 9.13651C13.6767 9.4294 13.6767 9.90427 13.9696 10.1972L15.0302 9.13651ZM18.8029 15.0305C19.0958 15.3234 19.5707 15.3234 19.8636 15.0305C20.1565 14.7376 20.1565 14.2627 19.8636 13.9698L18.8029 15.0305ZM5.58325 24.1668V19.3335H4.08325V24.1668H5.58325ZM5.36358 19.8638L18.4965 6.73088L17.4358 5.67022L4.30292 18.8032L5.36358 19.8638ZM20.17 6.73088L22.2692 8.83007L23.3298 7.76941L21.2306 5.67022L20.17 6.73088ZM22.2692 10.5036L9.13626 23.6365L10.1969 24.6971L23.3298 11.5642L22.2692 10.5036ZM9.66658 23.4168L4.83325 23.4168L4.83326 24.9168L9.66659 24.9168L9.66658 23.4168ZM22.2692 8.83007C22.5172 9.07807 22.6709 9.23262 22.7773 9.35797C22.878 9.47664 22.8916 9.51896 22.8937 9.52523L24.3203 9.06171C24.2327 8.79208 24.0818 8.57679 23.9208 8.3872C23.7655 8.20429 23.5603 7.99992 23.3298 7.76941L22.2692 8.83007ZM23.3298 11.5642C23.5604 11.3337 23.7656 11.1293 23.9208 10.9464C24.0818 10.7568 24.2327 10.5415 24.3203 10.2719L22.8937 9.8084C22.8916 9.81468 22.878 9.857 22.7773 9.97566C22.6709 10.101 22.5172 10.2555 22.2692 10.5036L23.3298 11.5642ZM22.8937 9.52523C22.9236 9.61729 22.9236 9.71635 22.8937 9.8084L24.3203 10.2719C24.4481 9.87861 24.4481 9.45502 24.3203 9.06171L22.8937 9.52523ZM18.4965 6.73088C18.7445 6.48288 18.899 6.32918 19.0244 6.22277C19.143 6.12206 19.1854 6.10846 19.1916 6.10642L18.7281 4.67983C18.4585 4.76743 18.2432 4.91829 18.0536 5.07924C17.8707 5.23451 17.6664 5.4397 17.4359 5.67022L18.4965 6.73088ZM21.2306 5.67022C21.0002 5.43974 20.7958 5.23455 20.613 5.0793C20.4234 4.91834 20.2081 4.76745 19.9385 4.67983L19.475 6.10642C19.4812 6.10845 19.5235 6.122 19.6421 6.22272C19.7674 6.32914 19.9219 6.48284 20.17 6.73088L21.2306 5.67022ZM19.1916 6.10642C19.2837 6.07651 19.3829 6.07651 19.475 6.10642L19.9385 4.67983C19.5452 4.55204 19.1214 4.55204 18.7281 4.67983L19.1916 6.10642ZM13.9696 10.1972L18.8029 15.0305L19.8636 13.9698L15.0302 9.13651L13.9696 10.1972Z" fill="white"/>
</g>
</svg>
