<svg width="28" height="30" viewBox="0 0 28 30" fill="none" xmlns="http://www.w3.org/2000/svg">
<g id="Group">
<g id="Layer_1_22_">
<g id="Group_2">
<path id="Vector" d="M3.16847 24.2682V3.66909H19.805V20.9689L22.9747 18.3508V2.08454C22.9747 1.20959 22.2657 0.5 21.3907 0.5H1.58393C0.708972 0.5 0 1.20959 0 2.08454V25.8521C0 26.727 0.708972 27.4366 1.58393 27.4366H15.4104L13.1706 24.2682H3.16847Z" fill="#4AD771"/>
<path id="Vector_2" d="M27.5371 17.5354C27.2452 17.2602 26.7966 17.2472 26.4893 17.5002L19.2219 23.5064L14.3788 20.6008C14.0573 20.4083 13.6458 20.4657 13.3897 20.7421C13.1355 21.0161 13.1077 21.4314 13.3243 21.7374L18.5728 29.1646C18.7196 29.3726 18.9584 29.4972 19.2126 29.4997C19.2151 29.4997 19.2176 29.4997 19.22 29.4997C19.4718 29.4997 19.7094 29.3806 19.8587 29.1758L27.6333 18.5794C27.8678 18.2579 27.8277 17.8106 27.5371 17.5354Z" fill="#4AD771"/>
<path id="Vector_3" d="M16.2412 6.0459H6.73334C5.85839 6.0459 5.14941 6.75549 5.14941 7.63044C5.14941 8.5054 5.85839 9.21499 6.73334 9.21499H16.2406C17.1156 9.21499 17.8239 8.5054 17.8239 7.63044C17.8239 6.75549 17.1162 6.0459 16.2412 6.0459Z" fill="#4AD771"/>
<path id="Vector_4" d="M16.2412 10.7988H6.73334C5.85839 10.7988 5.14941 11.5084 5.14941 12.3834C5.14941 13.2583 5.85839 13.9679 6.73334 13.9679H16.2406C17.1156 13.9679 17.8239 13.2589 17.8239 12.3834C17.8258 11.5084 17.1162 10.7988 16.2412 10.7988Z" fill="#4AD771"/>
<path id="Vector_5" d="M16.2412 15.5527H6.73334C5.85839 15.5527 5.14941 16.2623 5.14941 17.1373C5.14941 18.0122 5.85839 18.7218 6.73334 18.7218H16.2406C17.1156 18.7218 17.8239 18.0122 17.8239 17.1373C17.8258 16.2623 17.1162 15.5527 16.2412 15.5527Z" fill="#4AD771"/>
</g>
</g>
</g>
</svg>
