<svg width="26" height="25" viewBox="0 0 26 25" fill="none" xmlns="http://www.w3.org/2000/svg">
<path id="Star 1" d="M12.833 3.04509L14.7313 8.88729C14.999 9.71133 15.7669 10.2693 16.6334 10.2693L22.7762 10.2693L17.8065 13.8799C17.1056 14.3892 16.8123 15.292 17.08 16.116L18.2688 15.7297L17.08 16.116L18.9783 21.9582L14.0086 18.3475C13.3076 17.8382 12.3584 17.8382 11.6574 18.3475L6.68776 21.9582L8.58601 16.116C8.85376 15.292 8.56044 14.3892 7.85947 13.8799L7.12474 14.8912L7.85947 13.8799L2.88979 10.2693L9.03265 10.2693C9.8991 10.2693 10.667 9.71133 10.9348 8.88729L12.833 3.04509Z" stroke="#675A41" stroke-width="2.5"/>
</svg>
