<svg width="33" height="33" viewBox="0 0 33 33" fill="none" xmlns="http://www.w3.org/2000/svg">
<g id="Group 12071">
<path id="Vector" d="M23.75 3.93984C21.6172 2.70611 19.141 2 16.5 2C8.49187 2 2 8.49187 2 16.5C2 18.8196 2.54465 21.0118 3.51302 22.9561C3.77036 23.4728 3.85601 24.0633 3.70682 24.6209L2.84319 27.8487C2.46828 29.2499 3.75016 30.5317 5.15136 30.1568L8.37912 29.2932C8.9367 29.144 9.52726 29.2297 10.0439 29.4869C11.9881 30.4554 14.1804 31 16.5 31C24.5081 31 31 24.5081 31 16.5C31 13.859 30.2939 11.3828 29.0602 9.25" stroke="#DCD412" stroke-width="2.75" stroke-linecap="round"/>
<path id="Vector_2" d="M10.7002 16.5H10.7132M16.4871 16.5H16.5002M22.2871 16.5H22.3002" stroke="#DCD412" stroke-width="3" stroke-linecap="round" stroke-linejoin="round"/>
</g>
</svg>
