<svg width="27" height="29" viewBox="0 0 27 29" fill="none" xmlns="http://www.w3.org/2000/svg">
<g id="Group 200">
<g id="Group 198">
<g id="Group">
<g id="Layer_1_22_">
<g id="Group_2">
<path id="Vector" d="M17.2412 5.5459H7.73334C6.85839 5.5459 6.14941 6.25549 6.14941 7.13044C6.14941 8.0054 6.85839 8.71499 7.73334 8.71499H17.2406C18.1156 8.71499 18.8239 8.0054 18.8239 7.13044C18.8239 6.25549 18.1162 5.5459 17.2412 5.5459Z" fill="#E64444"/>
<path id="Vector_2" d="M17.2412 10.2988H7.73334C6.85839 10.2988 6.14941 11.0084 6.14941 11.8834C6.14941 12.7583 6.85839 13.4679 7.73334 13.4679H17.2406C18.1156 13.4679 18.8239 12.7589 18.8239 11.8834C18.8258 11.0084 18.1162 10.2988 17.2412 10.2988Z" fill="#E64444"/>
<path id="Vector_3" d="M14.0256 15.0527H7.27414C6.65285 15.0527 6.14941 15.7623 6.14941 16.6373C6.14941 17.5122 6.65285 18.2218 7.27414 18.2218H14.0251C14.6464 18.2218 15.1494 17.5122 15.1494 16.6373C15.1507 15.7623 14.6469 15.0527 14.0256 15.0527Z" fill="#E64444"/>
</g>
</g>
</g>
<path id="Vector_4" d="M2.41688 2.41655H21.7499V15.7082H24.1665V0H0V28.9996H13.2874V26.583H2.41688V2.41655Z" fill="#E64444"/>
</g>
<g id="Group 199">
<path id="Vector_5" d="M20.0993 16C16.5155 16 13.5996 18.9154 13.5996 22.4997C13.5996 26.0835 16.515 29 20.0993 29C23.6831 29 26.5996 26.0846 26.5996 22.4997C26.5996 18.9148 23.6831 16 20.0993 16ZM20.0993 26.9004C17.6727 26.9004 15.6991 24.9268 15.6991 22.4992C15.6991 20.0725 17.6727 18.0989 20.0993 18.0989C22.526 18.0989 24.5006 20.0725 24.5006 22.4992C24.4995 24.9268 22.5258 26.9004 20.0993 26.9004Z" fill="#E64444"/>
<path id="Vector_6" d="M22.0549 19.5L20.1993 21.3557L18.3436 19.5L17.1992 20.6443L19.0549 22.5001L17.1992 24.3557L18.3436 25.5L20.1993 23.6443L22.0549 25.5L23.1992 24.3557L21.3435 22.5001L23.1992 20.6443L22.0549 19.5Z" fill="#E64444"/>
</g>
</g>
</svg>
