<svg width="27" height="30" viewBox="0 0 27 30" fill="none" xmlns="http://www.w3.org/2000/svg">
<g id="Group 199">
<g id="Group 198">
<g id="Group">
<g id="Layer_1_22_">
<g id="Group_2">
<path id="Vector" d="M17.5742 6.0459H8.06635C7.19139 6.0459 6.48242 6.75549 6.48242 7.63044C6.48242 8.5054 7.19139 9.21499 8.06635 9.21499H17.5736C18.4486 9.21499 19.1569 8.5054 19.1569 7.63044C19.1569 6.75549 18.4492 6.0459 17.5742 6.0459Z" fill="#DCB012"/>
<path id="Vector_2" d="M17.5742 10.7988H8.06635C7.19139 10.7988 6.48242 11.5084 6.48242 12.3834C6.48242 13.2583 7.19139 13.9679 8.06635 13.9679H17.5736C18.4486 13.9679 19.1569 13.2589 19.1569 12.3834C19.1588 11.5084 18.4492 10.7988 17.5742 10.7988Z" fill="#DCB012"/>
<path id="Vector_3" d="M14.3586 15.5527H7.60715C6.98585 15.5527 6.48242 16.2623 6.48242 17.1373C6.48242 18.0122 6.98585 18.7218 7.60715 18.7218H14.3581C14.9794 18.7218 15.4824 18.0122 15.4824 17.1373C15.4837 16.2623 14.9799 15.5527 14.3586 15.5527Z" fill="#DCB012"/>
</g>
</g>
</g>
<path id="Vector_4" d="M2.74989 2.91655H22.0829V16.2082H24.4995V0.5H0.333008V29.4996H13.6204V27.083H2.74989V2.91655Z" fill="#DCB012"/>
</g>
<g id="Group 199_2">
<path id="Vector_5" d="M20.4323 16.5C16.8485 16.5 13.9326 19.4154 13.9326 22.9997C13.9326 26.5835 16.848 29.5 20.4323 29.5C24.0161 29.5 26.9326 26.5846 26.9326 22.9997C26.9326 19.4148 24.0161 16.5 20.4323 16.5ZM20.4323 27.4004C18.0057 27.4004 16.0321 25.4268 16.0321 22.9992C16.0321 20.5725 18.0057 18.5989 20.4323 18.5989C22.859 18.5989 24.8336 20.5725 24.8336 22.9992C24.8325 25.4268 22.8588 27.4004 20.4323 27.4004Z" fill="#DCB012"/>
<path id="Vector_6" d="M21.5819 23.4735H20.9325V21.5497C20.9325 20.9698 20.4632 20.5 19.8827 20.5C19.3028 20.5 18.833 20.9693 18.833 21.5497V24.5226C18.833 25.1025 19.3023 25.5723 19.8827 25.5723H21.5818C22.1617 25.5723 22.6315 25.1031 22.6315 24.5226C22.6315 23.9427 22.1613 23.4735 21.5819 23.4735Z" fill="#DCB012"/>
</g>
</g>
</svg>
