<svg width="28" height="30" viewBox="0 0 28 30" fill="none" xmlns="http://www.w3.org/2000/svg">
<g id="Group 201">
<g id="Group 198">
<g id="Group">
<g id="Layer_1_22_">
<g id="Group_2">
<path id="Vector" d="M17.9082 6.0459H8.40033C7.52538 6.0459 6.81641 6.75549 6.81641 7.63044C6.81641 8.5054 7.52538 9.21499 8.40033 9.21499H17.9076C18.7826 9.21499 19.4909 8.5054 19.4909 7.63044C19.4909 6.75549 18.7832 6.0459 17.9082 6.0459Z" fill="#764AD7"/>
<path id="Vector_2" d="M17.9082 10.7988H8.40033C7.52538 10.7988 6.81641 11.5084 6.81641 12.3834C6.81641 13.2583 7.52538 13.9679 8.40033 13.9679H17.9076C18.7826 13.9679 19.4909 13.2589 19.4909 12.3834C19.4928 11.5084 18.7832 10.7988 17.9082 10.7988Z" fill="#764AD7"/>
<path id="Vector_3" d="M14.255 15.5527H7.87865C7.29187 15.5527 6.81641 16.2623 6.81641 17.1373C6.81641 18.0122 7.29187 18.7218 7.87865 18.7218H14.2546C14.8414 18.7218 15.3164 18.0122 15.3164 17.1373C15.3176 16.2623 14.8418 15.5527 14.255 15.5527Z" fill="#764AD7"/>
</g>
</g>
</g>
<path id="Vector_4" d="M3.08387 2.91655H22.4169V16.2082H24.8335V0.5H0.666992V29.4996H13.9544V27.083H3.08387V2.91655Z" fill="#764AD7"/>
</g>
<path id="Vector_5" d="M20.367 16.1001C19.0419 16.1001 17.7465 16.493 16.6447 17.2293C15.5429 17.9655 14.6841 19.0119 14.177 20.2361C13.6699 21.4604 13.5372 22.8075 13.7957 24.1072C14.0543 25.4069 14.6924 26.6007 15.6294 27.5377C16.5664 28.4747 17.7602 29.1128 19.0599 29.3714C20.3596 29.6299 21.7067 29.4972 22.931 28.9901C24.1552 28.483 25.2016 27.6242 25.9378 26.5224C26.674 25.4206 27.067 24.1252 27.067 22.8001C27.065 21.0238 26.3585 19.3208 25.1024 18.0647C23.8463 16.8086 22.1433 16.1021 20.367 16.1001ZM20.367 28.543C18.8439 28.543 17.3832 27.9379 16.3062 26.8609C15.2292 25.7839 14.6241 24.3232 14.6241 22.8001C14.6241 21.277 15.2292 19.8163 16.3062 18.7393C17.3832 17.6623 18.8439 17.0572 20.367 17.0572V22.8001L24.4259 26.8591C23.8936 27.3932 23.261 27.817 22.5644 28.1059C21.8679 28.3949 21.1211 28.5434 20.367 28.543Z" fill="#764AD7"/>
</g>
</svg>
