<svg width="66" height="65" viewBox="0 0 66 65" fill="none" xmlns="http://www.w3.org/2000/svg">
<g id="flat-color-icons:automotive">
<path id="Vector" d="M9.94116 39.0508V28.2799C9.94116 25.318 12.3646 22.8945 15.3266 22.8945H34.1755C35.7912 22.8945 37.4068 23.7023 38.4839 25.0487L47.6391 36.3581" stroke="#0074E3" stroke-width="5.38542" stroke-miterlimit="10"/>
<g id="Group">
<path id="Vector_2" d="M47.6412 56.5534C51.359 56.5534 54.373 53.5395 54.373 49.8216C54.373 46.1038 51.359 43.0898 47.6412 43.0898C43.9233 43.0898 40.9094 46.1038 40.9094 49.8216C40.9094 53.5395 43.9233 56.5534 47.6412 56.5534Z" fill="#032F59"/>
<path id="Vector_3" d="M18.0203 56.5534C21.7382 56.5534 24.7521 53.5395 24.7521 49.8216C24.7521 46.1038 21.7382 43.0898 18.0203 43.0898C14.3025 43.0898 11.2886 46.1038 11.2886 49.8216C11.2886 53.5395 14.3025 56.5534 18.0203 56.5534Z" fill="#032F59"/>
</g>
<path id="Vector_4" d="M54.638 35.0117L44.9443 30.9727H9.93905C8.32342 30.9727 7.24634 32.0497 7.24634 33.6654V47.1289C7.24634 48.7445 8.32342 49.8216 9.93905 49.8216H11.2854C11.2854 46.0518 14.2474 43.0898 18.0172 43.0898C21.787 43.0898 24.7489 46.0518 24.7489 49.8216H40.9052C40.9052 46.0518 43.8672 43.0898 47.637 43.0898C51.4068 43.0898 54.3687 46.0518 54.3687 49.8216H55.7151C57.3307 49.8216 58.4078 48.7445 58.4078 47.1289V40.1279C58.4078 37.9737 56.7922 35.8195 54.638 35.0117Z" fill="#0074E3"/>
<g id="Group_2">
<path id="Vector_5" d="M32.8313 53.8594C35.062 53.8594 36.8704 52.051 36.8704 49.8203C36.8704 47.5896 35.062 45.7812 32.8313 45.7812C30.6006 45.7812 28.7922 47.5896 28.7922 49.8203C28.7922 52.051 30.6006 53.8594 32.8313 53.8594Z" fill="#044685"/>
<path id="Vector_6" d="M47.6412 52.5124C49.1283 52.5124 50.3339 51.3068 50.3339 49.8197C50.3339 48.3325 49.1283 47.127 47.6412 47.127C46.1541 47.127 44.9485 48.3325 44.9485 49.8197C44.9485 51.3068 46.1541 52.5124 47.6412 52.5124Z" fill="white"/>
<path id="Vector_7" d="M18.0203 52.5124C19.5075 52.5124 20.7131 51.3068 20.7131 49.8197C20.7131 48.3325 19.5075 47.127 18.0203 47.127C16.5332 47.127 15.3276 48.3325 15.3276 49.8197C15.3276 51.3068 16.5332 52.5124 18.0203 52.5124Z" fill="white"/>
<path id="Vector_8" d="M41.447 52.5124C41.043 51.7046 40.9084 50.7621 40.9084 49.8197C40.9084 48.8772 41.1777 47.9348 41.447 47.127H24.2136C24.6175 47.9348 24.7522 48.8772 24.7522 49.8197C24.7522 50.7621 24.4829 51.7046 24.2136 52.5124H41.447Z" fill="#044685"/>
</g>
</g>
</svg>
