<svg width="78" height="78" viewBox="0 0 78 78" fill="none" xmlns="http://www.w3.org/2000/svg">
<g id="healthicons:cleaning-outline">
<g id="Group">
<path id="Vector" fill-rule="evenodd" clip-rule="evenodd" d="M35.8879 41.3896L18.549 8.7766C18.4494 8.58926 18.3876 8.38413 18.3673 8.17293C18.347 7.96173 18.3684 7.74859 18.4305 7.54568C18.5557 7.13589 18.8387 6.79265 19.217 6.59147C19.5954 6.39029 20.0382 6.34766 20.448 6.47295C20.6509 6.53498 20.8396 6.63637 21.0033 6.77134C21.167 6.9063 21.3026 7.07219 21.4022 7.25953L38.7427 39.8725L41.2017 38.5639C41.9511 38.1654 42.7717 37.9185 43.6166 37.8373C44.4615 37.756 45.3141 37.842 46.1258 38.0903C46.9375 38.3386 47.6922 38.7444 48.3471 39.2844C49.0019 39.8244 49.5439 40.4882 49.9422 41.2377L50.9891 43.2056L62.0868 59.4507L39.0658 71.6907L31.8036 53.405L30.7583 51.4372C30.3598 50.6878 30.1128 49.8673 30.0314 49.0225C29.95 48.1777 30.0359 47.3251 30.284 46.5134C30.5322 45.7018 30.9377 44.947 31.4776 44.2921C32.0175 43.6372 32.6811 43.0951 33.4305 42.6966L35.8879 41.3896ZM34.946 45.5498L42.7171 41.4187C43.0918 41.2194 43.5021 41.0959 43.9245 41.0553C44.3469 41.0146 44.7732 41.0575 45.179 41.1816C45.5848 41.3056 45.9622 41.5084 46.2897 41.7784C46.6171 42.0483 46.8882 42.3801 47.0874 42.7548L48.1343 44.721L34.6552 51.8879L33.6098 49.9201C33.4106 49.5454 33.2871 49.1352 33.2464 48.7128C33.2057 48.2903 33.2486 47.8641 33.3727 47.4582C33.4968 47.0524 33.6996 46.675 33.9695 46.3476C34.2395 46.0201 34.5713 45.7491 34.946 45.5498ZM36.2869 55.9415L40.7347 67.1427L43.6978 65.5674L40.2 58.7576L43.0758 57.2809L46.5526 64.0504L57.3805 58.2923L50.582 48.34L36.2869 55.9415Z" fill="#0074E3"/>
<path id="Vector_2" d="M26.6756 56.9464C26.8387 56.8106 27.0269 56.7083 27.2295 56.6453C27.4321 56.5822 27.6451 56.5597 27.8564 56.5789C28.0678 56.5982 28.2732 56.6589 28.461 56.7576C28.6489 56.8563 28.8155 56.991 28.9513 57.154C29.087 57.3171 29.1894 57.5053 29.2524 57.7079C29.3155 57.9105 29.338 58.1235 29.3187 58.3348C29.2995 58.5462 29.2388 58.7516 29.1401 58.9394C29.0414 59.1273 28.9067 59.2939 28.7436 59.4297L28.742 59.4313L28.7388 59.4345L28.734 59.4377L28.7178 59.4507L28.6693 59.491L28.5029 59.6187C28.3624 59.7237 28.1636 59.8675 27.91 60.0387C27.4011 60.378 26.6659 60.8207 25.7386 61.2634C23.3278 62.42 20.6898 63.0255 18.0159 63.0357C17.5874 63.0357 17.1765 62.8655 16.8735 62.5625C16.5705 62.2595 16.4003 61.8486 16.4003 61.4201C16.4003 60.9916 16.5705 60.5807 16.8735 60.2777C17.1765 59.9747 17.5874 59.8045 18.0159 59.8045C20.2091 59.794 22.3724 59.2957 24.3491 58.3456C24.9612 58.0556 25.5519 57.7225 26.1166 57.3487C26.3026 57.2259 26.4842 57.0965 26.6611 56.961L26.6773 56.9448L26.6756 56.9464ZM31.8376 67.6112C32.1941 67.3734 32.4415 67.0037 32.5254 66.5834C32.6094 66.1632 32.5229 65.7268 32.2851 65.3703C32.0473 65.0138 31.6776 64.7664 31.2573 64.6824C30.8371 64.5985 30.4007 64.685 30.0442 64.9228L30.041 64.926L30.0087 64.9454L29.8697 65.0343C29.0286 65.5474 28.1554 66.0061 27.2557 66.4075C25.5269 67.1733 23.3458 67.8826 21.2471 67.8826C20.8187 67.8826 20.4077 68.0528 20.1047 68.3558C19.8017 68.6588 19.6315 69.0697 19.6315 69.4982C19.6315 69.9267 19.8017 70.3377 20.1047 70.6406C20.4077 70.9436 20.8187 71.1139 21.2471 71.1139C23.9969 71.1139 26.6595 70.2075 28.5675 69.3593C29.604 68.8977 30.6094 68.3693 31.5774 67.7776C31.6392 67.7393 31.7005 67.7005 31.7616 67.6613L31.8133 67.6273L31.8295 67.6176L31.8376 67.6112Z" fill="#0074E3"/>
</g>
</g>
</svg>
