<?xml version="1.0" encoding="UTF-8"?>
<svg version="1.1" viewBox="0 0 2048 1157" width="1280" height="1280" xmlns="http://www.w3.org/2000/svg">
<path transform="translate(1756,337)" d="m0 0h24l18 3 19 6 16 8 12 8 11 9 10 10 10 13 9 16 6 15 5 21 1 8v20l-3 19-5 16-8 18-8 12-8 10-14 14-14 10-16 8-15 6-18 4-6 1h-27l-18-3-16-5-17-8-15-10-13-12-7-7-9-12-9-15-7-19-4-18-1-7v-22l3-18 5-17 8-17 8-12 11-13 10-10 17-12 15-8 18-6 14-3z" fill="#0373E2"/>
<path transform="translate(1202,562)" d="m0 0h30l20 3 20 6 16 7 15 9 14 12 8 8 11 15 9 16 8 21 5 21 2 19v31l-3 21-5 19-6 16-9 17-9 12-11 12-10 9-16 10-15 7-18 6-21 4-9 1h-21l-22-3-18-5-21-9-18-12-15-14-10-12-11-18-9-23-6-27-1-14v-28l2-20 5-21 7-19 9-17 10-13 9-10 9-8 13-9 15-8 24-8 15-3zm7 62-16 4-15 8-10 10-7 11-5 12-4 16-2 12v32l3 18 5 16 6 12 7 9h2v2l10 7 13 6 17 3h11l12-2 13-5 10-6 10-10 7-11 6-16 3-13 1-8v-35l-3-18-5-15-6-11-11-12-13-9-13-5-9-2z" fill="#FA9742"/>
<path transform="translate(985,577)" d="m0 0h80l1 302-1 1h-79l3-30v-7l-8 16-7 8-9 6-10 5-15 4-6 1h-15l-18-3-21-9-21-18-10-15-6-12-8-26-2-18v-32l2-20 10-30 9-15 6-8 8-8 12-9 15-7 16-4 7-1h19l16 4 12 6 9 7 7 8 8 18-2-12-1-71-1-5zm-35 134-10 2-8 4-5 4-7 11-4 12-2 15v13l2 15 5 14 8 11 10 6 8 2 13-1 10-5 7-8 6-12 4-18v-20l-4-20-7-13-8-7-11-4z" fill="#0373E2"/>
<path transform="translate(1534,636)" d="m0 0 17 1 15 4 16 8 9 7 12 12 7 11 6 12 6 19 3 17 1 13v20l-3 24-5 19-7 16-7 11-9 10-10 9-15 8-17 5-7 1h-21l-16-4-13-7-10-9-6-7-6-9v-2h-2l1 2v115l-49 1h-20l-3-1v-301l1-2h69l1 1 1 36h2l2-6 7-10 8-9 14-9 16-5zm-24 55-11 2-10 6-7 7-5 9-3 7-3 16v24l4 18 6 12 8 9 12 6 4 1h14l11-4 8-6 8-11 5-15 2-13v-20l-3-16-5-13-7-9-8-6-8-3z" fill="#FA9742"/>
<path transform="translate(124,577)" d="m0 0h210l1 1v65l-1 1h-130v52l13-1h104l1 1v66h-118v118h-81v-302z" fill="#0373E2"/>
<path transform="translate(578,648)" d="m0 0h17l20 3 17 5 19 10 14 12 8 9 9 13 7 15 5 19 2 15 1 12v26h-149l4 15 6 10 7 6 9 4 4 1h19l10-3 8-6 6-8 2-4h14l59 2 1 2-7 22-8 14-8 10-11 10-10 6-14 7-21 6-21 3h-18l-24-3-27-9-8-5-14-10-5-4-12-16-7-11-10-30-2-22v-14l2-22 4-13 7-19 10-15 9-12 12-9 11-8 25-10 11-2zm-1 60-10 4-9 6-6 9-3 6v4h73l-3-10-6-9-7-6-11-4z" fill="#0373E2"/>
<path transform="translate(1506,190)" d="m0 0h20l16 3 15 5 13 7 12 9 10 9 8 10 9 15 6 16 3 14 1 14-1 15-4 17-8 18-8 12-12 13-11 9-14 8-12 5-16 4-7 1h-24l-21-5-21-10-13-10-11-11-8-11-8-15-5-15-2-9-1-10v-12l3-19 5-15 8-15 11-14 8-8 15-11 19-9 17-4z" fill="#0373E2"/>
<path transform="translate(1737,637)" d="m0 0h42l16 3 19 7 16 9 10 9 8 11 6 13 3 12v5l-2 1-25 1h-38l-6-12-7-6-10-4-4-1h-14l-11 3-7 4-3 6v8l4 7 10 5 18 4 47 9 15 5 16 9 10 8 7 10 4 9 2 12-1 17-4 13-6 11-9 10-7 7-13 8-14 6-19 5-14 2h-34l-20-3-15-4-18-8-13-10-7-7-7-11-5-10-3-9-1-9 10-1 35-1h25l6 12 6 5 11 5 5 1h17l11-3 8-5 3-6v-6l-4-6-11-6-29-6-36-7-15-6-12-7-10-9-7-9-5-12-2-8v-21l3-12 6-12 9-10 7-7 14-8 13-5 19-4z" fill="#FA9742"/>
<path transform="translate(1227,127)" d="m0 0h18l16 3 13 5 14 8 14 12 11 14 8 16 4 15 1 6v21l-4 18-8 17-8 11-14 14-11 7-13 6-13 4-15 2h-9l-16-2-17-6-14-8-10-8-7-7-8-11-8-16-5-19-1-13 2-18 6-18 8-14 7-9 10-10 15-10 14-6 12-3z" fill="#0373E2"/>
<path transform="translate(725,577)" d="m0 0h78l1 1v302h-79l-1-1v-301z" fill="#0373E2"/>
<path transform="translate(958,127)" d="m0 0h18l17 4 16 8 9 7 10 10 8 12 5 12 3 13v21l-4 16-7 14-7 9-7 8-13 9-13 6-11 3-6 1h-20l-16-4-16-8-13-11-8-9-7-12-5-15-2-14 1-16 4-15 8-15 12-14 10-8 16-8 11-3z" fill="#0373E2"/>
<path transform="translate(362,651)" d="m0 0h80v229h-79l-1-1z" fill="#0373E2"/>
<path transform="translate(748,184)" d="m0 0h21l16 4 13 7 9 7 7 7 9 14 5 14 2 11v12l-3 15-5 12-7 10-9 10-10 7-10 5-13 4-7 1h-17l-16-4-15-8-12-11-8-10-6-12-4-16v-18l4-16 6-12 10-13 13-10 14-7z" fill="#0373E2"/>
<path transform="translate(578,648)" d="m0 0h17l20 3 17 5 19 10 14 12 8 9 9 13 7 15 5 19 2 15 1 12v26h-149l4 15 6 10 7 6 9 4 4 1h19l10-3 8-6 6-8 2-4h14l59 2 1 2-7 22-8 14-8 10-11 10-10 6-14 7-21 6-21 3h-18l-24-3-27-9-8-5-14-10-5-4-12-16-7-11-10-30-2-22v-14l2-22 4-13 7-19 10-15 9-12 12-9 11-8 25-10 11-2zm-4 10-16 2-21 7-10 6v2l-4 2-4 4v2l-4 2-13 13-7 14v3l-3 1-6 12-3 8-3 25-1 14 3 21 6 18 5 11 6 10 9 10 5 5 8 6 11 7 12 5 17 4 22 3h15l21-3 16-5 16-8 9-6 10-9 6-8v-4h2l5-11v-8l-5-1h-47l-3 1-4 6-5 5-1 3-7 2-7 3h-27l-12-3-6-3h-2v-2l-5-5-6-9-6-16-2-4-6-1-18-1h-11l-8-2-1-2-1-29-1-18 4-2 14 2h28l3-5 8-16 10-9 10-5 12-3h16l13 5 7 6h2v2h2l2 4 7 12 2 6v11l-3 2h-13l-17-1h-28l-14 1-5 2-1 5v3l-1 12 3 6 2 2 9 1 51 1h69l2-1 1-4v-13l-4-26-4-17-3-9-7-12-6-8-5-4-5-5-14-10-10-5-9-3-15-2-1-1-17-1zm3 50-10 4-9 6-6 9-3 6v4h73l-3-10-6-9-7-6-11-4z" fill="#0A90F7"/>
<path transform="translate(579,280)" d="m0 0 15 1 14 4 12 7 10 9 8 10 6 13 3 14v13l-4 16-6 12-9 11-12 9-11 5-10 3-7 1h-12l-15-3-14-7-10-8-8-9-8-16-3-11v-19l3-12 7-14 9-11 10-8 12-6 11-3z" fill="#0373E2"/>
<path transform="translate(124,577)" d="m0 0h210l1 1v65l-1 1h-130v52l13-1h104l1 1v66h-118v118h-81v-302zm27 9-6 1h-11l-1 1v283l10 1h52l1-118 115-1 2-2v-24l-1-22-23-1h-20l-35-1h-38v-68h59l70-1v-48z" fill="#0A90F7"/>
<path transform="translate(459,408)" d="m0 0 17 2 12 5 10 7 9 9 8 14 3 11 1 13-3 15-7 14-6 8-10 8-12 6-13 3h-17l-11-3-12-6-10-9-7-8-5-10-3-9-1-6v-11l3-14 6-12 7-9 9-8 14-7 8-2z" fill="#0373E2"/>
<path transform="translate(985,577)" d="m0 0h80l1 302-1 1h-79l3-30v-7l-8 16-7 8-9 6-10 5-15 4-6 1h-15l-18-3-21-9-21-18-10-15-6-12-8-26-2-18v-32l2-20 10-30 9-15 6-8 8-8 12-9 15-7 16-4 7-1h19l16 4 12 6 9 7 7 8 8 18-2-12-1-71-1-5zm24 9-12 2-2 4-2 28-2 44v30l-7-3-1-2h-2l-2-4-10-11-5-4-11-7-9-2-6-2-15-2-20 3-14 7-6 5v2h-4l-2 6h-2l-5 7-7 5v2h-2l-4 5-5 13-4 10-4 17-3 30 2 20 3 17 5 15 8 15 13 16 11 10 9 4 15 5 20 3 14-1 9-3 10-5 7-6v-2h3v-2l4-2 8-8 5-3v-2h4l1 2 1 12 2 7 1 7 3 3 6 1h49l2-4v-241l-1-41z" fill="#098FF6"/>
<path transform="translate(725,577)" d="m0 0h78l1 1v302h-79l-1-1v-301zm39 9-16 1-7 2v2l-3 1-3 5-1 15-1 129v129l2 2h59l1-1v-284l-4-1z" fill="#0A90F7"/>
<path transform="translate(362,651)" d="m0 0h80v229h-79l-1-1zm16 9-6 1-1 101v108l1 1 7 1h53l1-5v-115l-1-92z" fill="#0A90F7"/>
<path transform="translate(402,558)" d="m0 0 12 2 9 4 8 6 7 8 4 10 1 11-3 13-8 10-6 5-7 4-13 3-13-1-11-4-10-7-8-12-2-7v-13l3-10 8-10 10-7 7-3z" fill="#0373E2"/>
<path transform="translate(946,703)" d="m0 0h15l11 3 8 8 8 11 5 11 3 13 1 13-2 25-2 11-8 14-9 9h-2v2l-8 4-9 3-16-1-10-4-6-4-7-7-8-16-2-3-3-17v-20l4-23 6-12 6-8 8-6 8-4zm4 8-10 2-8 4-5 4-7 11-4 12-2 15v13l2 15 5 14 8 11 10 6 8 2 13-1 10-5 7-8 6-12 4-18v-20l-4-20-7-13-8-7-11-4z" fill="#0A90F7"/>
<path transform="translate(402,558)" d="m0 0 12 2 9 4 8 6 7 8 4 10 1 11-3 13-8 10-6 5-7 4-13 3-13-1-11-4-10-7-8-12-2-7v-13l3-10 8-10 10-7 7-3zm-8 11-4 2v2l-6 2-4 2-6 9-1 4v14l7 10h2v2l10 6 9 2 8-1 9-2 6-4 6-7 3-8v-9l-3-9-5-7-9-6-8-2z" fill="#0A90F7"/>
<path transform="translate(517,746)" d="m0 0 13 1 6 3 3 5v13l-1 9-4 1h-22l-2-1v-2l-4-2-2-5 1-11 3-8h4v-2z" fill="#0373E2"/>
</svg>
