<svg width="214" height="99" viewBox="0 0 214 99" fill="none" xmlns="http://www.w3.org/2000/svg">
<path d="M40.0883 47.7643C36.2334 47.7643 33.1083 44.6695 33.1083 40.8519C33.1083 37.0342 36.2334 33.9395 40.0883 33.9395C43.9433 33.9395 47.0684 37.0342 47.0684 40.8519C47.0684 44.6695 43.9433 47.7643 40.0883 47.7643Z" fill="white"/>
<path d="M54.7955 33.8535C50.5115 33.8535 47.0387 30.4143 47.0387 26.1719C47.0387 21.9294 50.5115 18.4902 54.7955 18.4902C59.0794 18.4902 62.5522 21.9294 62.5522 26.1719C62.5522 30.4143 59.0794 33.8535 54.7955 33.8535Z" fill="white"/>
<path d="M76.0885 23.7397C71.3755 23.7397 67.5549 19.9561 67.5549 15.2888C67.5549 10.6215 71.3755 6.83789 76.0885 6.83789C80.8014 6.83789 84.6221 10.6215 84.6221 15.2888C84.6221 19.9561 80.8014 23.7397 76.0885 23.7397Z" fill="white"/>
<path d="M101.181 18.4403C96.0389 18.4403 91.8705 14.3123 91.8705 9.22014C91.8705 4.128 96.0389 0 101.181 0C106.323 0 110.491 4.128 110.491 9.22014C110.491 14.3123 106.323 18.4403 101.181 18.4403Z" fill="white"/>
<path d="M133.636 21.5173C127.636 21.5173 122.772 16.7005 122.772 10.7586C122.772 4.81681 127.636 0 133.636 0C139.636 0 144.5 4.81681 144.5 10.7586C144.5 16.7005 139.636 21.5173 133.636 21.5173Z" fill="white"/>
<path d="M167.356 32.1919C160.499 32.1919 154.939 26.6863 154.939 19.8948C154.939 13.1033 160.499 7.59766 167.356 7.59766C174.214 7.59766 179.774 13.1033 179.774 19.8948C179.774 26.6863 174.214 32.1919 167.356 32.1919Z" fill="white"/>
<path d="M197.818 56.0764C189.244 56.0764 182.294 49.1931 182.294 40.7023C182.294 32.2114 189.244 25.3281 197.818 25.3281C206.392 25.3281 213.343 32.2114 213.343 40.7023C213.343 49.1931 206.392 56.0764 197.818 56.0764Z" fill="white"/>
<path d="M0 90.2786V54.8281H24.441V61.7839H8.65392V69.0538H22.8765V76.0312H8.65392V90.2786H0ZM28.7953 90.2786V63.6907H37.3508V90.2786H28.7953ZM33.084 60.5921C31.9354 60.6161 30.8234 60.192 29.9879 59.4111C29.5768 59.0527 29.2487 58.6106 29.0259 58.1151C28.8031 57.6196 28.6909 57.0823 28.6969 56.54C28.6976 56.0097 28.8132 55.4857 29.0359 55.0035C29.2586 54.5213 29.5832 54.092 29.9879 53.7447C30.8296 52.971 31.9356 52.541 33.084 52.541C34.2324 52.541 35.3384 52.971 36.1802 53.7447C36.5887 54.0982 36.9155 54.5347 37.1383 55.0246C37.361 55.5144 37.4746 56.0461 37.4711 56.5833C37.4743 57.1252 37.3608 57.6616 37.1382 58.1567C36.9156 58.6518 36.589 59.0942 36.1802 59.4544C35.3377 60.2195 34.2265 60.6278 33.084 60.5921ZM55.3369 90.7878C52.8142 90.8514 50.316 90.285 48.0725 89.1409C46.0709 88.0604 44.4376 86.4165 43.379 84.4171C42.2478 82.1418 41.6921 79.6282 41.7598 77.093C41.699 74.5941 42.2628 72.1191 43.4009 69.8881C44.4407 67.8747 46.0483 66.2036 48.0287 65.0775C50.1768 63.8821 52.611 63.2832 55.0744 63.344C56.8638 63.3228 58.6425 63.6201 60.3258 64.2216C61.8708 64.7875 63.2713 65.6826 64.4285 66.8436C65.6222 68.0501 66.5433 69.4941 67.1308 71.0799C67.7954 72.9439 68.1177 74.9106 68.0826 76.8871V79.054H44.7465V74.1135H60.1288C60.1363 73.2688 59.9133 72.4378 59.4834 71.7083C59.0733 71.0106 58.4746 70.4402 57.7548 70.0614C56.9774 69.6415 56.1018 69.4323 55.2166 69.4547C54.3214 69.442 53.4386 69.6624 52.6565 70.0939C51.9043 70.4891 51.2761 71.0812 50.8404 71.8058C50.3862 72.5436 50.1441 73.3902 50.1402 74.2544V79.2491C50.1196 80.2401 50.3411 81.2213 50.7857 82.1094C51.2021 82.9001 51.8404 83.5547 52.6237 83.9946C53.4898 84.4683 54.4682 84.704 55.4573 84.6771C56.1556 84.6844 56.8504 84.5783 57.5141 84.3629C58.1057 84.17 58.6499 83.8562 59.1114 83.442C59.5573 83.0323 59.8985 82.5236 60.107 81.9577L67.9513 82.1744C67.6461 83.8609 66.8906 85.4359 65.7632 86.7357C64.575 88.0737 63.0719 89.1008 61.387 89.726C59.4546 90.4495 57.4027 90.8096 55.3369 90.7878ZM81.0033 54.8281V90.2786H72.4588V54.8281H81.0033ZM96.2543 90.6578C94.3423 90.6826 92.4643 90.1555 90.8497 89.1409C89.133 88.0182 87.7775 86.4314 86.944 84.5688C85.9073 82.1761 85.4143 79.5869 85.4998 76.9846C85.3986 74.3302 85.9113 71.6879 86.9987 69.2597C87.8488 67.4206 89.2163 65.8633 90.9372 64.7742C92.5229 63.8196 94.3439 63.3172 96.1996 63.3224C97.4435 63.2856 98.6791 63.534 99.81 64.0483C100.759 64.4788 101.605 65.1027 102.293 65.8793C102.913 66.5755 103.415 67.3656 103.781 68.2195H103.956V54.8281H112.512V90.2786H104.044V85.9448H103.781C103.403 86.7923 102.885 87.572 102.25 88.2525C101.543 88.9942 100.691 89.5842 99.7443 89.986C98.6403 90.4461 97.452 90.6748 96.2543 90.6578ZM99.2192 84.0812C100.18 84.1053 101.119 83.799 101.878 83.2145C102.659 82.5542 103.245 81.6968 103.574 80.7334C104.376 78.2974 104.376 75.6719 103.574 73.2359C103.262 72.2823 102.672 71.4415 101.878 70.8198C101.118 70.2384 100.179 69.9359 99.2192 69.9639C98.2481 69.9377 97.2976 70.2438 96.5278 70.8307C95.7564 71.4685 95.1772 72.3044 94.8539 73.2467C94.4587 74.4494 94.27 75.7093 94.296 76.9738C94.2665 78.2438 94.4628 79.509 94.8758 80.7117C95.1894 81.6717 95.7604 82.5292 96.5278 83.1928C97.2947 83.7874 98.2455 84.1013 99.2192 84.0812Z" fill="white"/>
<path d="M148.584 70.6424C148.687 74.0881 147.904 77.5032 146.308 80.5667C144.898 83.1692 142.759 85.3135 140.149 86.7424C137.473 88.1337 134.495 88.8606 131.473 88.8606C128.45 88.8606 125.473 88.1337 122.797 86.7424C120.182 85.3026 118.037 83.1523 116.616 80.5451C115.05 77.4814 114.297 74.0736 114.428 70.6424C114.297 67.2042 115.05 63.7894 116.616 60.718C118.018 58.117 120.15 55.9726 122.753 54.5423C125.431 53.1546 128.407 52.4297 131.429 52.4297C134.451 52.4297 137.428 53.1546 140.105 54.5423C142.715 55.9712 144.854 58.1155 146.264 60.718C147.876 63.7775 148.674 67.1929 148.584 70.6424ZM139.733 70.6424C139.79 68.6465 139.452 66.6588 138.737 64.7917C138.286 63.7288 137.605 62.7763 136.744 62.0005C135.882 61.2247 134.86 60.6443 133.749 60.2998C132.637 59.9553 131.463 59.855 130.309 60.0058C129.154 60.1566 128.047 60.5549 127.064 61.173C125.759 62.0782 124.763 63.3555 124.208 64.8351C122.91 68.6296 122.91 72.7418 124.208 76.5363C124.773 77.9983 125.768 79.2589 127.064 80.155C128.394 80.9625 129.924 81.3899 131.484 81.3899C133.044 81.3899 134.574 80.9625 135.904 80.155C137.196 79.2606 138.184 77.9988 138.737 76.5363C139.458 74.6557 139.796 72.6527 139.733 70.6424ZM153.638 98.3461V61.7798H162.095V66.3302H162.358C162.733 65.4808 163.234 64.692 163.846 63.99C164.534 63.2134 165.381 62.5895 166.329 62.159C167.468 61.6459 168.711 61.3976 169.961 61.4331C171.807 61.4282 173.617 61.9308 175.191 62.8849C176.918 63.97 178.29 65.5282 179.141 67.3703C180.228 69.7986 180.741 72.4409 180.639 75.0953C180.725 77.6976 180.232 80.2867 179.195 82.6795C178.375 84.5435 177.025 86.1318 175.311 87.2516C173.697 88.2662 171.819 88.7933 169.907 88.7685C168.703 88.7954 167.507 88.574 166.395 88.1184C165.455 87.7119 164.606 87.1224 163.9 86.3849C163.258 85.7075 162.737 84.9272 162.358 84.0771H162.183V98.3678L153.638 98.3461ZM162.008 75.0737C161.977 76.342 162.165 77.6063 162.566 78.8116C162.895 79.775 163.48 80.6324 164.261 81.2927C165.038 81.8552 165.975 82.1585 166.936 82.1585C167.898 82.1585 168.835 81.8552 169.611 81.2927C170.405 80.6414 170.997 79.7813 171.318 78.8116C172.094 76.3788 172.094 73.7685 171.318 71.3358C171.012 70.3843 170.439 69.5387 169.666 68.898C168.889 68.3386 167.952 68.0374 166.991 68.0374C166.03 68.0374 165.094 68.3386 164.316 68.898C163.508 69.5272 162.901 70.3735 162.566 71.3358C162.165 72.541 161.977 73.8053 162.008 75.0737ZM208.57 69.8948L200.715 70.1006C200.644 69.5603 200.416 69.0521 200.059 68.638C199.683 68.1651 199.194 67.7926 198.636 67.5545C198.007 67.2921 197.328 67.1629 196.645 67.1753C195.762 67.1493 194.888 67.3509 194.107 67.7604C193.803 67.9049 193.546 68.1326 193.368 68.4167C193.189 68.7008 193.097 69.0294 193.101 69.3639C193.097 69.6197 193.15 69.8732 193.258 70.1057C193.366 70.3382 193.525 70.5438 193.724 70.7074C194.428 71.1937 195.238 71.5092 196.087 71.6283L201.262 72.5926C203.449 72.884 205.514 73.7605 207.236 75.1278C207.893 75.7142 208.414 76.4362 208.759 77.2429C209.105 78.0496 209.269 78.9216 209.238 79.7975C209.252 81.5266 208.669 83.2086 207.586 84.5647C206.429 85.9725 204.92 87.0558 203.21 87.7067C201.166 88.4719 198.993 88.8398 196.809 88.7901C192.969 88.7901 189.95 88.01 187.729 86.4499C186.677 85.7314 185.795 84.7957 185.143 83.7071C184.491 82.6185 184.086 81.403 183.954 80.1442L192.4 79.9384C192.479 80.3793 192.649 80.7994 192.899 81.1723C193.15 81.5452 193.475 81.8628 193.855 82.1053C194.753 82.6453 195.793 82.9092 196.842 82.8637C197.771 82.902 198.693 82.6924 199.512 82.2569C199.827 82.1147 200.097 81.8883 200.29 81.6033C200.483 81.3182 200.592 80.9856 200.606 80.6426C200.578 80.3771 200.487 80.1218 200.341 79.8977C200.195 79.6736 199.997 79.4871 199.763 79.3533C199.012 78.8995 198.174 78.6045 197.302 78.4865L192.608 77.5981C190.39 77.3244 188.307 76.3914 186.635 74.922C185.978 74.2614 185.466 73.4743 185.129 72.6096C184.792 71.7449 184.638 70.8208 184.676 69.8948C184.616 68.2605 185.122 66.655 186.11 65.3443C187.172 64.0023 188.605 62.9938 190.234 62.4407C192.259 61.7286 194.398 61.3871 196.547 61.4331C199.57 61.2973 202.56 62.1086 205.091 63.7516C206.101 64.4504 206.938 65.3657 207.54 66.4293C208.142 67.493 208.495 68.6776 208.57 69.8948Z" fill="#FF973F"/>
</svg>
