<svg width="196" height="54" viewBox="0 0 196 54" fill="none" xmlns="http://www.w3.org/2000/svg">
<g id="Group 191">
<g id="Group">
<path id="Vector" d="M47.8188 53.3566H5.06913C2.28111 53.3566 0 51.0755 0 48.2875V5.53787C0 2.74985 2.28111 0.46875 5.06913 0.46875H47.8188C50.6068 0.46875 52.8879 2.74985 52.8879 5.53787V48.2875C52.8879 51.0755 50.6068 53.3566 47.8188 53.3566Z" fill="black"/>
<g id="Group_2">
<g id="Group_3">
<path id="Vector_2" d="M2.99902 49.5986L4.60424 47.6977C9.33542 42.0371 14.1934 36.2076 18.5866 28.6462C18.3331 28.4772 18.0374 28.266 17.6995 28.0548C17.1081 27.6324 16.4744 27.2522 16.0943 26.9987L15.3339 26.5763L16.0943 26.1539C16.6434 25.8582 17.1081 25.478 17.5728 25.0978C17.8685 24.8444 18.2064 24.5909 18.5443 24.3797C15.9253 19.7752 12.2502 15.551 8.95526 11.7914C7.22331 9.80595 5.61808 7.94726 4.22407 6.17307L3.04128 4.65234L5.02667 5.41271C6.46292 5.96186 8.06816 6.51102 9.71562 7.10242C15.2917 9.08782 21.5858 11.3267 26.2325 13.9457C28.049 14.9596 29.8231 16.0579 31.5129 17.1562C32.4422 17.7476 33.4138 18.3812 34.3431 19.0149C37.6803 21.296 45.7064 25.7737 46.5513 26.1961L47.4806 26.6608L46.5513 27.1255C46.1711 27.2944 45.8331 27.5056 45.4529 27.6746C44.6081 28.1393 43.7632 28.5617 42.9184 29.0264C39.9192 30.6738 37.0044 32.448 34.3431 34.2645C33.4138 34.8981 32.4844 35.5318 31.5129 36.1232C29.9076 37.137 28.5136 38.0241 27.1619 38.7844C20.3608 42.7553 12.8838 46.1769 4.98444 48.9227L2.99902 49.5986ZM45.0305 26.5763C42.5804 25.2245 36.2863 21.6339 33.5405 19.7752C32.6112 19.1416 31.6818 18.5502 30.7525 17.9588C29.0628 16.8605 27.2886 15.8044 25.5144 14.7906C20.9944 12.2138 14.7425 10.0172 9.25094 8.07399C8.3216 7.73605 7.43451 7.44036 6.58965 7.10242C7.64572 8.41194 8.82852 9.76371 10.0536 11.1577C13.433 15.044 17.2771 19.4795 19.9806 24.2952L20.1918 24.6754L19.7694 24.9288C19.3047 25.2245 18.9245 25.5202 18.5021 25.8582C18.2064 26.1116 17.8685 26.3229 17.5305 26.5763C17.8262 26.7875 18.1642 26.9987 18.5021 27.2522C18.9668 27.5901 19.4315 27.8858 19.7272 28.097L20.1496 28.3505L19.9384 28.7307C15.7563 36.0387 11.1519 41.6992 6.63191 47.1485C13.6864 44.5717 20.3186 41.4457 26.486 37.8973C27.7955 37.137 29.1895 36.2921 30.7525 35.2783C31.6818 34.6869 32.6112 34.0955 33.5405 33.4619C36.244 31.6032 39.1588 29.829 42.2003 28.1393C43.0451 27.6746 43.9322 27.2099 44.7771 26.7453C44.9038 26.6608 44.946 26.6185 45.0305 26.5763Z" fill="#58595B"/>
</g>
<g id="Group_4">
<path id="Vector_3" d="M49.9308 4.60938L48.3256 6.5103C43.5944 12.1708 38.7365 18.0003 34.3432 25.5618C34.5967 25.7307 34.8924 25.9419 35.2303 26.1532C35.8217 26.5756 36.4554 26.9558 36.8356 27.2092L37.5959 27.6317L36.8356 28.0541C36.2864 28.3498 35.8218 28.73 35.3571 29.1101C35.0614 29.3636 34.7234 29.6171 34.3855 29.8283C37.0045 34.4327 40.6796 38.657 43.9746 42.4166C45.7065 44.402 47.3118 46.2607 48.7058 48.0349L49.8886 49.5556L47.9031 48.7952C46.4669 48.2461 44.8617 47.6969 43.2142 47.1055C37.6382 45.1201 31.344 42.8813 26.6973 40.2622C24.8809 39.2484 23.1067 38.1501 21.417 37.0518C20.4876 36.4604 19.5161 35.8267 18.5867 35.1931C15.2495 32.912 7.22342 28.4343 6.37856 28.0118L5.44922 27.5472L6.37856 27.0825C6.75875 26.9135 7.09671 26.7023 7.47689 26.5333C8.32174 26.0687 9.1666 25.6462 10.0115 25.1816C13.0107 23.5341 15.9254 21.7599 18.5867 19.9435C19.5161 19.3098 20.4454 18.6762 21.417 18.0848C23.0222 17.071 24.4162 16.1839 25.768 15.4235C32.5691 11.4527 40.046 8.03104 47.9454 5.28526L49.9308 4.60938ZM7.89932 27.6317C10.3494 28.9834 16.6435 32.5741 19.3893 34.4327C20.3187 35.0664 21.248 35.6578 22.1773 36.2492C23.8671 37.3475 25.6412 38.4035 27.4154 39.4174C31.9354 41.9942 38.1873 44.1908 43.6789 46.134C44.6082 46.4719 45.4953 46.7676 46.3402 47.1055C45.2841 45.796 44.1013 44.4442 42.8763 43.0502C39.4969 39.1639 35.6528 34.7284 32.9492 29.9128L32.738 29.5326L33.1605 29.2791C33.6251 28.9834 34.0053 28.6877 34.4277 28.3498C34.7234 28.0963 35.0614 27.8851 35.3993 27.6317C35.1036 27.4204 34.7657 27.2092 34.4277 26.9558C33.9631 26.6178 33.4984 26.3221 33.2027 26.1109L32.7803 25.8575L32.9915 25.4773C37.1735 18.1693 41.778 12.5088 46.2979 7.05945C39.2434 9.63625 32.6113 12.7622 26.4439 16.3106C25.1343 17.071 23.7403 17.9158 22.1773 18.9297C21.248 19.521 20.3187 20.1124 19.3893 20.7461C16.6858 22.6048 13.771 24.379 10.7296 26.0687C9.8847 26.5333 8.99762 26.998 8.15276 27.4627C8.06828 27.5472 7.9838 27.5894 7.89932 27.6317Z" fill="#58595B"/>
</g>
</g>
<path id="Vector_4" d="M22.0508 14.1142C23.7305 14.1142 25.0922 12.7525 25.0922 11.0727C25.0922 9.39296 23.7305 8.03125 22.0508 8.03125C20.371 8.03125 19.0093 9.39296 19.0093 11.0727C19.0093 12.7525 20.371 14.1142 22.0508 14.1142Z" fill="white"/>
<path id="Vector_5" d="M32.0625 48.2451C33.7422 48.2451 35.1039 46.8834 35.1039 45.2036C35.1039 43.5238 33.7422 42.1621 32.0625 42.1621C30.3827 42.1621 29.021 43.5238 29.021 45.2036C29.021 46.8834 30.3827 48.2451 32.0625 48.2451Z" fill="white"/>
<path id="Vector_6" d="M33.4561 45.8786L30.4991 45.7941V45.2027C30.6259 41.95 30.8793 35.2334 26.3171 29.8686C19.7695 22.1382 20.6988 11.324 20.7411 10.8594L23.698 11.1128C23.698 11.1973 22.8532 21.1666 28.5982 27.9254C33.8786 34.1773 33.5829 41.95 33.4561 45.2872V45.8786Z" fill="white"/>
<g id="Group_5">
<g id="Group_6">
<path id="Vector_7" d="M32.3157 42.7545C32.3157 42.7545 32.3157 42.5855 32.2734 42.332" stroke="#58595B" stroke-width="0.422427" stroke-miterlimit="10"/>
<path id="Vector_8" d="M32.2312 41.4457C31.9777 38.4042 30.9639 30.885 27.5 28.3504C23.6137 25.4779 22.5576 17.9165 22.4731 14.875" stroke="#58595B" stroke-width="0.422427" stroke-miterlimit="10" stroke-dasharray="0.87 0.87"/>
<path id="Vector_9" d="M22.4731 14.4517C22.4731 14.2828 22.4731 14.156 22.4731 14.0293" stroke="#58595B" stroke-width="0.422427" stroke-miterlimit="10"/>
</g>
</g>
<g id="Group_7">
<path id="Vector_10" d="M21.6705 10.0156H20.9102V10.2691H21.6705V10.0156Z" fill="black"/>
<path id="Vector_11" d="M23.0641 10.8185L22.8952 10.1426C22.8952 10.1004 22.9374 10.0581 22.9796 10.0581H23.3598V9.80469H22.9374C22.7684 9.80469 22.6417 9.97367 22.684 10.1426L22.7262 10.3116H21.5012H21.2477L21.121 10.8185H21.0787C20.6563 10.8185 20.3184 11.1565 20.3184 11.5789C20.3184 12.0013 20.6563 12.3393 21.0787 12.3393C21.5012 12.3393 21.8391 12.0013 21.8391 11.5789C21.8391 11.2409 21.6279 10.9875 21.3744 10.8608L21.4589 10.5651H22.7684L22.8529 10.8608C22.5572 10.9875 22.3883 11.2409 22.3883 11.5789C22.3883 12.0013 22.7262 12.3393 23.1486 12.3393C23.5711 12.3393 23.909 12.0013 23.909 11.5789C23.8245 11.1565 23.4866 10.8185 23.0641 10.8185ZM21.5434 11.5789C21.5434 11.8746 21.3322 12.0858 21.0365 12.0858C20.7408 12.0858 20.5296 11.8746 20.5296 11.5789C20.5296 11.3254 20.7408 11.072 21.0365 11.072L20.9098 11.5789H21.1632L21.2477 11.1142C21.4167 11.1987 21.5434 11.3677 21.5434 11.5789ZM23.0641 12.0858C22.7684 12.0858 22.5572 11.8746 22.5572 11.5789C22.5572 11.3677 22.684 11.1987 22.8529 11.1142L22.9374 11.5789H23.1909L23.0641 11.072C23.3176 11.072 23.5711 11.2832 23.5711 11.5789C23.5711 11.8746 23.3176 12.0858 23.0641 12.0858Z" fill="black"/>
</g>
<path id="Vector_12" d="M33.2452 44.8246H32.9918L32.9495 44.5711C32.9073 44.3599 32.7383 44.2332 32.5271 44.2332H32.4849L32.4426 44.022C32.4426 43.9797 32.4004 43.9375 32.3581 43.9375H31.809C31.7667 43.9375 31.7245 43.9797 31.7245 44.022L31.6823 44.2332H31.64C31.4288 44.2332 31.2598 44.3599 31.2176 44.5711L31.1753 44.8246H30.9219C30.8797 44.8246 30.8374 44.8668 30.8374 44.9091V45.0358C30.8374 45.078 30.8797 45.1203 30.9219 45.1203H31.0486L30.9641 45.2048C30.9219 45.247 30.8796 45.2893 30.8796 45.3737L30.8374 45.7962C30.8374 45.8807 30.8374 45.9229 30.8796 46.0074V46.3876C30.8796 46.4298 30.9219 46.5143 31.0064 46.5143H31.2598C31.3021 46.5143 31.3866 46.4721 31.3866 46.3876V46.1341H32.7806V46.3876C32.7806 46.4298 32.8228 46.5143 32.9073 46.5143H33.1608C33.203 46.5143 33.2875 46.4721 33.2875 46.3876V46.0074C33.3297 45.9651 33.3719 45.8807 33.3297 45.7962L33.2875 45.3737C33.2875 45.3315 33.2452 45.247 33.203 45.2048L33.1185 45.1203H33.2452C33.2875 45.1203 33.3297 45.078 33.3297 45.0358V44.9091C33.3297 44.8668 33.2875 44.8246 33.2452 44.8246ZM31.4288 44.6134C31.471 44.5289 31.5555 44.4444 31.64 44.4444H32.4849C32.5693 44.4444 32.6538 44.5289 32.6961 44.6134L32.7806 44.9936H31.3866L31.4288 44.6134ZM31.3866 45.7117C31.3021 45.7117 31.2176 45.6272 31.2176 45.5427C31.2176 45.4582 31.3021 45.3737 31.3866 45.3737C31.471 45.3737 31.5555 45.4582 31.5555 45.5427C31.5555 45.6272 31.471 45.7117 31.3866 45.7117ZM32.3159 45.8807H31.809C31.7667 45.8807 31.7667 45.8384 31.7667 45.8384C31.7667 45.7962 31.809 45.7962 31.809 45.7962H32.3159C32.3581 45.7962 32.3581 45.8384 32.3581 45.8384C32.3581 45.8384 32.3581 45.8807 32.3159 45.8807ZM32.3159 45.6272H31.809C31.7667 45.6272 31.7667 45.585 31.7667 45.585L31.809 45.5427H32.3159C32.3581 45.5427 32.3581 45.585 32.3581 45.585C32.3581 45.6272 32.3581 45.6272 32.3159 45.6272ZM32.7806 45.7117C32.6961 45.7117 32.6116 45.6272 32.6116 45.5427C32.6116 45.4582 32.6961 45.3737 32.7806 45.3737C32.865 45.3737 32.9495 45.4582 32.9495 45.5427C32.9495 45.6272 32.865 45.7117 32.7806 45.7117Z" fill="black"/>
<path id="Vector_13" d="M13.8979 14.0712C15.5777 14.0712 16.9394 12.7095 16.9394 11.0297C16.9394 9.34999 15.5777 7.98828 13.8979 7.98828C12.2181 7.98828 10.8564 9.34999 10.8564 11.0297C10.8564 12.7095 12.2181 14.0712 13.8979 14.0712Z" fill="white"/>
<path id="Vector_14" d="M39.8774 48.2451C41.5572 48.2451 42.9189 46.8834 42.9189 45.2036C42.9189 43.5238 41.5572 42.1621 39.8774 42.1621C38.1976 42.1621 36.8359 43.5238 36.8359 45.2036C36.8359 46.8834 38.1976 48.2451 39.8774 48.2451Z" fill="white"/>
<path id="Vector_15" d="M41.7361 45.7533L38.061 45.7111C38.1455 38.4876 35.8221 33.4184 23.7407 28.9407C16.8129 26.3639 14.0249 21.6327 12.8843 18.0843C11.6593 14.2825 12.0395 11.072 12.0817 10.9453L15.7568 11.4522C15.7146 11.8746 14.6163 21.6327 25.0502 25.519C37.1316 29.9968 41.8206 35.6995 41.7361 45.7533Z" fill="white"/>
<path id="Vector_16" d="M32.1045 14.0712C33.7842 14.0712 35.1459 12.7095 35.1459 11.0297C35.1459 9.34999 33.7842 7.98828 32.1045 7.98828C30.4247 7.98828 29.063 9.34999 29.063 11.0297C29.063 12.7095 30.4247 14.0712 32.1045 14.0712Z" fill="white"/>
<path id="Vector_17" d="M22.4731 48.2451C24.1529 48.2451 25.5146 46.8834 25.5146 45.2036C25.5146 43.5238 24.1529 42.1621 22.4731 42.1621C20.7934 42.1621 19.4316 43.5238 19.4316 45.2036C19.4316 46.8834 20.7934 48.2451 22.4731 48.2451Z" fill="white"/>
<path id="Vector_18" d="M20.8258 45.8798V45.3307C20.699 41.9935 20.4033 34.2208 25.6837 27.9689C31.3864 21.1678 30.5838 11.2408 30.5416 11.1141L33.4986 10.8184C33.5408 11.283 34.4702 22.0972 27.9648 29.8276C23.4448 35.1924 23.6983 41.9513 23.825 45.1617V45.7531L20.8258 45.8798Z" fill="white"/>
<path id="Vector_19" d="M14.6583 9.76292C14.616 9.76292 14.5315 9.72069 14.4893 9.72069V9.55171C14.4893 9.50946 14.4893 9.50947 14.447 9.50947L14.4048 9.46723C14.0668 9.42499 13.7289 9.42499 13.391 9.46723C13.3487 9.46723 13.3487 9.46723 13.3487 9.50947L13.3065 9.55171V9.72069C13.2642 9.72069 13.1797 9.76292 13.1375 9.76292C12.9685 9.80516 12.8418 9.97413 12.8418 10.1853V11.7061C12.8418 11.7906 12.884 11.8751 12.9263 11.9595C12.9685 12.044 13.053 12.0863 13.1375 12.0863L12.8841 12.4665C12.8841 12.5087 12.8418 12.5509 12.8841 12.5932C12.8841 12.6354 12.9263 12.6777 12.9685 12.6777C13.0108 12.6777 13.053 12.7199 13.0953 12.6777C13.1375 12.6777 13.1798 12.6354 13.1798 12.5932L13.2642 12.4665H14.5315L14.616 12.5932C14.6582 12.6354 14.7005 12.6777 14.7427 12.6777C14.785 12.6777 14.8272 12.6354 14.8695 12.5932C14.9117 12.5509 14.9117 12.5087 14.8695 12.4665L14.616 12.0863C14.7005 12.0863 14.785 12.044 14.8272 11.9595C14.8695 11.8751 14.9117 11.8328 14.9117 11.7061V10.1853C14.9539 9.97413 14.8272 9.80516 14.6583 9.76292ZM13.6022 9.76292C13.6444 9.72068 13.6444 9.72068 13.6022 9.76292C13.8134 9.67843 13.9824 9.67845 14.1513 9.72069C14.1936 9.72069 14.1936 9.72068 14.1936 9.76292V9.9319C14.1936 9.97414 14.1513 9.97413 14.1513 9.97413H13.6444C13.6022 9.97413 13.6022 9.97414 13.6022 9.9319V9.76292ZM13.222 11.4526C13.222 11.4104 13.222 11.3681 13.2642 11.3259C13.3065 11.2837 13.3487 11.2837 13.391 11.2837C13.4332 11.2837 13.4755 11.2837 13.5177 11.3259C13.5599 11.3681 13.5599 11.4104 13.5599 11.4526C13.5599 11.4949 13.5599 11.5371 13.5177 11.5794C13.4755 11.6216 13.4332 11.6216 13.391 11.6216C13.3487 11.6216 13.3065 11.6216 13.2642 11.5794C13.222 11.5371 13.222 11.4949 13.222 11.4526ZM13.391 12.213L13.4754 12.044H14.2781L14.3626 12.213H13.391ZM14.4048 11.6638C14.3625 11.6638 14.3203 11.6639 14.2781 11.6216C14.2358 11.5794 14.2358 11.5371 14.2358 11.4949C14.2358 11.4526 14.2358 11.4104 14.2781 11.3682C14.3203 11.3259 14.3625 11.3259 14.4048 11.3259C14.447 11.3259 14.4893 11.3259 14.5315 11.3682C14.5737 11.4104 14.5738 11.4526 14.5738 11.4949C14.5738 11.5371 14.5737 11.5794 14.5315 11.6216C14.5315 11.6216 14.447 11.6638 14.4048 11.6638ZM14.616 10.3966L14.4893 10.9035C14.4893 10.9035 14.4893 10.9457 14.447 10.9457H14.4048H13.391H13.3487L13.3065 10.9035L13.1798 10.3966C13.1798 10.3543 13.1798 10.3543 13.1798 10.3121L13.222 10.2698H14.4893C14.5315 10.2698 14.5315 10.2698 14.5315 10.3121C14.616 10.3543 14.616 10.3543 14.616 10.3966Z" fill="black"/>
<path id="Vector_20" d="M33.245 10.6488H32.9915L32.9493 10.3954C32.9071 10.1841 32.7381 10.0574 32.5269 10.0574H32.4846L32.4424 9.84621C32.4424 9.80397 32.4001 9.76172 32.3579 9.76172H31.851C31.8087 9.76172 31.7665 9.80397 31.7665 9.84621L31.7242 10.0574H31.682C31.4708 10.0574 31.3018 10.1841 31.2596 10.3954L31.2173 10.6488H30.9639C30.9216 10.6488 30.8794 10.6911 30.8794 10.7333V10.86C30.8794 10.9023 30.9216 10.9445 30.9639 10.9445H31.0906L31.0061 11.029C30.9639 11.0712 30.9217 11.1135 30.9217 11.198L30.8794 11.6204C30.8794 11.7049 30.8794 11.7471 30.9217 11.8316V12.2118C30.9217 12.254 30.9639 12.3385 31.0484 12.3385H31.3018C31.3441 12.3385 31.4285 12.2963 31.4285 12.2118V11.9583H32.8226V12.2118C32.8226 12.254 32.8648 12.3385 32.9493 12.3385H33.2027C33.245 12.3385 33.3295 12.2963 33.3295 12.2118V11.8316C33.3717 11.7894 33.414 11.7049 33.3717 11.6204L33.3295 11.198C33.3295 11.1557 33.2872 11.0712 33.245 11.029L33.1605 10.9445H33.2872C33.3295 10.9445 33.3717 10.9023 33.3717 10.86V10.7333C33.3717 10.6911 33.3295 10.6488 33.245 10.6488ZM31.4708 10.4376C31.513 10.3531 31.5975 10.2686 31.682 10.2686H32.5269C32.6114 10.2686 32.6958 10.3531 32.7381 10.4376L32.8226 10.8178H31.3863L31.4708 10.4376ZM31.3863 11.5359C31.3018 11.5359 31.2173 11.4514 31.2173 11.3669C31.2173 11.2825 31.3018 11.198 31.3863 11.198C31.4708 11.198 31.5553 11.2825 31.5553 11.3669C31.5553 11.4514 31.513 11.5359 31.3863 11.5359ZM32.3579 11.7049H31.851C31.8087 11.7049 31.8087 11.6626 31.8087 11.6626C31.8087 11.6204 31.851 11.6204 31.851 11.6204H32.3579C32.4001 11.6204 32.4001 11.6626 32.4001 11.6626C32.4001 11.7049 32.3579 11.7049 32.3579 11.7049ZM32.3579 11.4937H31.851C31.8087 11.4937 31.8087 11.4514 31.8087 11.4514C31.8087 11.4092 31.851 11.4092 31.851 11.4092H32.3579C32.4001 11.4092 32.4001 11.4514 32.4001 11.4514L32.3579 11.4937ZM32.7803 11.5359C32.6958 11.5359 32.6114 11.4514 32.6114 11.3669C32.6114 11.2825 32.6958 11.198 32.7803 11.198C32.8648 11.198 32.9493 11.2825 32.9493 11.3669C32.9493 11.4514 32.8648 11.5359 32.7803 11.5359Z" fill="black"/>
<g id="Group_8">
<path id="Vector_21" d="M22.0934 44.1074H21.333V44.3609H22.0934V44.1074Z" fill="black"/>
<path id="Vector_22" d="M23.445 44.9513L23.276 44.2754C23.276 44.2332 23.3183 44.1909 23.3605 44.1909H23.7407V43.9375H23.3183C23.1493 43.9375 23.0226 44.1065 23.0648 44.2754L23.1071 44.4444H21.882H21.6286L21.5018 44.9513H21.4596C21.0372 44.9513 20.6992 45.2893 20.6992 45.7117C20.6992 46.1341 21.0372 46.4721 21.4596 46.4721C21.882 46.4721 22.2199 46.1341 22.2199 45.7117C22.2199 45.3737 22.0087 45.1203 21.7553 44.9936L21.8398 44.6979H23.1493L23.2338 44.9936C22.9381 45.1203 22.7691 45.3737 22.7691 45.7117C22.7691 46.1341 23.1071 46.4721 23.5295 46.4721C23.9519 46.4721 24.2898 46.1341 24.2898 45.7117C24.2054 45.2893 23.8674 44.9513 23.445 44.9513ZM21.9665 45.7117C21.9665 46.0074 21.7553 46.2186 21.4596 46.2186C21.1639 46.2186 20.9527 46.0074 20.9527 45.7117C20.9527 45.4582 21.1639 45.2048 21.4596 45.2048L21.3329 45.7117H21.5863L21.6708 45.247C21.8398 45.3315 21.9665 45.5005 21.9665 45.7117ZM23.445 46.2186C23.1493 46.2186 22.9381 46.0074 22.9381 45.7117C22.9381 45.5005 23.0648 45.3315 23.2338 45.247L23.3183 45.7117H23.5717L23.445 45.2048C23.6985 45.2048 23.9519 45.416 23.9519 45.7117C23.9519 46.0074 23.7407 46.2186 23.445 46.2186Z" fill="black"/>
</g>
<g id="Group_9">
<path id="Vector_23" d="M41.3559 45.499V45.2878C41.3559 45.2033 41.3559 44.9498 41.1025 44.8653L40.9757 44.4429C40.9335 44.3162 40.8913 44.1895 40.6378 44.1895H40.1731H39.5395H39.0748C38.8214 44.1895 38.7791 44.3162 38.7369 44.4429L38.6101 44.8653C38.3567 44.9498 38.3567 45.161 38.3567 45.2878V45.499C38.3144 45.499 38.3145 45.5412 38.3145 45.5835V45.6257C38.3145 45.668 38.3567 45.7524 38.4412 45.7524H38.5257V45.9637C38.5257 46.2171 38.6101 46.2171 38.7791 46.2171C38.9481 46.2171 39.0326 46.2171 39.0326 45.9637V45.7524H40.68V45.9637C40.68 46.2171 40.7645 46.2171 40.9335 46.2171C41.1025 46.2171 41.187 46.2171 41.187 45.9637V45.7524H41.2714C41.3137 45.7524 41.3982 45.7102 41.3982 45.6257V45.5835C41.3982 45.5835 41.3559 45.5412 41.3559 45.499ZM38.6524 45.33C38.5679 45.33 38.4834 45.2455 38.4834 45.161C38.4834 45.0766 38.5679 44.9921 38.6524 44.9921C38.7369 44.9921 38.8213 45.0766 38.8213 45.161C38.8213 45.2455 38.7369 45.33 38.6524 45.33ZM39.117 45.33C39.0326 45.33 38.9481 45.2455 38.9481 45.161C38.9481 45.0766 39.0326 44.9921 39.117 44.9921C39.2015 44.9921 39.286 45.0766 39.286 45.161C39.286 45.2455 39.2015 45.33 39.117 45.33ZM40.2154 45.33H39.5395C39.455 45.33 39.4128 45.2455 39.4128 45.2033C39.4128 45.1188 39.4972 45.0766 39.5395 45.0766H40.2154C40.2999 45.0766 40.3421 45.161 40.3421 45.2033C40.3421 45.2455 40.2999 45.33 40.2154 45.33ZM40.5955 45.33C40.5111 45.33 40.4266 45.2455 40.4266 45.161C40.4266 45.0766 40.5111 44.9921 40.5955 44.9921C40.68 44.9921 40.7645 45.0766 40.7645 45.161C40.7645 45.2455 40.68 45.33 40.5955 45.33ZM39.8774 44.7386C39.455 44.7386 39.117 44.7809 38.9058 44.8231L39.0326 44.5274C39.0326 44.4429 39.1171 44.4007 39.2015 44.4007H40.6378C40.7223 44.4007 40.7645 44.4007 40.8068 44.5274L40.9335 44.8231C40.6378 44.7809 40.2576 44.7386 39.8774 44.7386ZM41.0602 45.33C40.9757 45.33 40.8912 45.2455 40.8912 45.161C40.8912 45.0766 40.9757 44.9921 41.0602 44.9921C41.1447 44.9921 41.2292 45.0766 41.2292 45.161C41.1869 45.2455 41.1447 45.33 41.0602 45.33Z" fill="black"/>
</g>
<g id="Group_10">
<g id="Group_11">
<path id="Vector_24" d="M13.8979 14.0293C13.8979 14.0293 13.898 14.1983 13.9402 14.4517" stroke="#58595B" stroke-width="0.422427" stroke-miterlimit="10"/>
<path id="Vector_25" d="M14.1514 15.2969C14.8695 18.2961 17.4885 25.8576 26.5285 28.4344C36.709 31.3069 39.4547 38.8683 39.7504 41.9098" stroke="#58595B" stroke-width="0.422427" stroke-miterlimit="10" stroke-dasharray="0.86 0.86"/>
<path id="Vector_26" d="M39.7505 42.332C39.7505 42.501 39.7505 42.6277 39.7505 42.7545" stroke="#58595B" stroke-width="0.422427" stroke-miterlimit="10"/>
</g>
</g>
<g id="Group_12">
<g id="Group_13">
<path id="Vector_27" d="M22.0928 42.7545C22.0928 42.7545 22.0928 42.5855 22.135 42.332" stroke="#58595B" stroke-width="0.422427" stroke-miterlimit="10"/>
<path id="Vector_28" d="M22.2192 41.4457C22.4727 38.4042 23.4865 30.885 26.9504 28.3504C30.8368 25.4779 31.8928 17.9165 31.9773 14.875" stroke="#58595B" stroke-width="0.422427" stroke-miterlimit="10" stroke-dasharray="0.87 0.87"/>
<path id="Vector_29" d="M31.9775 14.4517C31.9775 14.2828 31.9775 14.156 31.9775 14.0293" stroke="#58595B" stroke-width="0.422427" stroke-miterlimit="10"/>
</g>
</g>
<path id="Vector_30" d="M39.8774 14.1552C41.5572 14.1552 42.9189 12.7935 42.9189 11.1137C42.9189 9.43399 41.5572 8.07227 39.8774 8.07227C38.1976 8.07227 36.8359 9.43399 36.8359 11.1137C36.8359 12.7935 38.1976 14.1552 39.8774 14.1552Z" fill="white"/>
<path id="Vector_31" d="M13.8979 48.2451C15.5777 48.2451 16.9394 46.8834 16.9394 45.2036C16.9394 43.5238 15.5777 42.1621 13.8979 42.1621C12.2181 42.1621 10.8564 43.5238 10.8564 45.2036C10.8564 46.8834 12.2181 48.2451 13.8979 48.2451Z" fill="white"/>
<path id="Vector_32" d="M11.9972 45.7533C11.9127 35.6573 16.6017 29.9968 28.6831 25.4768C39.117 21.5905 38.0187 11.8324 37.9765 11.41L41.6516 10.9453C41.6516 11.072 43.2146 24.0405 29.9926 28.9829C17.9535 33.4607 15.6301 38.5298 15.6723 45.7533H11.9972Z" fill="white"/>
<g id="Group_14">
<path id="Vector_33" d="M41.3559 11.4091V11.1979C41.3559 11.1134 41.3559 10.86 41.1025 10.7755L40.9757 10.3531C40.9335 10.2263 40.8913 10.0996 40.6378 10.0996H40.1731H39.5395H39.0748C38.8214 10.0996 38.7791 10.2263 38.7369 10.3531L38.6101 10.7755C38.3567 10.86 38.3567 11.0712 38.3567 11.1979V11.4091C38.3144 11.4091 38.3145 11.4514 38.3145 11.4936V11.5359C38.3145 11.5781 38.3567 11.6626 38.4412 11.6626H38.5257V11.8738C38.5257 12.1273 38.6101 12.1273 38.7791 12.1273C38.9481 12.1273 39.0326 12.1273 39.0326 11.8738V11.6626H40.68V11.8738C40.68 12.1273 40.7645 12.1273 40.9335 12.1273C41.1025 12.1273 41.187 12.1273 41.187 11.8738V11.6626H41.2714C41.3137 11.6626 41.3982 11.6203 41.3982 11.5359V11.4936C41.3982 11.4514 41.3982 11.4514 41.3559 11.4091ZM38.6946 11.1979C38.6101 11.1979 38.5257 11.1134 38.5257 11.0289C38.5257 10.9445 38.6101 10.86 38.6946 10.86C38.7791 10.86 38.8636 10.9445 38.8636 11.0289C38.8636 11.1557 38.7791 11.1979 38.6946 11.1979ZM39.1593 11.1979C39.0748 11.1979 38.9903 11.1134 38.9903 11.0289C38.9903 10.9445 39.0748 10.86 39.1593 10.86C39.2438 10.86 39.3283 10.9445 39.3283 11.0289C39.286 11.1557 39.2438 11.1979 39.1593 11.1979ZM40.2576 11.1979H39.5817C39.4972 11.1979 39.455 11.1134 39.455 11.0712C39.455 10.9867 39.5395 10.9445 39.5817 10.9445H40.2576C40.3421 10.9445 40.3843 11.0289 40.3843 11.0712C40.3843 11.1557 40.2999 11.1979 40.2576 11.1979ZM40.6378 11.1979C40.5533 11.1979 40.4688 11.1134 40.4688 11.0289C40.4688 10.9445 40.5533 10.86 40.6378 10.86C40.7223 10.86 40.8068 10.9445 40.8068 11.0289C40.7645 11.1557 40.7223 11.1979 40.6378 11.1979ZM39.8774 10.6488C39.455 10.6488 39.117 10.691 38.9058 10.7333L39.0326 10.4375C39.0326 10.3531 39.1171 10.3108 39.2015 10.3108H40.6378C40.7223 10.3108 40.7645 10.3108 40.8068 10.4375L40.9335 10.7333C40.68 10.691 40.2998 10.6488 39.8774 10.6488ZM41.0602 11.1979C40.9757 11.1979 40.8912 11.1134 40.8912 11.0289C40.8912 10.9445 40.9757 10.86 41.0602 10.86C41.1447 10.86 41.2292 10.9445 41.2292 11.0289C41.2292 11.1557 41.1447 11.1979 41.0602 11.1979Z" fill="black"/>
</g>
<path id="Vector_34" d="M14.6583 43.9368C14.616 43.9368 14.5315 43.8945 14.4893 43.8945V43.7255C14.4893 43.6833 14.4893 43.6833 14.447 43.6833L14.4048 43.6411C14.0668 43.5988 13.7289 43.5988 13.391 43.6411C13.3487 43.6411 13.3487 43.6411 13.3487 43.6833L13.3065 43.7255V43.8945C13.2642 43.8945 13.1797 43.9368 13.1375 43.9368C12.9685 43.979 12.8418 44.148 12.8418 44.3592V45.8799C12.8418 45.9644 12.884 46.0489 12.9263 46.1334C12.9685 46.2179 13.053 46.2601 13.1375 46.2601L12.8841 46.6403C12.8841 46.6825 12.8418 46.7248 12.8841 46.767C12.9263 46.8093 12.9263 46.8515 12.9685 46.8515C13.0108 46.8515 13.053 46.8937 13.0953 46.8515C13.1375 46.8515 13.1798 46.8093 13.1798 46.767L13.2642 46.6403H14.5315L14.616 46.767C14.6582 46.8093 14.7005 46.8515 14.7427 46.8515C14.785 46.8515 14.8272 46.8093 14.8695 46.767C14.9117 46.7248 14.9117 46.6825 14.8695 46.6403L14.616 46.2601C14.7005 46.2601 14.785 46.2179 14.8272 46.1334C14.8695 46.0489 14.9117 46.0066 14.9117 45.8799V44.3592C14.9539 44.148 14.8272 43.979 14.6583 43.9368ZM13.6022 43.9368C13.8134 43.8523 13.9824 43.8523 14.1513 43.8945C14.1936 43.8945 14.1936 43.8945 14.1936 43.9368V44.1057C14.1936 44.148 14.1513 44.148 14.1513 44.148H13.6444C13.6022 44.148 13.6022 44.148 13.6022 44.1057V43.9368ZM13.222 45.6687C13.222 45.6265 13.222 45.5842 13.2642 45.542C13.3065 45.4997 13.3487 45.4997 13.391 45.4997C13.4332 45.4997 13.4755 45.4997 13.5177 45.542C13.5599 45.5842 13.5599 45.6265 13.5599 45.6687C13.5599 45.7109 13.5599 45.7532 13.5177 45.7954C13.4755 45.8377 13.4332 45.8377 13.391 45.8377C13.3487 45.8377 13.3065 45.8377 13.2642 45.7954C13.222 45.7532 13.222 45.7109 13.222 45.6687ZM13.391 46.4291L13.4754 46.2601H14.2781L14.3626 46.4291H13.391ZM14.4048 45.8377C14.3625 45.8377 14.3203 45.8377 14.2781 45.7954C14.2358 45.7532 14.2358 45.7109 14.2358 45.6687C14.2358 45.6265 14.2358 45.5842 14.2781 45.542C14.3203 45.4997 14.3625 45.4997 14.4048 45.4997C14.447 45.4997 14.4893 45.4997 14.5315 45.542C14.5737 45.5842 14.5738 45.6265 14.5738 45.6687C14.5738 45.7109 14.5737 45.7532 14.5315 45.7954C14.4893 45.8377 14.447 45.8377 14.4048 45.8377ZM14.616 44.5704L14.4893 45.0773C14.4893 45.0773 14.4893 45.1196 14.447 45.1196H14.4048H13.391H13.3487L13.3065 45.0773L13.1798 44.5704C13.1798 44.5282 13.1798 44.5282 13.1798 44.4859L13.222 44.4437H14.4893C14.5315 44.4437 14.5315 44.4437 14.5315 44.4859C14.616 44.5282 14.616 44.5704 14.616 44.5704Z" fill="black"/>
<g id="Group_15">
<g id="Group_16">
<path id="Vector_35" d="M14.1094 42.7545C14.1094 42.7545 14.1094 42.5855 14.1516 42.332" stroke="#58595B" stroke-width="0.422427" stroke-miterlimit="10"/>
<path id="Vector_36" d="M14.3208 41.4879C15.0389 38.4887 17.658 30.9272 26.6979 28.3504C36.8784 25.4779 39.6242 17.9165 39.9199 14.875" stroke="#58595B" stroke-width="0.422427" stroke-miterlimit="10" stroke-dasharray="0.86 0.86"/>
<path id="Vector_37" d="M39.9194 14.4517C39.9194 14.2828 39.9194 14.156 39.9194 14.0293" stroke="#58595B" stroke-width="0.422427" stroke-miterlimit="10"/>
</g>
</g>
</g>
<g id="Group_17">
<path id="Vector_38" d="M96.7776 43.6416L96.6509 24.5057L87.5265 39.8398H81.2746L72.1501 25.1393V43.6416H59.2661V1.65234H66.9543C69.4044 1.65234 71.6432 2.91962 72.9105 4.98952L84.5273 23.9987L96.0595 4.60933C97.1578 2.7929 99.1432 1.65234 101.255 1.65234H109.535L109.662 43.6416H96.7776Z" fill="white"/>
<path id="Vector_39" d="M124.024 12.6354H111.731V7.22837C111.731 4.14466 114.224 1.65234 117.307 1.65234H150.468V12.6354H138.175V43.6416H124.024V12.6354Z" fill="white"/>
<path id="Vector_40" d="M171.927 33.0809H170.068C168.97 33.0809 168.083 33.968 168.083 35.0663V43.6416H153.932V1.65234H174.166C178.052 1.65234 181.432 2.28598 184.304 3.55327C187.177 4.82055 189.416 6.67923 190.979 9.08706C192.541 11.4949 193.302 14.2829 193.302 17.4934C193.302 20.4926 192.626 23.1116 191.274 25.3505C189.922 27.5894 187.937 29.3636 185.402 30.6731L194.231 43.6416H179.108L171.927 33.0809ZM177.588 13.8605C176.616 13.0156 175.18 12.551 173.279 12.551H168.125V22.3935H173.279C175.18 22.3935 176.616 21.9711 177.588 21.084C178.559 20.2391 179.024 19.0141 179.024 17.4511C179.024 15.8881 178.517 14.7476 177.588 13.8605Z" fill="white"/>
</g>
<g id="Group_18">
<path id="Vector_41" d="M59.309 53.4006C58.8443 53.2739 58.4642 53.0627 58.1685 52.8515L58.6753 51.7109C58.971 51.9221 59.2668 52.0911 59.647 52.2178C60.0271 52.3446 60.4073 52.3868 60.7875 52.3868C61.2099 52.3868 61.5479 52.3446 61.7168 52.2178C61.928 52.0911 62.0125 51.9221 62.0125 51.7109C62.0125 51.542 61.9703 51.4152 61.8436 51.3308C61.7168 51.2463 61.5901 51.1618 61.3789 51.0773C61.2099 51.0351 60.9565 50.9506 60.6185 50.8661C60.1116 50.7394 59.7314 50.6126 59.3935 50.5281C59.0978 50.4014 58.8021 50.2324 58.5909 49.979C58.3797 49.7255 58.2529 49.3876 58.2529 48.9229C58.2529 48.5427 58.3374 48.2048 58.5486 47.9091C58.7598 47.6134 59.0555 47.3599 59.478 47.191C59.9004 47.022 60.4073 46.9375 60.9987 46.9375C61.4211 46.9375 61.8013 46.9798 62.2237 47.0642C62.6039 47.1487 62.9841 47.3177 63.2798 47.4867L62.8152 48.6272C62.2238 48.2893 61.6324 48.1203 61.041 48.1203C60.6185 48.1203 60.3228 48.2048 60.1116 48.3315C59.9004 48.4582 59.8159 48.6272 59.8159 48.8807C59.8159 49.0919 59.9426 49.2609 60.1538 49.3876C60.3651 49.5143 60.7452 49.5988 61.2099 49.7255C61.7168 49.8522 62.097 49.979 62.435 50.0635C62.7729 50.148 63.0264 50.3592 63.2376 50.6126C63.4488 50.8661 63.5755 51.204 63.5755 51.6264C63.5755 52.0066 63.491 52.3446 63.2798 52.6403C63.0686 52.936 62.7729 53.1894 62.3505 53.3584C61.928 53.5274 61.4211 53.6119 60.8297 53.6119C60.2806 53.6119 59.7737 53.5274 59.309 53.4006Z" fill="white"/>
<path id="Vector_42" d="M65.8565 53.1464C65.3073 52.8507 64.8849 52.4706 64.5892 51.9637C64.2935 51.4567 64.1245 50.8653 64.1245 50.2317C64.1245 49.5981 64.2935 49.0067 64.5892 48.4997C64.8849 47.9928 65.3073 47.6127 65.8565 47.317C66.4056 47.0213 66.997 46.8945 67.6729 46.8945C68.3488 46.8945 68.9402 47.0213 69.4893 47.317C70.0385 47.6127 70.4609 47.9928 70.7566 48.4997C71.0523 49.0067 71.2213 49.5981 71.2213 50.2317C71.2213 50.8653 71.0523 51.4567 70.7566 51.9637C70.4609 52.4706 70.0385 52.8507 69.4893 53.1464C68.9402 53.4421 68.3488 53.5689 67.6729 53.5689C66.997 53.5689 66.4056 53.4421 65.8565 53.1464ZM68.729 52.0481C69.0247 51.8792 69.2781 51.6257 69.4471 51.33C69.6161 51.0343 69.7006 50.6541 69.7006 50.2739C69.7006 49.8938 69.6161 49.5136 69.4471 49.2179C69.2781 48.9222 69.0247 48.6687 68.729 48.4997C68.4333 48.3308 68.0953 48.2463 67.6729 48.2463C67.2505 48.2463 66.9548 48.3308 66.6168 48.4997C66.3211 48.6687 66.0677 48.9222 65.8987 49.2179C65.7297 49.5136 65.6452 49.8938 65.6452 50.2739C65.6452 50.6541 65.7297 51.0343 65.8987 51.33C66.0677 51.6257 66.3211 51.8792 66.6168 52.0481C66.9125 52.2171 67.2505 52.3016 67.6729 52.3016C68.0953 52.3016 68.391 52.2171 68.729 52.0481Z" fill="white"/>
<path id="Vector_43" d="M73.8403 48.2043V49.894H76.8395V51.0768H73.8403V53.4424H72.3618V47.0215H77.262V48.2043H73.8403Z" fill="white"/>
<path id="Vector_44" d="M79.628 48.2465H77.5581V47.0215H83.1764V48.2465H81.1065V53.4846H79.628V48.2465Z" fill="white"/>
<path id="Vector_45" d="M93.6942 47.0215L91.5821 53.4846H89.9768L88.5406 49.0914L87.0621 53.4846H85.4569L83.3447 47.0215H84.9077L86.3862 51.5837L87.9069 47.0215H89.3009L90.7794 51.6259L92.3002 47.0215H93.6942Z" fill="white"/>
<path id="Vector_46" d="M98.5523 52.0906H95.5531L94.9616 53.4846H93.4409L96.3134 47.0215H97.7919L100.664 53.4846H99.1014L98.5523 52.0906ZM98.0876 50.9501L97.0738 48.4577L96.0599 50.9501H98.0876Z" fill="white"/>
<path id="Vector_47" d="M105.481 53.4846L104.213 51.6682H104.129H102.819V53.4846H101.341V47.0215H104.129C104.72 47.0215 105.185 47.106 105.607 47.3172C106.03 47.5284 106.368 47.7819 106.579 48.1198C106.79 48.4577 106.917 48.8802 106.917 49.3871C106.917 49.894 106.79 50.2742 106.579 50.6121C106.368 50.9501 106.03 51.2458 105.607 51.4147L107.044 53.4846H105.481ZM105.1 48.5C104.847 48.2888 104.509 48.2043 104.087 48.2043H102.862V50.4431H104.087C104.551 50.4431 104.889 50.3587 105.1 50.1474C105.354 49.9362 105.438 49.6828 105.438 49.3026C105.481 49.0069 105.354 48.7112 105.1 48.5Z" fill="white"/>
<path id="Vector_48" d="M113.168 52.2596V53.4424H108.142V47.0215H113.042V48.2043H109.62V49.5983H112.619V50.7811H109.62V52.2596H113.168Z" fill="white"/>
<path id="Vector_49" d="M116.97 47.0215H118.449V53.4846H116.97V47.0215Z" fill="white"/>
<path id="Vector_50" d="M125.968 47.0215V53.4846H124.743L121.533 49.556V53.4846H120.054V47.0215H121.279L124.49 50.9501V47.0215H125.968Z" fill="white"/>
<path id="Vector_51" d="M128.798 53.1464C128.249 52.8507 127.826 52.4706 127.531 51.9637C127.235 51.4567 127.066 50.8653 127.066 50.2317C127.066 49.5981 127.235 49.0067 127.531 48.4997C127.826 47.9928 128.249 47.6127 128.798 47.317C129.347 47.0213 129.938 46.8945 130.614 46.8945C131.163 46.8945 131.67 46.979 132.135 47.1902C132.6 47.4014 132.98 47.6549 133.276 48.0351L132.304 48.9222C131.882 48.4153 131.332 48.1618 130.657 48.1618C130.276 48.1618 129.896 48.2463 129.6 48.4153C129.305 48.5842 129.051 48.8377 128.882 49.1334C128.713 49.4291 128.629 49.8093 128.629 50.1895C128.629 50.5696 128.713 50.9498 128.882 51.2455C129.051 51.5412 129.305 51.7947 129.6 51.9637C129.896 52.1326 130.276 52.2171 130.657 52.2171C131.29 52.2171 131.839 51.9637 132.304 51.4567L133.276 52.3438C132.98 52.724 132.6 53.0197 132.135 53.1887C131.67 53.3999 131.163 53.4844 130.614 53.4844C129.938 53.6111 129.347 53.4421 128.798 53.1464Z" fill="white"/>
<path id="Vector_52" d="M135.43 53.1464C134.881 52.8507 134.459 52.4706 134.163 51.9637C133.867 51.4567 133.698 50.8653 133.698 50.2317C133.698 49.5981 133.867 49.0067 134.163 48.4997C134.459 47.9928 134.881 47.6127 135.43 47.317C135.979 47.0213 136.571 46.8945 137.247 46.8945C137.922 46.8945 138.514 47.0213 139.063 47.317C139.612 47.6127 140.035 47.9928 140.33 48.4997C140.626 49.0067 140.795 49.5981 140.795 50.2317C140.795 50.8653 140.626 51.4567 140.33 51.9637C140.035 52.4706 139.612 52.8507 139.063 53.1464C138.514 53.4421 137.922 53.5689 137.247 53.5689C136.571 53.5689 135.979 53.4421 135.43 53.1464ZM138.303 52.0481C138.598 51.8792 138.852 51.6257 139.021 51.33C139.19 51.0343 139.274 50.6541 139.274 50.2739C139.274 49.8938 139.19 49.5136 139.021 49.2179C138.852 48.9222 138.598 48.6687 138.303 48.4997C138.007 48.3308 137.669 48.2463 137.247 48.2463C136.824 48.2463 136.528 48.3308 136.191 48.4997C135.895 48.6687 135.641 48.9222 135.472 49.2179C135.303 49.5136 135.219 49.8938 135.219 50.2739C135.219 50.6541 135.303 51.0343 135.472 51.33C135.641 51.6257 135.895 51.8792 136.191 52.0481C136.486 52.2171 136.824 52.3016 137.247 52.3016C137.669 52.3016 137.965 52.2171 138.303 52.0481Z" fill="white"/>
<path id="Vector_53" d="M146.033 53.4846L144.766 51.6682H144.682H143.372V53.4846H141.894V47.0215H144.682C145.273 47.0215 145.738 47.106 146.16 47.3172C146.583 47.5284 146.92 47.7819 147.132 48.1198C147.343 48.4577 147.47 48.8802 147.47 49.3871C147.47 49.894 147.343 50.2742 147.132 50.6121C146.92 50.9501 146.583 51.2458 146.16 51.4147L147.596 53.4846H146.033ZM145.653 48.5C145.4 48.2888 145.062 48.2043 144.639 48.2043H143.414V50.4431H144.639C145.104 50.4431 145.442 50.3587 145.653 50.1474C145.907 49.9362 145.991 49.6828 145.991 49.3026C146.033 49.0069 145.907 48.7112 145.653 48.5Z" fill="white"/>
<path id="Vector_54" d="M153.003 47.2749C153.426 47.4862 153.764 47.7396 153.975 48.0776C154.186 48.4155 154.313 48.8379 154.313 49.3448C154.313 49.8095 154.186 50.2319 153.975 50.5699C153.764 50.9078 153.426 51.2035 153.003 51.3725C152.581 51.5414 152.074 51.6682 151.525 51.6682H150.215V53.4424H148.737V47.0215H151.525C152.074 47.0215 152.581 47.106 153.003 47.2749ZM152.454 50.1897C152.708 49.9785 152.792 49.725 152.792 49.3448C152.792 48.9646 152.665 48.7112 152.454 48.5C152.201 48.2888 151.863 48.2043 151.44 48.2043H150.215V50.4431H151.44C151.905 50.4854 152.243 50.3587 152.454 50.1897Z" fill="white"/>
<path id="Vector_55" d="M156.805 53.1464C156.256 52.8507 155.834 52.4706 155.538 51.9637C155.242 51.4567 155.073 50.8653 155.073 50.2317C155.073 49.5981 155.242 49.0067 155.538 48.4997C155.834 47.9928 156.256 47.6127 156.805 47.317C157.354 47.0213 157.946 46.8945 158.622 46.8945C159.298 46.8945 159.889 47.0213 160.438 47.317C160.987 47.6127 161.41 47.9928 161.705 48.4997C162.001 49.0067 162.17 49.5981 162.17 50.2317C162.17 50.8653 162.001 51.4567 161.705 51.9637C161.41 52.4706 160.987 52.8507 160.438 53.1464C159.889 53.4421 159.298 53.5689 158.622 53.5689C157.946 53.5689 157.354 53.4421 156.805 53.1464ZM159.635 52.0481C159.931 51.8792 160.185 51.6257 160.354 51.33C160.523 51.0343 160.607 50.6541 160.607 50.2739C160.607 49.8938 160.523 49.5136 160.354 49.2179C160.185 48.9222 159.931 48.6687 159.635 48.4997C159.34 48.3308 159.002 48.2463 158.579 48.2463C158.157 48.2463 157.861 48.3308 157.523 48.4997C157.228 48.6687 156.974 48.9222 156.805 49.2179C156.636 49.5136 156.552 49.8938 156.552 50.2739C156.552 50.6541 156.636 51.0343 156.805 51.33C156.974 51.6257 157.228 51.8792 157.523 52.0481C157.819 52.2171 158.157 52.3016 158.579 52.3016C159.002 52.3016 159.34 52.2171 159.635 52.0481Z" fill="white"/>
<path id="Vector_56" d="M167.408 53.4846L166.141 51.6682H166.056H164.747V53.4846H163.268V47.0215H166.056C166.647 47.0215 167.112 47.106 167.535 47.3172C167.957 47.5284 168.295 47.7819 168.506 48.1198C168.717 48.4577 168.844 48.8802 168.844 49.3871C168.844 49.894 168.717 50.2742 168.506 50.6121C168.295 50.9501 167.957 51.2458 167.535 51.4147L168.971 53.4846H167.408ZM167.028 48.5C166.774 48.2888 166.436 48.2043 166.014 48.2043H164.789V50.4431H166.014C166.479 50.4431 166.816 50.3587 167.028 50.1474C167.281 49.9362 167.366 49.6828 167.366 49.3026C167.366 49.0069 167.281 48.7112 167.028 48.5Z" fill="white"/>
<path id="Vector_57" d="M174.336 52.0906H171.337L170.745 53.4846H169.225L172.097 47.0215H173.576L176.448 53.4846H174.885L174.336 52.0906ZM173.871 50.9501L172.857 48.4577L171.844 50.9501H173.871Z" fill="white"/>
<path id="Vector_58" d="M178.18 48.2465H176.11V47.0215H181.729V48.2465H179.659V53.4846H178.18V48.2465Z" fill="white"/>
<path id="Vector_59" d="M187.558 52.2596V53.4424H182.531V47.0215H187.431V48.2043H184.01V49.5983H187.009V50.7811H184.01V52.2596H187.558Z" fill="white"/>
<path id="Vector_60" d="M188.741 47.0215H191.698C192.416 47.0215 193.007 47.1482 193.556 47.4439C194.106 47.6974 194.528 48.0776 194.824 48.5845C195.119 49.0914 195.288 49.6405 195.288 50.2742C195.288 50.9078 195.119 51.4992 194.824 51.9639C194.528 52.4708 194.106 52.8087 193.556 53.1044C193.007 53.4001 192.416 53.5269 191.698 53.5269H188.741V47.0215ZM191.613 52.2596C192.247 52.2596 192.796 52.0906 193.176 51.7104C193.556 51.3302 193.768 50.8656 193.768 50.2319C193.768 49.5983 193.556 49.1336 193.176 48.7534C192.796 48.3733 192.289 48.2043 191.613 48.2043H190.261V52.2173H191.613V52.2596Z" fill="white"/>
</g>
</g>
</svg>
