<svg width="24" height="25" viewBox="0 0 24 25" fill="none" xmlns="http://www.w3.org/2000/svg">
<g id="Communication / Mail">
<path id="Vector" d="M4 6.5L12.2286 12.5L19.9999 6.5M21 8.69995V16.3C21 17.4201 21.0002 17.9802 20.7822 18.408C20.5905 18.7844 20.2841 19.0902 19.9078 19.282C19.48 19.5 18.9203 19.5 17.8002 19.5H6.2002C5.08009 19.5 4.51962 19.5 4.0918 19.282C3.71547 19.0902 3.40973 18.7844 3.21799 18.408C3 17.9802 3 17.4201 3 16.3V8.69995C3 7.57985 3 7.01986 3.21799 6.59204C3.40973 6.21572 3.71547 5.90973 4.0918 5.71799C4.51962 5.5 5.08009 5.5 6.2002 5.5H17.8002C18.9203 5.5 19.48 5.5 19.9078 5.71799C20.2841 5.90973 20.5905 6.21572 20.7822 6.59204C21.0002 7.01986 21 7.57985 21 8.69995Z" stroke="#CBCBCB" stroke-width="1.3" stroke-linecap="round" stroke-linejoin="round"/>
</g>
</svg>
