<svg width="50" height="50" viewBox="0 0 50 50" fill="none" xmlns="http://www.w3.org/2000/svg">
<g id="map:electrician">
<path id="Vector" d="M40.6813 14.4632H35.8344V3.72156C35.8344 2.69402 34.9668 1.86133 33.8957 1.86133C32.8245 1.86133 31.9569 2.69402 31.9569 3.72156V14.4632H16.4469V3.72156C16.4469 2.69402 15.5793 1.86133 14.5072 1.86133C13.436 1.86133 12.5694 2.69402 12.5694 3.72156V14.4632H7.72255C7.18648 14.4632 6.75317 15.3056 6.75317 15.8194V20.4733C6.75317 26.056 16.4469 32.5382 16.4469 41.5049V44.5138H20.3244V48.3913H28.0794V44.5138H31.9569V41.5049C31.9569 32.5382 41.6507 26.055 41.6507 20.4733V15.8194C41.6507 15.3056 41.2174 14.4632 40.6813 14.4632ZM23.1424 30.3493C23.2054 30.1458 23.0774 29.9732 22.8555 29.9732H19.0894C18.8665 29.9732 18.8035 29.8472 18.945 29.6834C18.945 29.6834 26.7048 19.8355 26.8561 19.6455C26.9705 19.4652 27.0965 19.5282 27.0567 19.7356C26.9966 19.9983 25.34 26.7171 25.34 26.7171C25.2595 26.9148 25.3758 27.0651 25.5959 27.0651H29.3638C29.5858 27.0651 29.6566 27.2144 29.5209 27.383C29.5209 27.383 21.7494 37.4665 21.6098 37.6351C21.4693 37.8038 21.3394 37.7524 21.4101 37.4655L23.1424 30.3493Z" fill="#0074E3"/>
</g>
</svg>
