<svg width="64" height="63" viewBox="0 0 64 63" fill="none" xmlns="http://www.w3.org/2000/svg">
<g id="map:plumber">
<path id="Vector" d="M58.0635 55.4471C58.0635 52.969 53.5422 46.0429 53.5422 46.0429C53.5422 46.0429 48.9526 52.969 48.9526 55.4471C48.9526 57.9202 50.9933 59.9261 53.5087 59.9261C56.0229 59.9261 58.0635 57.9202 58.0635 55.4471ZM25.372 16.641H16.2611V7.65937H18.7454V2.75781H2.17407V7.65937H4.65965V21.5413C4.65965 25.1504 7.62743 28.0747 11.2874 28.0747H25.372V30.5254H30.3444V14.1927H25.372V16.641ZM59.3399 37.0575V23.1756C59.3399 19.5678 56.3733 16.6422 52.717 16.6422H38.63V14.194H33.6576V30.5279H38.63V28.0759H47.7422V37.0575H45.2603V41.9591H61.8279V37.0575H59.3399Z" fill="#0074E3"/>
</g>
</svg>
