<svg width="53" height="53" viewBox="0 0 53 53" fill="none" xmlns="http://www.w3.org/2000/svg">
<g id="material-symbols:carpenter">
<path id="Vector" d="M34.3163 46.8341C33.9213 47.2291 33.4639 47.5342 32.9441 47.7497C32.4242 47.9651 31.8763 48.0728 31.3004 48.0728C30.726 48.0728 30.1695 47.9651 29.6309 47.7497C29.0924 47.5342 28.6257 47.2291 28.2307 46.8341L25.2149 43.8183C24.82 43.4234 24.5241 42.9839 24.3274 42.5C24.1306 42.016 24.0136 41.522 23.9763 41.0179C23.9404 40.5153 24.0035 40.0126 24.1658 39.51C24.3281 39.0073 24.5701 38.5406 24.8918 38.1098L25.2149 37.6789L7.65845 12.5829L16.0597 4.18164L43.4715 31.5934C43.8664 31.9883 44.1716 32.4465 44.387 32.9678C44.6024 33.4891 44.7101 34.0362 44.7101 34.6092C44.7101 35.1837 44.6024 35.7402 44.387 36.2787C44.1716 36.8173 43.8664 37.284 43.4715 37.6789L34.3163 46.8341ZM31.3004 43.7645L40.4018 34.6631L37.3859 31.5934L28.2307 40.7486L31.3004 43.7645Z" fill="#0074E3"/>
</g>
</svg>
