<svg width="25" height="18" viewBox="0 0 25 18" fill="none" xmlns="http://www.w3.org/2000/svg">
<g id="Group">
<path id="Vector" fill-rule="evenodd" clip-rule="evenodd" d="M2.47571 4.65787C2.36872 4.66506 2.28264 4.74852 2.27218 4.8553L1.86228 9.02555C1.66267 11.0563 2.70125 13.0084 4.4969 13.9775L7.39254 15.5404C7.45748 15.5755 7.53571 15.5755 7.60087 15.5404L10.4963 13.9775C12.2919 13.0084 13.3305 11.0561 13.1309 9.02555L12.721 4.85508C12.7105 4.74852 12.6245 4.66506 12.5175 4.65764L12.2307 4.63847C10.8363 4.54476 9.51201 3.99235 8.46424 3.06708L7.67017 2.36585C7.57473 2.28173 7.432 2.28173 7.33676 2.36563L6.53528 3.07166C5.4884 3.99409 4.16587 4.54475 2.77361 4.63803L2.47594 4.65808L2.47571 4.65787Z" fill="white"/>
<path id="Vector_2" fill-rule="evenodd" clip-rule="evenodd" d="M14.5339 4.5135C14.4447 3.60608 13.7125 2.89592 12.8025 2.83489C12.6548 2.82486 12.5035 2.81484 12.3536 2.8046C11.3639 2.73813 10.424 2.3461 9.68046 1.68954C9.42136 1.46073 9.14678 1.21841 8.8864 0.988309C8.09691 0.290981 6.91184 0.290312 6.12152 0.986566C5.85871 1.21821 5.58152 1.46205 5.32026 1.69237C4.57719 2.34697 3.63858 2.73792 2.65038 2.80419C2.49697 2.81444 2.34204 2.8249 2.19058 2.83514C1.2806 2.89616 0.548178 3.6061 0.459032 4.51375C0.348547 5.63689 0.186856 7.28303 0.0332267 8.84566C-0.238731 11.6132 1.17662 14.2737 3.6238 15.5947C4.97444 16.3238 6.31331 17.0464 6.97164 17.4017C7.29917 17.5786 7.6938 17.5786 8.02132 17.4017C8.67965 17.0465 10.0185 16.3239 11.3692 15.5947C13.8163 14.2739 15.2319 11.6132 14.9597 8.84566L14.5339 4.5135ZM14.0974 4.55643L14.5232 8.88856C14.7779 11.4802 13.4526 13.9719 11.1608 15.2086C9.81013 15.9377 8.47126 16.6603 7.81293 17.0158C7.61528 17.1224 7.37753 17.1224 7.17987 17.0158L3.83202 15.2086C1.54043 13.9717 0.214839 11.4803 0.469614 8.88856L0.895421 4.55665C0.963848 3.86239 1.52391 3.31931 2.2199 3.27267C2.37135 3.26265 2.52607 3.25219 2.6797 3.24173C3.76424 3.16916 4.79456 2.74009 5.60998 2.02163C5.87148 1.79129 6.14845 1.54723 6.41124 1.31582C7.03555 0.765582 7.97197 0.766017 8.59583 1.31713C8.85624 1.54703 9.1306 1.78935 9.38989 2.01836C10.206 2.73901 11.2376 3.1694 12.3239 3.24237C12.4738 3.25239 12.6251 3.26263 12.7728 3.27266C13.4686 3.31929 14.0287 3.86254 14.0971 4.55663L14.0974 4.55643Z" fill="white"/>
<path id="Vector_3" fill-rule="evenodd" clip-rule="evenodd" d="M12.9712 13.9192C12.7195 14.2798 12.6385 14.6853 12.7283 15.1354C12.7389 15.1888 12.769 15.2365 12.8128 15.269C13.5871 15.842 14.4629 16.264 15.3938 16.5117C15.4465 16.5257 15.5023 16.5198 15.5507 16.4947C15.9493 16.2892 16.2127 15.9826 16.3413 15.5753C17.0168 15.6821 17.705 15.6821 18.3808 15.5753C18.5094 15.9824 18.7728 16.289 19.1712 16.4947C19.2196 16.5198 19.2756 16.5259 19.3283 16.5117C20.2593 16.2637 21.1351 15.842 21.9093 15.269C21.9531 15.2365 21.9834 15.189 21.9939 15.1354C22.0815 14.6956 22.0063 14.2986 21.7681 13.9442C22.2728 13.4827 22.7021 12.9444 23.0396 12.3497C23.438 12.5032 23.842 12.4881 24.2513 12.3049C24.3009 12.2826 24.3406 12.2427 24.3624 12.1928C24.749 11.3105 24.9652 10.3628 24.9998 9.40007C25.0018 9.34559 24.9835 9.29242 24.9482 9.2508C24.659 8.90802 24.3016 8.71931 23.876 8.68468C23.8298 8.00219 23.6768 7.33119 23.4223 6.6964C23.7906 6.48045 24.0307 6.15532 24.1427 5.72126C24.1562 5.66852 24.1497 5.61252 24.1244 5.56436C23.6755 4.71189 23.0695 3.95202 22.3384 3.32465C22.2972 3.28935 22.244 3.27039 22.1895 3.27192C21.7413 3.28434 21.3708 3.44603 21.0784 3.75721C20.5162 3.3678 19.896 3.06926 19.2409 2.87228C19.3019 2.44974 19.1973 2.05925 18.9275 1.70121C18.8948 1.65763 18.8469 1.62799 18.7935 1.61775C17.8471 1.43731 16.8752 1.43731 15.9288 1.61775C15.8754 1.62799 15.8275 1.65763 15.7948 1.70121C15.525 2.05925 15.4206 2.44975 15.4814 2.87228C14.931 3.03767 14.4053 3.27498 13.9177 3.57769C13.8667 3.60929 13.8309 3.6605 13.8185 3.71912C13.8063 3.77796 13.8185 3.83919 13.8527 3.88844C13.9861 4.08173 14.073 4.31011 14.0972 4.55766L14.3947 7.58339C14.404 7.6784 14.4738 7.75642 14.5673 7.77646C14.6605 7.79629 14.7562 7.75358 14.8035 7.67078C15.3104 6.78255 16.2664 6.18307 17.3614 6.18307C18.9855 6.18307 20.3041 7.50169 20.3041 9.12579C20.3041 10.7499 18.9855 12.0685 17.3614 12.0685C16.2954 12.0685 15.3612 11.5004 14.8447 10.6508C14.7976 10.5732 14.7074 10.5327 14.6181 10.5488C14.5287 10.5649 14.4588 10.6346 14.4418 10.7238C14.2326 11.8288 13.7384 12.8585 13.0134 13.7107C12.9626 13.7704 12.9493 13.8498 12.9715 13.9195L12.9712 13.9192Z" fill="white"/>
</g>
</svg>
