<svg width="25" height="18" viewBox="0 0 25 18" fill="none" xmlns="http://www.w3.org/2000/svg">
<mask id="mask0_6604_2964" style="mask-type:luminance" maskUnits="userSpaceOnUse" x="0" y="0" width="25" height="18">
<path d="M0 0.216797H25V17.7829H0V0.216797Z" fill="white"/>
</mask>
<g mask="url(#mask0_6604_2964)">
<path d="M16.5003 0.875535C7.87499 -1.87461 0 4.50046 0 12.7505C0 13.8756 0.125022 16.0006 0.500089 17.2507C0.500089 17.5005 0.749946 17.7505 0.99998 17.7505H23.8747C24.1247 17.7505 24.3748 17.5005 24.4996 17.2505C24.7497 16.0004 24.9997 13.8754 24.9997 12.7503C24.9997 7.37531 21.6248 2.50045 16.5 0.875833L16.5003 0.875535ZM12.5003 2.7505C13.2502 2.7505 13.7503 3.25059 13.7503 4.00052C13.7503 4.75046 13.2502 5.25055 12.5003 5.25055C11.7502 5.25035 11.2503 4.75046 11.2503 4.00052C11.2503 3.25039 11.7502 2.7505 12.5003 2.7505ZM3.74997 14.0003C3.00004 14.0003 2.49995 13.5002 2.49995 12.7502C2.49995 12.0003 3.00004 11.5002 3.74997 11.5002C4.49991 11.5002 5 12.0003 5 12.7502C5 13.5002 4.50011 14.0003 3.74997 14.0003ZM7.25005 7.5003C6.74997 8.00039 6.00003 8.00039 5.50009 7.5003C5 7.00041 5 6.12523 5.37507 5.62534C5.87516 5.12525 6.62509 5.12525 7.12503 5.62534C7.62492 6.12523 7.62492 7.00041 7.25005 7.5003ZM12.5 15.2502C11.125 15.2502 9.87515 14.0002 10.25 12.7501C10.6249 11.5003 12.5 7.75025 12.5 7.75025C12.5 7.75025 14.375 11.5002 14.7501 12.7501C15.125 14.0002 13.8749 15.25 12.5 15.25V15.2502ZM19.6253 7.5003C19.1252 8.00039 18.3752 8.00039 17.8753 7.5003C17.3752 7.00021 17.3752 6.25028 17.8753 5.75034C18.3754 5.25025 19.1253 5.25025 19.6253 5.75034C20.0001 6.12522 20.0001 7.00036 19.6253 7.5003ZM21.2502 14.0003C20.5002 14.0003 20.0001 13.5002 20.0001 12.7502C20.0001 12.0003 20.5002 11.5002 21.2502 11.5002C22.0001 11.5002 22.5002 12.0003 22.5002 12.7502C22.5002 13.5002 22.0001 14.0003 21.2502 14.0003Z" fill="white"/>
</g>
</svg>
