<svg width="25" height="26" viewBox="0 0 25 26" fill="none" xmlns="http://www.w3.org/2000/svg">
<g id="Group">
<path id="Vector" d="M23.2143 17.6875C22.3964 17.6875 21.4286 16.8406 21.4286 16.125V8.3125C21.4286 4.00508 17.4228 0.5 12.5 0.5C7.57723 0.5 3.57143 4.00508 3.57143 8.3125V16.125C3.57143 16.8254 2.58616 17.6875 1.78571 17.6875C0.798661 17.6875 0 18.3863 0 19.25C0 20.1137 0.798661 20.8125 1.78571 20.8125H23.2143C24.2013 20.8125 25 20.1137 25 19.25C25 18.3863 24.2013 17.6875 23.2143 17.6875Z" fill="white"/>
<path id="Vector_2" d="M12.5001 25.5C14.4725 25.5 16.0716 24.1008 16.0716 22.375H8.92871C8.92871 24.1008 10.5278 25.5 12.5001 25.5Z" fill="white"/>
</g>
</svg>
