<svg width="25" height="20" viewBox="0 0 25 20" fill="none" xmlns="http://www.w3.org/2000/svg">
<path id="Vector" d="M23.8477 13.6163C23.9492 13.0182 23.9492 12.4073 23.8477 11.8092L24.8555 11.1772C24.9727 11.105 25.0234 10.9566 24.9844 10.8166C24.7227 9.90031 24.2734 9.06888 23.6875 8.38167C23.5977 8.27562 23.4531 8.25017 23.3359 8.32228L22.3281 8.95434C21.9023 8.55983 21.4141 8.25441 20.8867 8.05079V6.78667C20.8867 6.64244 20.793 6.51518 20.6641 6.48549C19.793 6.27339 18.9062 6.28187 18.0781 6.48549C17.9492 6.51518 17.8555 6.64244 17.8555 6.78667V8.05079C17.3281 8.25441 16.8398 8.55983 16.4141 8.95434L15.4062 8.32228C15.293 8.25017 15.1445 8.27562 15.0547 8.38167C14.4688 9.06888 14.0195 9.90031 13.7578 10.8166C13.7188 10.9566 13.7734 11.105 13.8867 11.1772L14.8945 11.8092C14.793 12.4073 14.793 13.0182 14.8945 13.6163L13.8867 14.2484C13.7695 14.3205 13.7188 14.469 13.7578 14.609C14.0195 15.5252 14.4688 16.3524 15.0547 17.0439C15.1445 17.1499 15.2891 17.1754 15.4062 17.1033L16.4141 16.4712C16.8398 16.8657 17.3281 17.1711 17.8555 17.3747V18.6389C17.8555 18.7831 17.9492 18.9104 18.0781 18.9401C18.9492 19.1522 19.8359 19.1437 20.6641 18.9401C20.793 18.9104 20.8867 18.7831 20.8867 18.6389V17.3747C21.4141 17.1711 21.9023 16.8657 22.3281 16.4712L23.3359 17.1033C23.4492 17.1754 23.5977 17.1499 23.6875 17.0439C24.2734 16.3567 24.7227 15.5252 24.9844 14.609C25.0234 14.469 24.9688 14.3205 24.8555 14.2484L23.8477 13.6163ZM19.375 14.7701C18.3281 14.7701 17.4805 13.8454 17.4805 12.7128C17.4805 11.5802 18.332 10.6554 19.375 10.6554C20.418 10.6554 21.2695 11.5802 21.2695 12.7128C21.2695 13.8454 20.4219 14.7701 19.375 14.7701ZM3.75 8.64043C5.12891 8.64043 6.25 7.42297 6.25 5.92554C6.25 4.42811 5.12891 3.21065 3.75 3.21065C2.37109 3.21065 1.25 4.42811 1.25 5.92554C1.25 7.42297 2.37109 8.64043 3.75 8.64043ZM12.5 9.99788C12.5742 9.99788 12.6445 9.97667 12.7188 9.97243C13.043 9.05191 13.5195 8.18654 14.1367 7.46115C14.4258 7.12179 14.8359 6.92666 15.2656 6.92666C15.5352 6.92666 15.8008 7.00301 16.0312 7.15148L16.3398 7.34662C16.3711 7.32541 16.4023 7.30844 16.4336 7.28723C16.707 6.66789 16.8711 5.98069 16.8711 5.25106C16.8711 2.62525 14.9141 0.5 12.4961 0.5C10.0781 0.5 8.125 2.62101 8.125 5.24682C8.125 7.87263 10.082 9.99788 12.5 9.99788ZM16.6094 18.2486C16.5195 18.1977 16.4297 18.1383 16.3438 18.0832C16.0234 18.2868 15.7461 18.4989 15.2695 18.4989C14.8438 18.4989 14.4336 18.3037 14.1406 17.9644C13.4258 17.1245 12.8789 16.1021 12.5703 15.0119C12.1523 13.5484 13.543 12.9037 13.5781 12.8782C13.5742 12.7679 13.5742 12.6576 13.5781 12.5473L13.2695 12.3522C13.1211 12.2589 12.9961 12.1401 12.8867 12.0086C12.7578 12.0171 12.6328 12.034 12.5039 12.034C11.543 12.034 10.6445 11.7795 9.82812 11.3553H9.50391C7.01562 11.3553 5 13.5442 5 16.2421V17.4638C5 18.588 5.83984 19.5 6.875 19.5H16.8516C16.707 19.2455 16.6094 18.957 16.6094 18.6389V18.2486ZM6.76172 10.7869C6.30859 10.2991 5.6875 9.99788 5 9.99788H2.5C1.12109 9.99788 0 11.2153 0 12.7128V14.0702C0 14.8211 0.558594 15.4277 1.25 15.4277H3.82422C4.07031 13.4169 5.1875 11.7244 6.76172 10.7869Z" fill="white"/>
</svg>
