<svg width="25" height="22" viewBox="0 0 25 22" fill="none" xmlns="http://www.w3.org/2000/svg">
<g id="17-transfer">
<g id="Glyph">
<path id="Vector" d="M5.2085 20.1673C5.20915 20.6534 5.42885 21.1194 5.81941 21.463C6.20997 21.8067 6.7395 22.0001 7.29183 22.0007H17.7085C18.2608 22.0001 18.7904 21.8067 19.1809 21.463C19.5715 21.1194 19.7912 20.6534 19.7918 20.1673V19.3652H5.2085V20.1673Z" fill="white"/>
<path id="Vector_2" d="M19.7918 1.83333C19.7912 1.34728 19.5715 0.881299 19.1809 0.537607C18.7904 0.193915 18.2608 0.000576163 17.7085 0L7.29183 0C6.7395 0.000576163 6.20997 0.193915 5.81941 0.537607C5.42885 0.881299 5.20915 1.34728 5.2085 1.83333V2.75H19.7918V1.83333Z" fill="white"/>
<path id="Vector_3" d="M24.7096 5.89583L21.5846 3.03125L20.0817 4.30083L21.3892 5.49938H19.7915V7.33271H21.5015L20.1125 8.50421L21.5539 9.82788L24.6789 7.19246C24.7777 7.10912 24.8569 7.00947 24.9119 6.89919C24.9669 6.78891 24.9967 6.67017 24.9996 6.54975C25.0024 6.42933 24.9783 6.3096 24.9285 6.1974C24.8788 6.0852 24.8044 5.98272 24.7096 5.89583Z" fill="white"/>
<path id="Vector_4" d="M16.6668 5.49935H19.7918V3.66602H5.2085V14.666H8.3335V16.4994H5.2085V18.3327H19.7918V7.33268H16.6668V5.49935ZM15.6252 9.16602H11.9793C11.8412 9.16602 11.7087 9.2143 11.611 9.30026C11.5134 9.38621 11.4585 9.50279 11.4585 9.62435C11.4585 9.74591 11.5134 9.86249 11.611 9.94844C11.7087 10.0344 11.8412 10.0827 11.9793 10.0827H13.021C13.6668 10.0821 14.2898 10.2927 14.7691 10.6736C15.2484 11.0546 15.5497 11.5786 15.6146 12.144C15.6795 12.7095 15.5033 13.276 15.1203 13.7335C14.7373 14.1911 14.1747 14.5071 13.5418 14.6202V15.5827H11.4585V14.666H9.37516V12.8327H13.021C13.1591 12.8327 13.2916 12.7844 13.3893 12.6984C13.487 12.6125 13.5418 12.4959 13.5418 12.3744C13.5418 12.2528 13.487 12.1362 13.3893 12.0503C13.2916 11.9643 13.1591 11.916 13.021 11.916H11.9793C11.3335 11.9166 10.7105 11.706 10.2312 11.3251C9.75197 10.9441 9.45063 10.4201 9.38573 9.85466C9.32083 9.28923 9.49699 8.72274 9.88001 8.26517C10.263 7.80761 10.8256 7.49161 11.4585 7.37852V6.41602H13.5418V7.33268H15.6252V9.16602Z" fill="white"/>
<path id="Vector_5" d="M3.49828 14.667L4.88734 13.4955L3.44593 12.1719L0.320931 14.8073C0.222115 14.8906 0.142929 14.9903 0.0879011 15.1006C0.0328728 15.2108 0.00308028 15.3296 0.000226477 15.45C-0.00262733 15.5704 0.0215135 15.6901 0.0712692 15.8024C0.121025 15.9146 0.19542 16.017 0.290202 16.1039L3.4152 18.9685L4.91807 17.6989L3.61064 16.5004H5.2083V14.667H3.49828Z" fill="white"/>
</g>
</g>
</svg>
