<svg width="25" height="26" viewBox="0 0 25 26" fill="none" xmlns="http://www.w3.org/2000/svg">
<g id="Group">
<g id="Group_2">
<path id="Vector" d="M24.505 18.064L23.0047 17.3555C22.7963 17.2305 22.5046 17.2305 22.2962 17.3555L13.336 21.6064C12.8359 21.8564 12.2108 21.8564 11.7107 21.6064L2.70888 17.3555C2.50051 17.2305 2.20878 17.2305 2.00041 17.3555L0.500102 18.064C-0.166701 18.3974 -0.166701 19.2725 0.500102 19.6059L11.669 24.8987C12.1691 25.1487 12.7943 25.1487 13.2944 24.8987L24.4633 19.6059C25.1718 19.2725 25.1718 18.3557 24.505 18.064Z" fill="white"/>
</g>
<g id="Group_3">
<path id="Vector_2" d="M24.505 12.228L22.963 11.5196C22.7546 11.3945 22.4629 11.3945 22.2545 11.5196L13.336 15.7704C12.8359 16.0205 12.2108 16.0205 11.7107 15.7704L2.75056 11.5196C2.54218 11.3945 2.25046 11.3945 2.04208 11.5196L0.500102 12.228C-0.166701 12.5614 -0.166701 13.4366 0.500102 13.77L11.669 19.1044C12.1691 19.3545 12.7943 19.3545 13.2944 19.1044L24.4633 13.8117C25.1718 13.4783 25.1718 12.5614 24.505 12.228Z" fill="white"/>
</g>
<g id="Group_4">
<path id="Vector_3" d="M0.500102 7.93633L11.669 13.2291C12.1691 13.4791 12.7943 13.4791 13.2944 13.2291L24.4633 7.93633C25.1301 7.60292 25.1301 6.72775 24.4633 6.39434L13.2944 1.1016C12.7943 0.85155 12.1691 0.85155 11.669 1.1016L0.500102 6.43602C-0.166701 6.72775 -0.166701 7.6446 0.500102 7.93633Z" fill="white"/>
</g>
</g>
</svg>
