<svg width="26" height="25" viewBox="0 0 26 25" fill="none" xmlns="http://www.w3.org/2000/svg">
<path id="Vector" d="M0.333008 12.5C0.333008 10.8167 0.666341 9.2 1.33301 7.65C1.99967 6.1 2.88301 4.76667 3.98301 3.65C5.08301 2.53333 6.41634 1.65 7.98301 1C9.54967 0.35 11.1663 0.0166667 12.833 0C14.533 0 16.158 0.333333 17.708 1C19.258 1.66667 20.583 2.55 21.683 3.65C22.783 4.75 23.6663 6.08333 24.333 7.65C24.9997 9.21667 25.333 10.8333 25.333 12.5C25.333 14.2 24.9997 15.8167 24.333 17.35C23.6663 18.8833 22.783 20.2167 21.683 21.35C20.583 22.4833 19.2497 23.375 17.683 24.025C16.1163 24.675 14.4997 25 12.833 25C11.1663 25 9.54967 24.675 7.98301 24.025C6.41634 23.375 5.08301 22.4833 3.98301 21.35C2.88301 20.2167 1.99967 18.8833 1.33301 17.35C0.666341 15.8167 0.333008 14.2 0.333008 12.5ZM3.45801 12.5C3.45801 14.2 3.87467 15.775 4.70801 17.225C5.54134 18.675 6.68301 19.8083 8.13301 20.625C9.58301 21.4417 11.1497 21.8583 12.833 21.875C14.5163 21.8917 16.083 21.475 17.533 20.625C18.983 19.775 20.1247 18.6417 20.958 17.225C21.7913 15.8083 22.208 14.2333 22.208 12.5C22.208 10.7667 21.7913 9.2 20.958 7.8C20.1247 6.4 18.983 5.26667 17.533 4.4C16.083 3.53333 14.5163 3.10833 12.833 3.125C11.1497 3.14167 9.58301 3.56667 8.13301 4.4C6.68301 5.23333 5.54134 6.36667 4.70801 7.8C3.87467 9.23333 3.45801 10.8 3.45801 12.5ZM6.58301 12.5C6.58301 12.0667 6.73301 11.7 7.03301 11.4C7.33301 11.1 7.70801 10.95 8.15801 10.95H12.833V9.375C12.833 9.05833 12.9247 8.775 13.108 8.525C13.2913 8.275 13.5247 8.08333 13.808 7.95C14.0913 7.81667 14.3913 7.78333 14.708 7.85C15.0247 7.91667 15.2913 8.05833 15.508 8.275L18.633 11.4C18.933 11.7 19.083 12.0667 19.083 12.5C19.083 12.9333 18.933 13.3 18.633 13.6L15.508 16.725C15.2747 16.9583 15.008 17.1083 14.708 17.175C14.408 17.2417 14.108 17.2083 13.808 17.075C13.508 16.9583 13.2747 16.7667 13.108 16.5C12.9413 16.2333 12.8497 15.9417 12.833 15.625V14.075H8.15801C7.72467 14.075 7.34967 13.925 7.03301 13.625C6.71634 13.325 6.56634 12.95 6.58301 12.5Z" fill="#675A41"/>
</svg>
