<svg width="26" height="26" viewBox="0 0 26 26" fill="none" xmlns="http://www.w3.org/2000/svg">
<path id="Vector" d="M0.333496 13C0.333496 11.3167 0.666829 9.7 1.3335 8.15C2.00016 6.6 2.8835 5.26667 3.9835 4.15C5.0835 3.03333 6.41683 2.15 7.9835 1.5C9.55016 0.85 11.1668 0.516667 12.8335 0.5C14.5335 0.5 16.1585 0.833333 17.7085 1.5C19.2585 2.16667 20.5835 3.05 21.6835 4.15C22.7835 5.25 23.6668 6.58333 24.3335 8.15C25.0002 9.71667 25.3335 11.3333 25.3335 13C25.3335 14.7 25.0002 16.3167 24.3335 17.85C23.6668 19.3833 22.7835 20.7167 21.6835 21.85C20.5835 22.9833 19.2502 23.875 17.6835 24.525C16.1168 25.175 14.5002 25.5 12.8335 25.5C11.1668 25.5 9.55016 25.175 7.9835 24.525C6.41683 23.875 5.0835 22.9833 3.9835 21.85C2.8835 20.7167 2.00016 19.3833 1.3335 17.85C0.666829 16.3167 0.333496 14.7 0.333496 13ZM3.4585 13C3.4585 14.7 3.87516 16.275 4.7085 17.725C5.54183 19.175 6.6835 20.3083 8.1335 21.125C9.5835 21.9417 11.1502 22.3583 12.8335 22.375C14.5168 22.3917 16.0835 21.975 17.5335 21.125C18.9835 20.275 20.1252 19.1417 20.9585 17.725C21.7918 16.3083 22.2085 14.7333 22.2085 13C22.2085 11.2667 21.7918 9.7 20.9585 8.3C20.1252 6.9 18.9835 5.76667 17.5335 4.9C16.0835 4.03333 14.5168 3.60833 12.8335 3.625C11.1502 3.64167 9.5835 4.06667 8.1335 4.9C6.6835 5.73333 5.54183 6.86667 4.7085 8.3C3.87516 9.73333 3.4585 11.3 3.4585 13ZM6.5835 13C6.5835 12.5667 6.7335 12.2 7.0335 11.9C7.3335 11.6 7.7085 11.45 8.1585 11.45H12.8335V9.875C12.8335 9.55833 12.9252 9.275 13.1085 9.025C13.2918 8.775 13.5252 8.58333 13.8085 8.45C14.0918 8.31667 14.3918 8.28333 14.7085 8.35C15.0252 8.41667 15.2918 8.55833 15.5085 8.775L18.6335 11.9C18.9335 12.2 19.0835 12.5667 19.0835 13C19.0835 13.4333 18.9335 13.8 18.6335 14.1L15.5085 17.225C15.2752 17.4583 15.0085 17.6083 14.7085 17.675C14.4085 17.7417 14.1085 17.7083 13.8085 17.575C13.5085 17.4583 13.2752 17.2667 13.1085 17C12.9418 16.7333 12.8502 16.4417 12.8335 16.125V14.575H8.1585C7.72516 14.575 7.35016 14.425 7.0335 14.125C6.71683 13.825 6.56683 13.45 6.5835 13Z" fill="#764AD7"/>
</svg>
