<svg width="26" height="26" viewBox="0 0 26 26" fill="none" xmlns="http://www.w3.org/2000/svg">
<path id="Vector" d="M0.666504 13.3887C0.666504 11.7053 0.999837 10.0887 1.6665 8.53867C2.33317 6.98867 3.2165 5.65534 4.3165 4.53867C5.4165 3.42201 6.74984 2.53867 8.3165 1.88867C9.88317 1.23867 11.4998 0.905339 13.1665 0.888672C14.8665 0.888672 16.4915 1.22201 18.0415 1.88867C19.5915 2.55534 20.9165 3.43867 22.0165 4.53867C23.1165 5.63867 23.9998 6.972 24.6665 8.53867C25.3332 10.1053 25.6665 11.722 25.6665 13.3887C25.6665 15.0887 25.3332 16.7053 24.6665 18.2387C23.9998 19.772 23.1165 21.1053 22.0165 22.2387C20.9165 23.372 19.5832 24.2637 18.0165 24.9137C16.4498 25.5637 14.8332 25.8887 13.1665 25.8887C11.4998 25.8887 9.88317 25.5637 8.3165 24.9137C6.74984 24.2637 5.4165 23.372 4.3165 22.2387C3.2165 21.1053 2.33317 19.772 1.6665 18.2387C0.999837 16.7053 0.666504 15.0887 0.666504 13.3887ZM3.7915 13.3887C3.7915 15.0887 4.20817 16.6637 5.0415 18.1137C5.87484 19.5637 7.0165 20.697 8.4665 21.5137C9.9165 22.3303 11.4832 22.747 13.1665 22.7637C14.8498 22.7803 16.4165 22.3637 17.8665 21.5137C19.3165 20.6637 20.4582 19.5303 21.2915 18.1137C22.1248 16.697 22.5415 15.122 22.5415 13.3887C22.5415 11.6553 22.1248 10.0887 21.2915 8.68867C20.4582 7.28867 19.3165 6.15534 17.8665 5.28867C16.4165 4.42201 14.8498 3.99701 13.1665 4.01367C11.4832 4.03034 9.9165 4.45534 8.4665 5.28867C7.0165 6.12201 5.87484 7.25534 5.0415 8.68867C4.20817 10.122 3.7915 11.6887 3.7915 13.3887ZM6.9165 13.3887C6.9165 12.9553 7.0665 12.5887 7.3665 12.2887C7.6665 11.9887 8.0415 11.8387 8.4915 11.8387H13.1665V10.2637C13.1665 9.94701 13.2582 9.66367 13.4415 9.41367C13.6248 9.16367 13.8582 8.972 14.1415 8.83867C14.4248 8.70534 14.7248 8.67201 15.0415 8.73867C15.3582 8.80534 15.6248 8.94701 15.8415 9.16367L18.9665 12.2887C19.2665 12.5887 19.4165 12.9553 19.4165 13.3887C19.4165 13.822 19.2665 14.1887 18.9665 14.4887L15.8415 17.6137C15.6082 17.847 15.3415 17.997 15.0415 18.0637C14.7415 18.1303 14.4415 18.097 14.1415 17.9637C13.8415 17.847 13.6082 17.6553 13.4415 17.3887C13.2748 17.122 13.1832 16.8303 13.1665 16.5137V14.9637H8.4915C8.05817 14.9637 7.68317 14.8137 7.3665 14.5137C7.04984 14.2137 6.89984 13.8387 6.9165 13.3887Z" fill="#077EF0"/>
</svg>
