<svg width="25" height="25" viewBox="0 0 25 25" fill="none" xmlns="http://www.w3.org/2000/svg">
<path d="M0 12.5C0 10.8167 0.333333 9.2 1 7.65C1.66667 6.1 2.55 4.76667 3.65 3.65C4.75 2.53333 6.08333 1.65 7.65 1C9.21667 0.35 10.8333 0.0166667 12.5 0C14.2 0 15.825 0.333333 17.375 1C18.925 1.66667 20.25 2.55 21.35 3.65C22.45 4.75 23.3333 6.08333 24 7.65C24.6667 9.21667 25 10.8333 25 12.5C25 14.2 24.6667 15.8167 24 17.35C23.3333 18.8833 22.45 20.2167 21.35 21.35C20.25 22.4833 18.9167 23.375 17.35 24.025C15.7833 24.675 14.1667 25 12.5 25C10.8333 25 9.21667 24.675 7.65 24.025C6.08333 23.375 4.75 22.4833 3.65 21.35C2.55 20.2167 1.66667 18.8833 1 17.35C0.333333 15.8167 0 14.2 0 12.5ZM3.125 12.5C3.125 14.2 3.54167 15.775 4.375 17.225C5.20833 18.675 6.35 19.8083 7.8 20.625C9.25 21.4417 10.8167 21.8583 12.5 21.875C14.1833 21.8917 15.75 21.475 17.2 20.625C18.65 19.775 19.7917 18.6417 20.625 17.225C21.4583 15.8083 21.875 14.2333 21.875 12.5C21.875 10.7667 21.4583 9.2 20.625 7.8C19.7917 6.4 18.65 5.26667 17.2 4.4C15.75 3.53333 14.1833 3.10833 12.5 3.125C10.8167 3.14167 9.25 3.56667 7.8 4.4C6.35 5.23333 5.20833 6.36667 4.375 7.8C3.54167 9.23333 3.125 10.8 3.125 12.5ZM6.25 12.5C6.25 12.0667 6.4 11.7 6.7 11.4C7 11.1 7.375 10.95 7.825 10.95H12.5V9.375C12.5 9.05833 12.5917 8.775 12.775 8.525C12.9583 8.275 13.1917 8.08333 13.475 7.95C13.7583 7.81667 14.0583 7.78333 14.375 7.85C14.6917 7.91667 14.9583 8.05833 15.175 8.275L18.3 11.4C18.6 11.7 18.75 12.0667 18.75 12.5C18.75 12.9333 18.6 13.3 18.3 13.6L15.175 16.725C14.9417 16.9583 14.675 17.1083 14.375 17.175C14.075 17.2417 13.775 17.2083 13.475 17.075C13.175 16.9583 12.9417 16.7667 12.775 16.5C12.6083 16.2333 12.5167 15.9417 12.5 15.625V14.075H7.825C7.39167 14.075 7.01667 13.925 6.7 13.625C6.38333 13.325 6.23333 12.95 6.25 12.5Z" fill="#E64444"/>
</svg>
