<svg width="25" height="26" viewBox="0 0 25 26" fill="none" xmlns="http://www.w3.org/2000/svg">
<path id="Vector" d="M0 13C0 11.3167 0.333333 9.7 1 8.15C1.66667 6.6 2.55 5.26667 3.65 4.15C4.75 3.03333 6.08333 2.15 7.65 1.5C9.21667 0.85 10.8333 0.516667 12.5 0.5C14.2 0.5 15.825 0.833333 17.375 1.5C18.925 2.16667 20.25 3.05 21.35 4.15C22.45 5.25 23.3333 6.58333 24 8.15C24.6667 9.71667 25 11.3333 25 13C25 14.7 24.6667 16.3167 24 17.85C23.3333 19.3833 22.45 20.7167 21.35 21.85C20.25 22.9833 18.9167 23.875 17.35 24.525C15.7833 25.175 14.1667 25.5 12.5 25.5C10.8333 25.5 9.21667 25.175 7.65 24.525C6.08333 23.875 4.75 22.9833 3.65 21.85C2.55 20.7167 1.66667 19.3833 1 17.85C0.333333 16.3167 0 14.7 0 13ZM3.125 13C3.125 14.7 3.54167 16.275 4.375 17.725C5.20833 19.175 6.35 20.3083 7.8 21.125C9.25 21.9417 10.8167 22.3583 12.5 22.375C14.1833 22.3917 15.75 21.975 17.2 21.125C18.65 20.275 19.7917 19.1417 20.625 17.725C21.4583 16.3083 21.875 14.7333 21.875 13C21.875 11.2667 21.4583 9.7 20.625 8.3C19.7917 6.9 18.65 5.76667 17.2 4.9C15.75 4.03333 14.1833 3.60833 12.5 3.625C10.8167 3.64167 9.25 4.06667 7.8 4.9C6.35 5.73333 5.20833 6.86667 4.375 8.3C3.54167 9.73333 3.125 11.3 3.125 13ZM6.25 13C6.25 12.5667 6.4 12.2 6.7 11.9C7 11.6 7.375 11.45 7.825 11.45H12.5V9.875C12.5 9.55833 12.5917 9.275 12.775 9.025C12.9583 8.775 13.1917 8.58333 13.475 8.45C13.7583 8.31667 14.0583 8.28333 14.375 8.35C14.6917 8.41667 14.9583 8.55833 15.175 8.775L18.3 11.9C18.6 12.2 18.75 12.5667 18.75 13C18.75 13.4333 18.6 13.8 18.3 14.1L15.175 17.225C14.9417 17.4583 14.675 17.6083 14.375 17.675C14.075 17.7417 13.775 17.7083 13.475 17.575C13.175 17.4583 12.9417 17.2667 12.775 17C12.6083 16.7333 12.5167 16.4417 12.5 16.125V14.575H7.825C7.39167 14.575 7.01667 14.425 6.7 14.125C6.38333 13.825 6.23333 13.45 6.25 13Z" fill="#DCB012"/>
</svg>
