<svg width="26" height="26" viewBox="0 0 26 26" fill="none" xmlns="http://www.w3.org/2000/svg">
<path id="Vector" d="M0.666992 12.7612C0.666992 11.0779 1.00033 9.46123 1.66699 7.91123C2.33366 6.36123 3.21699 5.0279 4.31699 3.91123C5.41699 2.79456 6.75033 1.91123 8.31699 1.26123C9.88366 0.61123 11.5003 0.277897 13.167 0.26123C14.867 0.26123 16.492 0.594564 18.042 1.26123C19.592 1.9279 20.917 2.81123 22.017 3.91123C23.117 5.01123 24.0003 6.34456 24.667 7.91123C25.3337 9.4779 25.667 11.0946 25.667 12.7612C25.667 14.4612 25.3337 16.0779 24.667 17.6112C24.0003 19.1446 23.117 20.4779 22.017 21.6112C20.917 22.7446 19.5837 23.6362 18.017 24.2862C16.4503 24.9362 14.8337 25.2612 13.167 25.2612C11.5003 25.2612 9.88366 24.9362 8.31699 24.2862C6.75033 23.6362 5.41699 22.7446 4.31699 21.6112C3.21699 20.4779 2.33366 19.1446 1.66699 17.6112C1.00033 16.0779 0.666992 14.4612 0.666992 12.7612ZM3.79199 12.7612C3.79199 14.4612 4.20866 16.0362 5.04199 17.4862C5.87533 18.9362 7.01699 20.0696 8.46699 20.8862C9.91699 21.7029 11.4837 22.1196 13.167 22.1362C14.8503 22.1529 16.417 21.7362 17.867 20.8862C19.317 20.0362 20.4587 18.9029 21.292 17.4862C22.1253 16.0696 22.542 14.4946 22.542 12.7612C22.542 11.0279 22.1253 9.46123 21.292 8.06123C20.4587 6.66123 19.317 5.5279 17.867 4.66123C16.417 3.79456 14.8503 3.36956 13.167 3.38623C11.4837 3.4029 9.91699 3.8279 8.46699 4.66123C7.01699 5.49456 5.87533 6.6279 5.04199 8.06123C4.20866 9.49456 3.79199 11.0612 3.79199 12.7612ZM6.91699 12.7612C6.91699 12.3279 7.06699 11.9612 7.36699 11.6612C7.66699 11.3612 8.04199 11.2112 8.49199 11.2112H13.167V9.63623C13.167 9.31956 13.2587 9.03623 13.442 8.78623C13.6253 8.53623 13.8587 8.34456 14.142 8.21123C14.4253 8.0779 14.7253 8.04456 15.042 8.11123C15.3587 8.1779 15.6253 8.31956 15.842 8.53623L18.967 11.6612C19.267 11.9612 19.417 12.3279 19.417 12.7612C19.417 13.1946 19.267 13.5612 18.967 13.8612L15.842 16.9862C15.6087 17.2196 15.342 17.3696 15.042 17.4362C14.742 17.5029 14.442 17.4696 14.142 17.3362C13.842 17.2196 13.6087 17.0279 13.442 16.7612C13.2753 16.4946 13.1837 16.2029 13.167 15.8862V14.3362H8.49199C8.05866 14.3362 7.68366 14.1862 7.36699 13.8862C7.05033 13.5862 6.90033 13.2112 6.91699 12.7612Z" fill="#4AD7D7"/>
</svg>
