<svg width="31" height="31" viewBox="0 0 31 31" fill="none" xmlns="http://www.w3.org/2000/svg">
<g id="Group 12074">
<path id="Vector" d="M15.3041 14.6677C16.6329 14.6695 17.9324 14.2771 19.0381 13.5401C20.1439 12.8032 21.0062 11.7548 21.5159 10.5276C22.0257 9.30049 22.16 7.94971 21.9018 6.64621C21.6437 5.34271 21.0047 4.14507 20.0657 3.20483C19.1267 2.26459 17.9299 1.62399 16.6268 1.3641C15.3236 1.1042 13.9727 1.23669 12.7448 1.74479C11.517 2.25289 10.4675 3.11378 9.72903 4.21852C8.99059 5.32327 8.59644 6.62222 8.59644 7.95104C8.59643 9.73085 9.30284 11.4379 10.5605 12.6973C11.8182 13.9566 13.5243 14.6653 15.3041 14.6677ZM15.3057 3.8927C16.1073 3.89124 16.8914 4.12771 17.5585 4.57216C18.2257 5.01662 18.7459 5.64906 19.0534 6.38941C19.3608 7.12975 19.4417 7.94468 19.2856 8.731C19.1296 9.51731 18.7437 10.2396 18.1769 10.8065C17.61 11.3733 16.8877 11.7592 16.1014 11.9152C15.3151 12.0713 14.5001 11.9904 13.7598 11.683C13.0195 11.3755 12.387 10.8553 11.9426 10.1881C11.4981 9.52098 11.2616 8.73693 11.2631 7.93529C11.2651 6.86373 11.6916 5.83662 12.4493 5.07892C13.207 4.32121 14.2341 3.89467 15.3057 3.8927Z" fill="black" stroke="black"/>
<path id="Vector_2" d="M23.9545 17.568C21.3672 15.9384 18.3659 15.0873 15.3085 15.1161C13.069 15.0603 10.8446 15.4986 8.79365 16.3999C6.73996 17.3024 4.91065 18.6469 3.43616 20.3375L3.42678 20.3482L3.41802 20.3595C3.24016 20.5886 3.14185 20.8695 3.13802 21.1595L3.13798 21.1595V21.1661V26.5687C3.12529 27.1525 3.34349 27.7178 3.74532 28.1417C4.14867 28.5673 4.70417 28.8157 5.29023 28.8326L5.29743 28.8328H5.30464H15.6296H16.7943L15.9921 27.9884L14.4088 26.3217L14.2631 26.1684L14.0516 26.1661L5.80464 26.0797V21.6767C7.01581 20.444 8.46213 19.4658 10.0586 18.8006C11.7162 18.11 13.4993 17.7718 15.2947 17.8077L15.303 17.8078L15.3114 17.8077C17.7714 17.7746 20.1926 18.4223 22.3075 19.6793L22.6614 19.8896L22.9357 19.5827L24.0607 18.3244L24.455 17.8833L23.9545 17.568Z" fill="black" stroke="black"/>
<path id="Vector_3" d="M24.8047 23.6923V26.1673L25.3047 28.334C25.7527 28.3209 26.1778 28.1332 26.4893 27.8109C26.8007 27.4885 26.9737 27.0572 26.9714 26.609H27.4714V26.6078V21.834V20.5276L26.5991 21.5001L24.9325 23.3585L24.8047 23.5009V23.6923Z" fill="black" stroke="black"/>
<path id="Vector_4" d="M29.612 15.1497L29.6121 15.1496L29.6037 15.1421C29.3401 14.9074 28.9941 14.7868 28.6417 14.8068C28.2893 14.8268 27.9592 14.9858 27.7237 15.2488L27.7235 15.249L18.4056 25.6735L14.452 21.4234C14.3396 21.2944 14.2035 21.1881 14.0508 21.1104L13.8272 21.55L14.0508 21.1104C13.8948 21.031 13.7246 20.9832 13.55 20.9696C13.3754 20.9559 13.1999 20.9768 13.0334 21.0311C12.8669 21.0853 12.7127 21.1718 12.5796 21.2856L12.5738 21.2906L12.5682 21.2957C12.4378 21.4143 12.3323 21.5575 12.2576 21.7172C12.183 21.8768 12.1407 22.0496 12.1333 22.2257C12.1258 22.4018 12.1534 22.5775 12.2143 22.7429C12.2752 22.9083 12.3683 23.0599 12.4882 23.1891L12.4883 23.1892L18.0633 29.1892L18.4365 29.5908L18.8021 29.1824L29.7105 16.9991L29.7106 16.9992L29.7187 16.9897C29.9412 16.7282 30.0544 16.391 30.0345 16.0483C30.0146 15.7055 29.8633 15.3836 29.612 15.1497Z" fill="black" stroke="black"/>
</g>
</svg>
