<svg width="24" height="24" viewBox="0 0 24 24" fill="none" xmlns="http://www.w3.org/2000/svg">
<g id="mingcute:settings-6-fill" clip-path="url(#clip0_6604_8702)">
<g id="Group">
<path id="Vector" d="M8.97997 15.8121C8.97997 17.0531 8.18652 18.1097 7.07949 18.5012L7.07949 19.613C7.07949 19.865 6.97938 20.1067 6.80118 20.2849C6.62297 20.4631 6.38128 20.5632 6.12926 20.5632C5.87724 20.5632 5.63554 20.4631 5.45734 20.2849C5.27913 20.1067 5.17902 19.865 5.17902 19.613L5.17902 18.5012C4.62262 18.3049 4.14082 17.9408 3.80003 17.4592C3.45923 16.9776 3.27622 16.4021 3.27622 15.8121C3.27622 15.222 3.45923 14.6466 3.80003 14.1649C4.14082 13.6833 4.62262 13.3192 5.17902 13.1229L5.17902 4.40922C5.17902 4.1572 5.27913 3.91551 5.45734 3.7373C5.63554 3.5591 5.87724 3.45898 6.12926 3.45898C6.38128 3.45898 6.62297 3.5591 6.80118 3.7373C6.97938 3.91551 7.07949 4.1572 7.07949 4.40922L7.07949 13.1229C7.63545 13.3196 8.11675 13.6838 8.45711 14.1654C8.79747 14.647 8.98014 15.2223 8.97997 15.8121ZM14.6814 8.21017C14.6815 8.76985 14.5168 9.31717 14.2079 9.78389C13.899 10.2506 13.4596 10.6161 12.9444 10.8347L12.7809 10.8984L12.7809 19.613C12.7806 19.8552 12.6879 20.0882 12.5216 20.2643C12.3554 20.4404 12.1281 20.5464 11.8864 20.5606C11.6446 20.5748 11.4065 20.4961 11.2208 20.3406C11.0351 20.1852 10.9157 19.9647 10.8871 19.7242L10.8804 19.613L10.8804 10.8993C10.3385 10.7078 9.86717 10.3569 9.52814 9.89278C9.18911 9.42865 8.99825 8.8729 8.98057 8.2984C8.9629 7.7239 9.11925 7.15747 9.42911 6.67338C9.73898 6.18928 10.1879 5.81013 10.717 5.58561L10.8804 5.521L10.8804 4.40922C10.8807 4.16702 10.9735 3.93407 11.1397 3.75796C11.306 3.58185 11.5332 3.47586 11.775 3.46167C12.0168 3.44748 12.2548 3.52614 12.4406 3.68159C12.6263 3.83704 12.7457 4.05754 12.7743 4.29804L12.7809 4.40922L12.7809 5.521C13.3369 5.71771 13.8182 6.08194 14.1585 6.56355C14.4989 7.04515 14.6816 7.62044 14.6814 8.21017ZM20.3828 15.8121C20.3828 17.0531 19.5894 18.1097 18.4823 18.5012L18.4823 19.613C18.4823 19.865 18.3822 20.1067 18.204 20.2849C18.0258 20.4631 17.7841 20.5632 17.5321 20.5632C17.2801 20.5632 17.0384 20.4631 16.8602 20.2849C16.682 20.1067 16.5819 19.865 16.5819 19.613L16.5819 18.5012C16.0255 18.3049 15.5437 17.9408 15.2029 17.4592C14.8621 16.9776 14.6791 16.4021 14.6791 15.8121C14.6791 15.2221 14.8621 14.6466 15.2029 14.1649C15.5437 13.6833 16.0255 13.3192 16.5819 13.1229L16.5819 4.40922C16.5819 4.1572 16.682 3.91551 16.8602 3.7373C17.0384 3.5591 17.2801 3.45898 17.5321 3.45898C17.7841 3.45898 18.0258 3.5591 18.204 3.7373C18.3822 3.91551 18.4823 4.1572 18.4823 4.40922L18.4823 13.1229C19.0383 13.3196 19.5196 13.6838 19.86 14.1654C20.2003 14.647 20.383 15.2223 20.3828 15.8121Z" fill="#4D4D4D"/>
</g>
</g>
<defs>
<clipPath id="clip0_6604_8702">
<rect width="22.8057" height="22.8057" fill="white" transform="translate(23.2363 0.607422) rotate(90)"/>
</clipPath>
</defs>
</svg>
