<svg width="61" height="60" viewBox="0 0 61 60" fill="none" xmlns="http://www.w3.org/2000/svg">
<path id="Vector" d="M30.5001 0C47.0687 0 60.5 13.4315 60.5 30.0001C60.5 46.5686 47.0687 60 30.5001 60C13.9315 60 0.5 46.5686 0.5 30.0001C0.5 13.4315 13.9315 0 30.5001 0ZM30.4887 24.7479C28.9502 24.7491 27.6832 25.9078 27.511 27.3998L27.4909 27.7495L27.5017 44.2518L27.5221 44.6015C27.6964 46.0932 28.9652 47.2504 30.5034 47.2492C32.0416 47.2483 33.3086 46.0896 33.481 44.5976L33.5008 44.2479L33.49 27.7456L33.4696 27.3959C33.2954 25.9042 32.0269 24.747 30.4887 24.7479ZM30.5013 13.501C28.428 13.501 26.7474 15.1817 26.7474 17.255C26.7474 19.3283 28.428 21.009 30.5013 21.009C32.5746 21.009 34.2555 19.3283 34.2555 17.255C34.2555 15.1817 32.5746 13.501 30.5013 13.501Z" fill="#FF2C2C"/>
</svg>
