<svg width="25" height="24" viewBox="0 0 25 24" fill="none" xmlns="http://www.w3.org/2000/svg">
<path id="Star 1" d="M12.5 2.54509L14.3982 8.38729C14.666 9.21133 15.4339 9.76925 16.3004 9.76925L22.4432 9.76925L17.4735 13.3799C16.7726 13.8892 16.4793 14.792 16.747 15.616L17.9358 15.2297L16.747 15.616L18.6452 21.4582L13.6756 17.8475C12.9746 17.3382 12.0254 17.3382 11.3244 17.8475L6.35476 21.4582L8.253 15.616C8.52075 14.792 8.22743 13.8892 7.52646 13.3799L6.79173 14.3912L7.52646 13.3799L2.55679 9.76925L8.69964 9.76925C9.5661 9.76925 10.334 9.21133 10.6018 8.38729L12.5 2.54509Z" stroke="#DCB012" stroke-width="2.5"/>
</svg>
