<svg width="24" height="25" viewBox="0 0 24 25" fill="none" xmlns="http://www.w3.org/2000/svg">
<g id="Actions  / Search">
<path id="Vector" d="M15.8839 14.6161C15.3957 14.128 14.6043 14.128 14.1161 14.6161C13.628 15.1043 13.628 15.8957 14.1161 16.3839L15.8839 14.6161ZM20.1161 22.3839C20.6043 22.872 21.3957 22.872 21.8839 22.3839C22.372 21.8957 22.372 21.1043 21.8839 20.6161L20.1161 22.3839ZM10 16.25C6.82436 16.25 4.25 13.6756 4.25 10.5H1.75C1.75 15.0563 5.44365 18.75 10 18.75V16.25ZM4.25 10.5C4.25 7.32436 6.82436 4.75 10 4.75V2.25C5.44365 2.25 1.75 5.94365 1.75 10.5H4.25ZM10 4.75C13.1756 4.75 15.75 7.32436 15.75 10.5H18.25C18.25 5.94365 14.5563 2.25 10 2.25V4.75ZM15.75 10.5C15.75 13.6756 13.1756 16.25 10 16.25V18.75C14.5563 18.75 18.25 15.0563 18.25 10.5H15.75ZM14.1161 16.3839L20.1161 22.3839L21.8839 20.6161L15.8839 14.6161L14.1161 16.3839Z" fill="#1A1A1A"/>
</g>
</svg>
