<svg width="29" height="30" viewBox="0 0 29 30" fill="none" xmlns="http://www.w3.org/2000/svg">
<g id="View  / Show">
<path id="Vector" d="M4.33411 17.1495C6.48426 19.287 10.2341 22.25 14.5003 22.25C18.7665 22.25 22.516 19.287 24.6661 17.1495L24.6671 17.1485C25.2339 16.5849 25.5177 16.3029 25.6982 15.7495C25.8271 15.3545 25.8271 14.6455 25.6982 14.2505C25.5177 13.6971 25.2339 13.415 24.667 12.8514L24.6661 12.8505C22.5159 10.7129 18.7665 7.75 14.5003 7.75C10.2341 7.75 6.48426 10.7129 4.33411 12.8505C3.7666 13.4147 3.48282 13.6968 3.30219 14.2505C3.17336 14.6455 3.17336 15.3545 3.30219 15.7495C3.48282 16.3032 3.76657 16.5853 4.33403 17.1494L4.33411 17.1495Z" stroke="white" stroke-width="2.5" stroke-linecap="round" stroke-linejoin="round"/>
</g>
</svg>
