<svg width="14" height="22" viewBox="0 0 14 22" fill="none" xmlns="http://www.w3.org/2000/svg">
<g id="left">
<g id="Icons / Arrows / Left">
<path id="Shape" fill-rule="evenodd" clip-rule="evenodd" d="M8.6813 2.00052C8.87364 2.00052 9.02927 2.20739 9.02927 2.46243V18.7718L12.4062 14.289C12.5417 14.1088 12.7622 14.1088 12.8982 14.289C13.0339 14.4695 13.0339 14.7619 12.8982 14.9421L9.37483 19.6193C9.17756 19.9036 8.9438 20 8.6813 20C8.41901 20 8.33333 19.7561 8.33333 19.6193V2.46215C8.33333 2.2071 8.48939 2.00052 8.6813 2.00052Z" fill="#1F263E" stroke="black" stroke-width="2"/>
<path id="Shape_2" opacity="0.4" fill-rule="evenodd" clip-rule="evenodd" d="M5.3187 19.9995C5.12636 19.9995 4.97073 19.7926 4.97073 19.5376L4.97073 3.2282L1.5938 7.71102C1.45829 7.8912 1.23775 7.8912 1.1018 7.71102C0.966067 7.53054 0.966067 7.23807 1.1018 7.05789L4.62517 2.38068C4.82244 2.09638 5.0562 2 5.3187 2C5.58099 2 5.66667 2.24389 5.66667 2.38068L5.66667 19.5379C5.66667 19.7929 5.51061 19.9995 5.3187 19.9995Z" fill="#1F263E" stroke="black" stroke-width="2"/>
</g>
</g>
</svg>
