<svg width="18" height="16" viewBox="0 0 18 16" fill="none" xmlns="http://www.w3.org/2000/svg">
<path id="Star 2" d="M8.33426 0.548935C8.54381 -0.0959821 9.45619 -0.0959821 9.66574 0.548935L11.088 4.92614C11.1817 5.21456 11.4505 5.40983 11.7537 5.40983H16.3562C17.0343 5.40983 17.3162 6.27756 16.7676 6.67614L13.0442 9.3814C12.7988 9.55966 12.6962 9.87561 12.7899 10.164L14.2121 14.5412C14.4217 15.1862 13.6835 15.7224 13.1349 15.3239L9.41145 12.6186C9.16611 12.4403 8.83389 12.4403 8.58855 12.6186L4.86508 15.3239C4.31648 15.7224 3.57834 15.1862 3.78789 14.5412L5.21013 10.164C5.30384 9.87561 5.20118 9.55966 4.95584 9.3814L1.23236 6.67614C0.683764 6.27756 0.965707 5.40983 1.64381 5.40983H6.24628C6.54954 5.40983 6.81831 5.21456 6.91202 4.92614L8.33426 0.548935Z" fill="#FFA800"/>
</svg>
