<svg xmlns="http://www.w3.org/2000/svg" width="29" height="30" fill="none" viewBox="0 0 29 30">
  <path fill="#fff" d="M14.56 19.169h1.25c0-.69-.56-1.25-1.25-1.25v1.25Zm0 .12v1.25a1.25 1.25 0 0 0 1.25-1.25h-1.25Zm-.12 0h-1.25c0 .69.56 1.25 1.25 1.25v-1.25Zm0-.12v-1.25c-.69 0-1.25.56-1.25 1.25h1.25Zm1.31-8.459a1.25 1.25 0 1 0-2.5 0h2.5Zm-2.5 4.834a1.25 1.25 0 0 0 2.5 0h-2.5Zm1.25 9.081A9.625 9.625 0 0 1 4.875 15h-2.5c0 6.697 5.429 12.125 12.125 12.125v-2.5ZM4.875 15A9.625 9.625 0 0 1 14.5 5.375v-2.5C7.804 2.875 2.375 8.304 2.375 15h2.5ZM14.5 5.375A9.625 9.625 0 0 1 24.125 15h2.5c0-6.696-5.428-12.125-12.125-12.125v2.5ZM24.125 15a9.625 9.625 0 0 1-9.625 9.625v2.5c6.697 0 12.125-5.428 12.125-12.125h-2.5ZM13.31 19.169v.12h2.5v-.12h-2.5Zm1.25-1.13h-.12v2.5h.12v-2.5Zm1.13 1.25v-.12h-2.5v.12h2.5Zm-1.25 1.13h.12v-2.5h-.12v2.5Zm-1.19-9.709v4.834h2.5V10.71h-2.5Z"/>
</svg>
