<svg width="110" height="52" viewBox="0 0 110 52" fill="none" xmlns="http://www.w3.org/2000/svg">
<g id="Stripe_Logo,_revised_2016 1">
<g id="Group">
<path id="Vector" fill-rule="evenodd" clip-rule="evenodd" d="M96.4499 26.162C96.4499 20.2581 93.5608 15.5996 88.0389 15.5996C82.4937 15.5996 79.1387 20.2581 79.1387 26.1158C79.1387 33.0575 83.0995 36.5629 88.7845 36.5629C91.5571 36.5629 93.654 35.9402 95.2383 35.0639V30.4515C93.654 31.2356 91.8367 31.7199 89.5301 31.7199C87.27 31.7199 85.2663 30.9358 85.01 28.2145H96.4033C96.4033 27.9147 96.4499 26.7155 96.4499 26.162ZM84.9401 23.9711C84.9401 21.3651 86.5478 20.2812 88.0156 20.2812C89.4369 20.2812 90.9513 21.3651 90.9513 23.9711H84.9401Z" fill="#C6C6C6"/>
<path id="Vector_2" fill-rule="evenodd" clip-rule="evenodd" d="M70.1437 15.5996C67.8604 15.5996 66.3926 16.6605 65.5771 17.3984L65.2742 15.9686H60.1484V42.8588L65.9732 41.6365L65.9965 35.11C66.8353 35.7096 68.0701 36.5629 70.1204 36.5629C74.291 36.5629 78.0887 33.242 78.0887 25.9314C78.0654 19.2434 74.2211 15.5996 70.1437 15.5996ZM68.7458 31.4893C67.3712 31.4893 66.5557 31.005 65.9965 30.4054L65.9732 21.8494C66.579 21.1806 67.4177 20.7194 68.7458 20.7194C70.866 20.7194 72.3339 23.0717 72.3339 26.0928C72.3339 29.1831 70.8893 31.4893 68.7458 31.4893Z" fill="#C6C6C6"/>
<path id="Vector_3" fill-rule="evenodd" clip-rule="evenodd" d="M52.1348 14.2394L57.9828 12.9941V8.3125L52.1348 9.53478V14.2394Z" fill="#C6C6C6"/>
<path id="Vector_4" d="M57.9828 15.9922H52.1348V36.1714H57.9828V15.9922Z" fill="#C6C6C6"/>
<path id="Vector_5" fill-rule="evenodd" clip-rule="evenodd" d="M45.8683 17.6989L45.4955 15.9923H40.4629V36.1715H46.2877V22.4958C47.6623 20.72 49.9922 21.0429 50.7145 21.2965V15.9923C49.9689 15.7155 47.2429 15.2082 45.8683 17.6989Z" fill="#C6C6C6"/>
<path id="Vector_6" fill-rule="evenodd" clip-rule="evenodd" d="M34.218 10.9883L28.5331 12.1875L28.5098 30.6601C28.5098 34.0733 31.096 36.587 34.5442 36.587C36.4548 36.587 37.8527 36.2411 38.6216 35.826V31.1444C37.876 31.4442 34.1947 32.5051 34.1947 29.0919V20.9049H38.6216V15.9927H34.1947L34.218 10.9883Z" fill="#C6C6C6"/>
<path id="Vector_7" fill-rule="evenodd" clip-rule="evenodd" d="M18.4689 21.8494C18.4689 20.95 19.2145 20.604 20.4493 20.604C22.22 20.604 24.4567 21.1345 26.2275 22.08V16.6605C24.2937 15.8994 22.3831 15.5996 20.4493 15.5996C15.7196 15.5996 12.5742 18.0442 12.5742 22.1261C12.5742 28.4912 21.4279 27.4765 21.4279 30.2209C21.4279 31.2817 20.4959 31.6277 19.1912 31.6277C17.2573 31.6277 14.7876 30.8435 12.8305 29.7827V35.2714C14.9973 36.1939 17.1874 36.586 19.1912 36.586C24.0374 36.586 27.3691 34.2106 27.3691 30.0825C27.3458 23.21 18.4689 24.4323 18.4689 21.8494Z" fill="#C6C6C6"/>
</g>
</g>
</svg>
