<svg xmlns="http://www.w3.org/2000/svg" width="20" height="19" fill="none" viewBox="0 0 20 19">
  <path stroke="#374151" stroke-linecap="round" stroke-linejoin="round" stroke-width="2" d="M14 5.5a4 4 0 0 0-8 0m13 3.2v5.6c0 1.12 0 1.68-.218 2.108a2 2 0 0 1-.874.874c-.428.218-.988.218-2.108.218H4.2c-1.12 0-1.68 0-2.108-.218a2 2 0 0 1-.874-.874C1 15.98 1 15.42 1 14.3V8.7c0-1.12 0-1.68.218-2.108a2 2 0 0 1 .874-.874C2.52 5.5 3.08 5.5 4.2 5.5h11.6c1.12 0 1.68 0 2.108.218a2 2 0 0 1 .874.874C19 7.02 19 7.58 19 8.7Z"/>
</svg>
