<svg width="23" height="14" viewBox="0 0 23 14" fill="none" xmlns="http://www.w3.org/2000/svg">
<g id="Money">
<path id="Vector" d="M1.36296 0.557748C0.931049 0.707596 0.569651 1.10425 0.446246 1.54498C0.305213 2.02978 0.314027 12.5456 0.446246 12.9511C0.578465 13.3301 0.931049 13.7267 1.29245 13.8766C1.53044 13.9824 3.26692 14 11.4909 14C18.2958 14 21.4867 13.9736 21.6541 13.903C22.0067 13.7708 22.2976 13.4799 22.4827 13.0745C22.6326 12.7395 22.6502 12.3869 22.6502 7.30091C22.6502 3.63404 22.6149 1.76535 22.5532 1.52735C22.4298 1.08662 21.9891 0.645893 21.5484 0.522489C21.3016 0.451972 18.2693 0.425529 11.4557 0.425529C3.29336 0.434343 1.66266 0.451973 1.36296 0.557748ZM7.97391 1.87112L7.44503 2.34711L5.96418 2.38237C4.61555 2.40881 4.4657 2.42644 4.35111 2.57629C4.28059 2.67325 4.22771 2.86717 4.22771 2.99939C4.22771 3.50182 3.69002 4.16292 3.20521 4.25988C2.21798 4.46261 2.2885 4.23343 2.2885 7.19514C2.2885 9.98055 2.31494 10.1216 2.79974 10.1216C3.16995 10.1304 3.7429 10.4213 3.95445 10.721C4.06023 10.8708 4.17482 11.1705 4.21889 11.3909C4.34229 12.0696 4.32467 12.0608 5.98181 12.0608L7.44503 12.0696L7.95628 12.5456L8.46752 13.0304H5.06509C1.78606 13.0304 1.66266 13.0216 1.49518 12.8541C1.31889 12.6778 1.31889 12.5632 1.31889 7.25684V1.82705L1.53926 1.6155L1.75081 1.39513H5.12679H8.50278L7.97391 1.87112ZM12.8043 1.6772C14.2235 2.13556 15.4575 3.47538 16.004 5.15015C16.242 5.88176 16.2596 6.03161 16.2596 7.25684C16.2508 8.45562 16.2332 8.64954 16.0128 9.28419C15.6867 10.2538 15.2195 11.0295 14.5408 11.7082C13.6152 12.6337 12.4253 13.1009 11.2353 13.004C9.12862 12.8365 7.48029 11.2498 6.86327 8.79939C6.59002 7.70638 6.65172 6.16383 7.02193 5.07963C7.96509 2.32067 10.4067 0.883887 12.8043 1.6772ZM21.4602 1.6155L21.6806 1.82705V7.25684C21.6806 12.5632 21.6806 12.6778 21.5043 12.8541C21.3368 13.0216 21.2134 13.0304 17.9344 13.0304H14.532L15.0432 12.5456L15.5545 12.0696L17.0177 12.0608C18.6748 12.0608 18.6572 12.0696 18.7806 11.3909C18.8247 11.1705 18.9393 10.8708 19.045 10.721C19.2566 10.4213 19.8295 10.1304 20.1997 10.1216C20.6845 10.1216 20.711 9.98055 20.711 7.19514C20.711 4.4538 20.711 4.44498 20.2174 4.34802C20.1028 4.32158 19.9089 4.28632 19.7943 4.25988C19.3095 4.16292 18.7718 3.50182 18.7718 2.99939C18.7718 2.86717 18.7189 2.67325 18.6484 2.57629C18.5338 2.42644 18.3839 2.40881 17.0353 2.38237L15.5545 2.34711L15.0256 1.87112L14.4967 1.39513H17.8727H21.2487L21.4602 1.6155ZM6.66935 3.44012C5.97299 4.99149 5.72619 5.97872 5.72619 7.26565C5.72619 8.3234 5.92011 9.26656 6.30795 10.1657C6.48424 10.5535 6.6429 10.9237 6.66935 10.9766C6.70461 11.0647 6.52831 11.0912 5.95537 11.0912H5.20612L5.0122 10.6505C4.78302 10.1128 4.1043 9.4693 3.6195 9.31945L3.2581 9.21368L3.27573 7.23039L3.30217 5.24711L3.66357 5.12371C4.32467 4.90334 4.86236 4.30395 5.13561 3.48419C5.17968 3.36079 5.30309 3.33434 5.95537 3.33434C6.52831 3.33434 6.70461 3.36079 6.66935 3.44012ZM17.952 3.73981C18.1724 4.39209 18.8423 5.0003 19.5915 5.22067C19.7238 5.26474 19.7414 5.44103 19.7414 7.23921V9.21368L19.38 9.31945C18.8952 9.4693 18.2165 10.1128 17.9873 10.6505L17.7934 11.0912H17.0529C16.6386 11.0912 16.3037 11.0736 16.3037 11.0471C16.3037 11.0207 16.383 10.8444 16.48 10.6505C17 9.61915 17.2733 8.49088 17.2733 7.28328C17.2733 5.97872 17.0353 5.01793 16.3301 3.44012C16.2949 3.35197 16.4535 3.33434 17.0529 3.35197L17.8286 3.37842L17.952 3.73981Z" fill="#E64444"/>
<path id="Vector_2" d="M11.3673 2.42609C11.1381 2.50542 11.0147 2.7346 11.0147 3.07837C11.0147 3.38688 10.9971 3.40451 10.6886 3.46621C9.4986 3.67776 8.63477 4.55922 8.63477 5.53764C8.63477 6.10178 8.86394 6.56895 9.34875 6.98323C9.71896 7.30056 10.5123 7.65314 10.8384 7.65314C11.0059 7.65314 11.0147 7.72366 11.0147 8.84311C11.0147 10.1829 11.0235 10.1741 10.3536 9.86561C9.90407 9.66287 9.71896 9.44251 9.57793 8.97533C9.44571 8.50816 9.2606 8.37594 8.92565 8.49934C8.69647 8.57868 8.67884 8.61393 8.67884 9.07229C8.67884 9.46895 8.73173 9.63643 8.93446 9.93612C9.2606 10.4033 9.80711 10.7647 10.4858 10.9498C11.0147 11.0996 11.0147 11.0996 11.0147 11.4346C11.0147 11.6462 11.0764 11.8224 11.1734 11.9106C11.5436 12.2455 11.9843 11.9723 11.9843 11.417C11.9843 11.0996 11.9931 11.0996 12.5132 10.9498C13.1919 10.7647 13.7384 10.4033 14.0646 9.92731C14.2849 9.60998 14.3202 9.48658 14.3202 8.93126C14.3202 8.38476 14.2849 8.25254 14.0734 7.9264C13.7737 7.47685 13.1655 7.07138 12.4956 6.88627L11.9843 6.74524V5.56409C11.9843 4.68263 12.0108 4.39175 12.0989 4.39175C12.1518 4.39175 12.4074 4.48871 12.6454 4.6033C13.1126 4.81485 13.3241 5.05284 13.4299 5.49357C13.518 5.85497 13.6415 5.97837 13.9147 5.97837C14.2408 5.97837 14.3642 5.82852 14.3642 5.43187C14.3642 4.55922 13.4387 3.66895 12.3193 3.46621C12.0019 3.40451 11.9843 3.38688 11.9843 3.06074C11.9843 2.83156 11.9226 2.65527 11.808 2.54068C11.6229 2.35558 11.5877 2.34676 11.3673 2.42609ZM11.0147 5.53764C11.0147 6.39266 10.9883 6.68354 10.9089 6.68354C10.6798 6.68354 9.88644 6.25162 9.7454 6.0577C9.38401 5.53764 9.66607 4.90299 10.4153 4.56804C11.0323 4.28597 11.0147 4.26834 11.0147 5.53764ZM13.0509 8.27017C13.3241 8.52579 13.3946 8.65801 13.3946 8.90482C13.3946 9.30147 13.1214 9.65406 12.6542 9.86561C11.9755 10.1741 11.9843 10.1829 11.9843 8.896V7.75892L12.3457 7.85588C12.5573 7.90877 12.857 8.08506 13.0509 8.27017Z" fill="#E64444"/>
</g>
</svg>
