<svg width="33" height="30" viewBox="0 0 33 30" fill="none" xmlns="http://www.w3.org/2000/svg">
<path id="Vector" d="M13.2778 21.4447V18.2229M13.2778 18.2229V15.0002M13.2778 18.2229L16.5 18.2232M13.2778 18.2229L10.0556 18.2224M31 15.0002V13.7113C31 11.9067 31 11.0044 30.6488 10.3151C30.3399 9.70883 29.8469 9.21589 29.2407 8.90698C28.5514 8.55577 27.649 8.55577 25.8444 8.55577H2M31 15.0002V21.4447M31 15.0002H27.7778C25.9981 15.0002 24.5556 16.4428 24.5556 18.2224C24.5556 20.0021 25.9981 21.4447 27.7778 21.4447H31M2 8.55577V22.7335C2 24.5382 2 25.4405 2.35121 26.1298C2.66012 26.736 3.15306 27.229 3.75937 27.5379C4.44863 27.8891 5.35095 27.8891 7.15556 27.8891H25.8444C27.649 27.8891 28.5514 27.8891 29.2407 27.5379C29.8469 27.229 30.3399 26.736 30.6488 26.1298C31 25.4405 31 24.5382 31 22.7335V21.4447M2 8.55577V7.26688C2 5.46228 2 4.55996 2.35121 3.87069C2.66012 3.26438 3.15306 2.77145 3.75937 2.46253C4.44863 2.11133 5.35093 2.11133 7.15556 2.11133H21.0111C22.8157 2.11133 23.7181 2.11133 24.4073 2.46253C25.0136 2.77145 25.5066 3.26438 25.8154 3.87069C26.1667 4.55996 26.1667 5.46228 26.1667 7.26688V8.55577" stroke="#077EF0" stroke-width="2.5" stroke-linecap="round" stroke-linejoin="round"/>
</svg>
