<svg width="30" height="30" viewBox="0 0 30 30" fill="none" xmlns="http://www.w3.org/2000/svg">
<g id="ph:money-light">
<path id="Vector" d="M15 19.4531C15.8807 19.4531 16.7417 19.192 17.474 18.7026C18.2063 18.2133 18.7771 17.5178 19.1142 16.7041C19.4512 15.8904 19.5394 14.9951 19.3676 14.1312C19.1957 13.2674 18.7716 12.4739 18.1488 11.8512C17.5261 11.2284 16.7326 10.8043 15.8688 10.6324C15.0049 10.4606 14.1096 10.5488 13.2959 10.8858C12.4822 11.2229 11.7867 11.7937 11.2974 12.526C10.808 13.2583 10.5469 14.1193 10.5469 15C10.5469 16.181 11.016 17.3137 11.8512 18.1488C12.6863 18.984 13.819 19.4531 15 19.4531ZM15 11.9531C15.6026 11.9531 16.1917 12.1318 16.6928 12.4666C17.1938 12.8014 17.5843 13.2773 17.8149 13.834C18.0456 14.3908 18.1059 15.0034 17.9883 15.5944C17.8708 16.1855 17.5806 16.7284 17.1545 17.1545C16.7284 17.5806 16.1855 17.8708 15.5944 17.9883C15.0034 18.1059 14.3908 18.0456 13.834 17.8149C13.2773 17.5843 12.8014 17.1938 12.4666 16.6928C12.1318 16.1917 11.9531 15.6026 11.9531 15C11.9531 14.1919 12.2741 13.4169 12.8455 12.8455C13.4169 12.2741 14.1919 11.9531 15 11.9531ZM28.125 6.79688H1.875C1.68852 6.79688 1.50968 6.87095 1.37782 7.00282C1.24595 7.13468 1.17188 7.31352 1.17188 7.5V22.5C1.17188 22.6865 1.24595 22.8653 1.37782 22.9972C1.50968 23.129 1.68852 23.2031 1.875 23.2031H28.125C28.3115 23.2031 28.4903 23.129 28.6222 22.9972C28.754 22.8653 28.8281 22.6865 28.8281 22.5V7.5C28.8281 7.31352 28.754 7.13468 28.6222 7.00282C28.4903 6.87095 28.3115 6.79688 28.125 6.79688ZM2.57812 12.7523C3.66988 12.4619 4.66556 11.8882 5.4644 11.0894C6.26324 10.2906 6.8369 9.29488 7.12734 8.20312H22.8727C23.1631 9.29488 23.7368 10.2906 24.5356 11.0894C25.3344 11.8882 26.3301 12.4619 27.4219 12.7523V17.2477C26.3301 17.5381 25.3344 18.1118 24.5356 18.9106C23.7368 19.7094 23.1631 20.7051 22.8727 21.7969H7.12734C6.8369 20.7051 6.26324 19.7094 5.4644 18.9106C4.66556 18.1118 3.66988 17.5381 2.57812 17.2477V12.7523ZM27.4219 11.284C26.7097 11.0352 26.0629 10.629 25.5294 10.0956C24.996 9.56215 24.5898 8.91528 24.341 8.20312H27.4219V11.284ZM5.65898 8.20312C5.4102 8.91528 5.00397 9.56215 4.47056 10.0956C3.93715 10.629 3.29028 11.0352 2.57812 11.284V8.20312H5.65898ZM2.57812 18.716C3.29028 18.9648 3.93715 19.371 4.47056 19.9044C5.00397 20.4379 5.4102 21.0847 5.65898 21.7969H2.57812V18.716ZM24.341 21.7969C24.5898 21.0847 24.996 20.4379 25.5294 19.9044C26.0629 19.371 26.7097 18.9648 27.4219 18.716V21.7969H24.341Z" fill="#764AD7"/>
</g>
</svg>
