<svg width="17" height="15" viewBox="0 0 17 15" fill="none" xmlns="http://www.w3.org/2000/svg">
<g id="Arrow">
<path id="Vector" d="M8.19091 0.061698C7.96173 0.141029 7.81189 0.308507 4.63863 3.70212C2.93742 5.51793 1.39486 7.17507 1.20094 7.37781C0.927692 7.65988 0.84836 7.82735 0.813102 8.14468C0.769029 8.51489 0.786658 8.56778 1.07754 8.85866L1.38605 9.16717H2.27632H3.1666V11.6441C3.1666 13.1778 3.20186 14.1827 3.25474 14.2884C3.36052 14.4824 3.85414 14.5264 4.03043 14.3502C4.10976 14.2708 4.1362 13.4863 4.1362 11.362C4.1362 8.79696 4.11857 8.47082 3.99517 8.36504C3.89821 8.28571 3.50155 8.22401 2.81401 8.19757L1.78271 8.15349L3.73073 6.07325C4.7973 4.92735 6.31341 3.31428 7.08909 2.4769L8.49942 0.960787L8.93134 1.42796C9.17815 1.68358 9.61006 2.15076 9.90094 2.46808C10.2006 2.78541 10.9587 3.59635 11.5845 4.27507C12.8274 5.61489 13.6207 6.46109 14.6256 7.51003L15.269 8.19757H14.2642C12.7304 8.19757 12.8626 7.90668 12.8626 11.2915C12.8626 13.072 12.8979 14.1739 12.9508 14.2884C13.0742 14.5088 13.5502 14.5176 13.7088 14.2973C13.797 14.1827 13.8234 13.5921 13.8323 11.6529V9.16717H14.6785C15.8508 9.16717 16.2122 8.92918 16.2122 8.15349C16.2122 7.7921 16.318 7.9155 12.0693 3.35836C10.4915 1.66595 9.08119 0.220361 8.92252 0.141029C8.64046 -3.8147e-06 8.42891 -0.0264473 8.19091 0.061698Z" fill="#DCB012"/>
<path id="Vector_2" d="M6.21721 9.83819C6.0938 9.95278 6.07617 10.2789 6.07617 12.0418C6.07617 13.3023 6.11143 14.1838 6.16432 14.2896C6.22602 14.4041 6.34942 14.457 6.56097 14.457C6.77252 14.457 6.89593 14.4041 6.95763 14.2896C7.01052 14.1838 7.04578 13.3023 7.04578 12.0418C7.04578 9.80293 7.02815 9.69715 6.56097 9.69715C6.44638 9.69715 6.28772 9.75885 6.21721 9.83819Z" fill="#DCB012"/>
<path id="Vector_3" d="M10.0942 9.83819C9.97075 9.95278 9.95312 10.2789 9.95312 12.0418C9.95312 13.3023 9.98838 14.1838 10.0413 14.2896C10.103 14.4041 10.2264 14.457 10.4379 14.457C10.6495 14.457 10.7729 14.4041 10.8346 14.2896C10.8875 14.1838 10.9227 13.3023 10.9227 12.0418C10.9227 9.80293 10.9051 9.69715 10.4379 9.69715C10.3233 9.69715 10.1647 9.75885 10.0942 9.83819Z" fill="#DCB012"/>
</g>
</svg>
