<svg width="29" height="29" viewBox="0 0 29 29" fill="none" xmlns="http://www.w3.org/2000/svg">
<g id="Actions  / Trash_Full">
<path id="Vector" d="M16.9166 12.0833V20.5417M12.0833 12.0833L12.0833 20.5417M4.83325 7.25H24.1666M21.7499 7.25V21.5083C21.7499 22.8618 21.7502 23.5386 21.4868 24.0555C21.2551 24.5103 20.8849 24.8799 20.4302 25.1116C19.9132 25.375 19.237 25.375 17.8835 25.375H11.1168C9.76336 25.375 9.08613 25.375 8.56917 25.1116C8.11445 24.8799 7.74501 24.5103 7.51332 24.0555C7.24992 23.5386 7.24992 22.8618 7.24992 21.5083V7.25H21.7499ZM19.3333 7.25H9.66659C9.66659 6.12397 9.66659 5.56095 9.85054 5.11683C10.0958 4.52468 10.566 4.05423 11.1581 3.80896C11.6022 3.625 12.1656 3.625 13.2916 3.625H15.7083C16.8343 3.625 17.3973 3.625 17.8414 3.80896C18.4336 4.05423 18.9039 4.52468 19.1492 5.11683C19.3331 5.56094 19.3333 6.12398 19.3333 7.25Z" stroke="white" stroke-width="1.5" stroke-linecap="round" stroke-linejoin="round"/>
</g>
</svg>
