<?xml version="1.0" encoding="UTF-8"?>
<svg version="1.1" xmlns="http://www.w3.org/2000/svg" width="1080" height="1080">
<path d="M0 0 C356.4 0 712.8 0 1080 0 C1080 356.4 1080 712.8 1080 1080 C723.6 1080 367.2 1080 0 1080 C0 723.6 0 367.2 0 0 Z " fill="#FEFEFE" transform="translate(0,0)"/>
<path d="M0 0 C0.33 0 0.66 0 1 0 C1.01417969 1.24136719 1.02835938 2.48273438 1.04296875 3.76171875 C1.089882 5.40368243 1.13812932 7.04560837 1.1875 8.6875 C1.19330078 9.50412109 1.19910156 10.32074219 1.20507812 11.16210938 C1.36396011 15.52253713 1.53176979 17.42968026 4.3828125 20.90234375 C5.24648438 21.59457031 6.11015625 22.28679687 7 23 C14.78735925 31.33066338 14.29525351 39.21607875 14.27415466 50.09980774 C14.27861015 51.54652994 14.28392522 52.9932497 14.29002339 54.4399659 C14.30417622 58.40681564 14.3058672 62.37358691 14.30542648 66.34045827 C14.30707705 70.62210985 14.32014793 74.90372933 14.33161926 79.18536377 C14.35444821 88.54275984 14.36238735 97.9001332 14.36744571 107.25755334 C14.37070465 113.10191895 14.37722826 118.94627799 14.3844471 124.79063988 C14.40400894 140.97740752 14.42041603 157.16416906 14.42332363 173.35094929 C14.4235112 174.38631937 14.42369877 175.42168945 14.42389202 176.48843439 C14.42425827 178.58729502 14.42462197 180.68615565 14.42498314 182.78501628 C14.42516595 183.82686667 14.42534876 184.86871706 14.42553711 185.94213867 C14.42580793 187.50682493 14.42580793 187.50682493 14.42608423 189.103121 C14.42962664 206.00917743 14.45665507 222.91510654 14.494035 239.82111881 C14.53212003 257.18516608 14.55148111 274.54915017 14.55178314 291.91324013 C14.55236761 301.6598529 14.56085279 311.40631371 14.58978081 321.15288734 C14.61429708 329.45104366 14.62157579 337.74899258 14.60653328 346.04717533 C14.59936583 350.27939652 14.60021458 354.51120817 14.62294388 358.74338341 C14.64357314 362.62174063 14.6408974 366.49937448 14.62006903 370.37772419 C14.61658166 371.77674694 14.6214523 373.1758223 14.63577347 374.57477609 C14.7312479 384.54806717 13.32606838 391.96279709 6.71875 399.65625 C5.9865625 400.2646875 5.254375 400.873125 4.5 401.5 C3.7678125 402.1290625 3.035625 402.758125 2.28125 403.40625 C-4.30381659 408.00677597 -11.22561332 407.67948669 -19 407 C-25.99663645 405.31037467 -31.1235135 399.84730527 -35 394 C-38.58252822 386.86910851 -39.58051329 380.6886581 -39.51898193 372.7749939 C-39.52648319 371.68839182 -39.53398444 370.60178975 -39.541713 369.48226035 C-39.56190817 365.86476638 -39.55390316 362.24790408 -39.54589844 358.63037109 C-39.55463784 356.02793765 -39.56512489 353.42550958 -39.57722473 350.8230896 C-39.60047263 345.23235724 -39.60928814 339.64175435 -39.60811615 334.0509758 C-39.60644284 325.9678234 -39.62682292 317.88484297 -39.65247145 309.80173655 C-39.69349725 296.68537832 -39.71685131 283.56905115 -39.72900391 270.45263672 C-39.74084242 257.71627825 -39.76105845 244.9799782 -39.79248047 232.24365234 C-39.79538462 231.06474295 -39.79538462 231.06474295 -39.79834744 229.8620172 C-39.80811242 225.91892838 -39.81804146 221.97584 -39.82805204 218.0327518 C-39.91080078 185.35519288 -39.96483277 152.67764531 -40 120 C-42.24812848 122.8816994 -44.49457026 125.76470937 -46.74072266 128.64794922 C-47.37369766 129.45926804 -48.00667267 130.27058685 -48.65882874 131.10649109 C-53.59258612 137.44220144 -58.35847708 143.87148567 -63.00390625 150.421875 C-74.61899644 166.47884054 -74.61899644 166.47884054 -83 168 C-90.9110354 168.78663403 -98.32662573 169.1661683 -105.13671875 164.61328125 C-111.58323263 159.03170843 -115.56455912 152.16481263 -116.28125 143.6640625 C-116.53936835 133.57593683 -114.81433548 126.96301325 -108.8125 118.8125 C-108.38670654 118.23064941 -107.96091309 117.64879883 -107.5222168 117.04931641 C-102.160895 109.7703595 -96.64012894 102.60736245 -91.14453125 95.4296875 C-87.22953207 90.31126629 -83.35829027 85.16124214 -79.5 80 C-73.69297408 72.23407884 -67.82368963 64.51783896 -61.93212891 56.81591797 C-56.76342337 50.04221337 -51.69244718 43.20073946 -46.69116211 36.30249023 C-37.10308508 23.15625231 -37.10308508 23.15625231 -30.9375 19.6875 C-30.12152344 19.21699219 -29.30554688 18.74648438 -28.46484375 18.26171875 C-23.82541927 15.8868628 -20.44844606 14.74823022 -15.1875 14.875 C-13.72376953 14.90207031 -13.72376953 14.90207031 -12.23046875 14.9296875 C-11.49441406 14.95289063 -10.75835937 14.97609375 -10 15 C-9.75378906 14.45859375 -9.50757813 13.9171875 -9.25390625 13.359375 C-7.71333603 10.46060737 -5.87066436 7.90239974 -3.9375 5.25 C-3.22464844 4.26515625 -2.51179687 3.2803125 -1.77734375 2.265625 C-1.19082031 1.51796875 -0.60429688 0.7703125 0 0 Z " fill="#010101" transform="translate(519,329)"/>
<path d="M0 0 C6.12487465 4.33025164 10.92968188 10.2174099 13.06640625 17.4609375 C13.49507239 21.14782777 13.48265115 24.8063915 13.46513367 28.51499939 C13.47178049 29.61945595 13.47842732 30.72391251 13.48527557 31.86183745 C13.50390784 35.55764387 13.50130003 39.25312661 13.4987793 42.94897461 C13.50779631 45.60023366 13.51799241 48.25146377 13.52966309 50.90270996 C13.55242982 56.60806316 13.56433086 62.31335539 13.56879234 68.01875114 C13.57525864 76.26771586 13.59820442 84.51657043 13.62513564 92.76549072 C13.6683868 106.14971594 13.69836309 119.53393652 13.7199707 132.91821289 C13.7409854 145.91758505 13.76826478 158.91691925 13.80395508 171.91625977 C13.8061539 172.71792251 13.80835273 173.51958526 13.81061818 174.34554081 C13.82168796 178.36736183 13.83288075 182.38918249 13.84413469 186.41100299 C13.93729614 219.76094942 14.00890506 253.11091061 14.06640625 286.4609375 C14.46575567 285.91822393 14.86510509 285.37551037 15.27655602 284.81635094 C17.10767183 282.32830812 18.93932989 279.84066499 20.77099609 277.35302734 C21.39912704 276.49938095 22.027258 275.64573456 22.67442322 274.76622009 C27.29179112 268.49638404 31.95740789 262.2683255 36.69140625 256.0859375 C37.35785156 255.21195313 38.02429688 254.33796875 38.7109375 253.4375 C40.49038791 251.10752102 42.27677326 248.7830981 44.06640625 246.4609375 C44.81535156 245.48382812 45.56429687 244.50671875 46.3359375 243.5 C50.08991373 239.0765788 54.54376785 236.67497955 60.2890625 236.1875 C68.5046306 235.97020115 75.31756238 236.22868776 82.06640625 241.4609375 C88.31958221 247.8205505 91.49545721 255.20735185 91.62890625 264.1484375 C91.50270086 277.20017791 84.37046897 285.72327289 76.39453125 295.36328125 C72.86757672 299.65121682 69.58479804 304.09936483 66.31640625 308.5859375 C59.88399764 317.39348622 53.29550886 326.07400033 46.671875 334.73828125 C43.9504155 338.29829351 41.2476773 341.87058789 38.56640625 345.4609375 C34.39024522 351.04796374 30.16770207 356.59926109 25.94140625 362.1484375 C25.27173828 363.02822266 24.60207031 363.90800781 23.91210938 364.81445312 C22.60399257 366.53063006 21.29300252 368.24462114 19.97900391 369.95629883 C18.7057243 371.62371975 17.44487645 373.30070883 16.19677734 374.98706055 C13.12372852 379.08543032 10.52615065 382.41442004 5.94140625 384.8984375 C5.13445313 385.35089844 4.3275 385.80335938 3.49609375 386.26953125 C-1.15060323 388.5480563 -4.51307737 389.71203428 -9.74609375 389.5859375 C-10.72191406 389.56789063 -11.69773437 389.54984375 -12.703125 389.53125 C-13.80720703 389.49644531 -13.80720703 389.49644531 -14.93359375 389.4609375 C-15.17980469 390.00234375 -15.42601562 390.54375 -15.6796875 391.1015625 C-17.22025772 394.00033013 -19.06292939 396.55853776 -20.99609375 399.2109375 C-21.70894531 400.19578125 -22.42179688 401.180625 -23.15625 402.1953125 C-23.74277344 402.94296875 -24.32929687 403.690625 -24.93359375 404.4609375 C-25.26359375 404.4609375 -25.59359375 404.4609375 -25.93359375 404.4609375 C-25.93746094 402.59888672 -25.93746094 402.59888672 -25.94140625 400.69921875 C-25.97893683 399.05725594 -26.01808446 397.41532953 -26.05859375 395.7734375 C-26.05601562 394.95681641 -26.0534375 394.14019531 -26.05078125 393.29882812 C-26.13288411 388.74407308 -26.13288411 388.74407308 -28.24804688 384.86645508 C-29.7446096 383.64650063 -31.33771586 382.54775054 -32.93359375 381.4609375 C-37.339654 375.70858107 -39.18215616 370.49220226 -39.18806934 363.26329994 C-39.19390154 362.03361539 -39.19973373 360.80393085 -39.20574266 359.53698313 C-39.20210983 358.18063026 -39.19828548 356.82427788 -39.19429016 355.46792603 C-39.19731163 354.0206423 -39.20120109 352.57336018 -39.20588273 351.12608087 C-39.21617211 347.15310192 -39.21397852 343.18021313 -39.20970213 339.20722675 C-39.20723661 334.92083066 -39.21624692 330.63445637 -39.22373962 326.34806824 C-39.23649357 317.95205838 -39.23827944 309.55608048 -39.23593936 301.16006257 C-39.23415679 294.33580403 -39.23590454 287.5115552 -39.2401638 280.68729782 C-39.24075899 279.71626875 -39.24135418 278.74523968 -39.24196741 277.74478548 C-39.24317915 275.77217353 -39.24439328 273.79956159 -39.24560978 271.82694964 C-39.25648804 253.32465712 -39.2543215 234.82238282 -39.24822494 216.32008927 C-39.24305575 199.39325274 -39.25431077 182.46647375 -39.27332316 165.53964861 C-39.29269473 148.15982385 -39.30095874 130.78002633 -39.2971999 113.40019071 C-39.2952868 103.64249298 -39.29778608 93.88484423 -39.31191444 84.1271553 C-39.32382054 75.82016839 -39.3252418 67.5132606 -39.31312428 59.20627262 C-39.30723012 54.96833075 -39.30615095 50.73053367 -39.31812668 46.49260139 C-39.32896691 42.61137568 -39.32590439 38.73041597 -39.31186499 34.8492028 C-39.30921292 33.44682661 -39.31160064 32.0444297 -39.31960086 30.64207383 C-39.37989707 19.28226465 -38.12504462 11.87744575 -30.08984375 3.44921875 C-21.86750309 -4.13261348 -9.99201214 -5.18922177 0 0 Z " fill="#999999" transform="translate(585.93359375,346.5390625)"/>
</svg>
