<svg xmlns="http://www.w3.org/2000/svg" width="49" height="50" fill="none" viewBox="0 0 49 50">
  <rect width="49" height="49" y=".5" fill="#fff" rx="24.5"/>
  <path stroke="#FF973F" stroke-linecap="round" stroke-linejoin="round" stroke-width="1.5" d="M30.542 33.459c0-2.003-2.705-3.626-6.042-3.626-3.337 0-6.042 1.623-6.042 3.626m16.917-3.626c0-1.486-1.491-2.764-3.625-3.323m-18.125 3.323c0-1.486 1.491-2.764 3.625-3.323m14.5-4.85a3.625 3.625 0 0 0-4.833-5.404M17.25 21.66a3.625 3.625 0 0 1 4.833-5.404M24.5 26.21a3.625 3.625 0 1 1 0-7.25 3.625 3.625 0 0 1 0 7.25Z"/>
</svg>
