<svg width="32" height="30" viewBox="0 0 32 30" fill="none" xmlns="http://www.w3.org/2000/svg">
<path id="Vector" d="M12.9443 21.4447V18.2229M12.9443 18.2229V15.0002M12.9443 18.2229L16.1665 18.2232M12.9443 18.2229L9.72206 18.2224M30.6665 15.0002V13.7113C30.6665 11.9067 30.6665 11.0044 30.3153 10.3151C30.0064 9.70883 29.5134 9.21589 28.9072 8.90698C28.2179 8.55577 27.3156 8.55577 25.5109 8.55577H1.6665M30.6665 15.0002V21.4447M30.6665 15.0002H27.4443C25.6646 15.0002 24.2221 16.4428 24.2221 18.2224C24.2221 20.0021 25.6646 21.4447 27.4443 21.4447H30.6665M1.6665 8.55577V22.7335C1.6665 24.5382 1.6665 25.4405 2.01771 26.1298C2.32662 26.736 2.81956 27.229 3.42587 27.5379C4.11514 27.8891 5.01745 27.8891 6.82206 27.8891H25.5109C27.3156 27.8891 28.2179 27.8891 28.9072 27.5379C29.5134 27.229 30.0064 26.736 30.3153 26.1298C30.6665 25.4405 30.6665 24.5382 30.6665 22.7335V21.4447M1.6665 8.55577V7.26688C1.6665 5.46228 1.6665 4.55996 2.01771 3.87069C2.32662 3.26438 2.81956 2.77145 3.42587 2.46253C4.11514 2.11133 5.01744 2.11133 6.82206 2.11133H20.6776C22.4822 2.11133 23.3846 2.11133 24.0738 2.46253C24.6801 2.77145 25.1731 3.26438 25.4819 3.87069C25.8332 4.55996 25.8332 5.46228 25.8332 7.26688V8.55577" stroke="#077EF0" stroke-width="2.5" stroke-linecap="round" stroke-linejoin="round"/>
</svg>
