<svg width="33" height="29" viewBox="0 0 33 29" fill="none" xmlns="http://www.w3.org/2000/svg">
<path d="M13.2778 20.9447V17.7229M13.2778 17.7229V14.5002M13.2778 17.7229L16.5 17.7232M13.2778 17.7229L10.0556 17.7224M31 14.5002V13.2113C31 11.4067 31 10.5044 30.6488 9.81514C30.3399 9.20883 29.8469 8.71589 29.2407 8.40698C28.5514 8.05577 27.649 8.05577 25.8444 8.05577H2M31 14.5002V20.9447M31 14.5002H27.7778C25.9981 14.5002 24.5556 15.9428 24.5556 17.7224C24.5556 19.5021 25.9981 20.9447 27.7778 20.9447H31M2 8.05577V22.2335C2 24.0382 2 24.9405 2.35121 25.6298C2.66012 26.236 3.15306 26.729 3.75937 27.0379C4.44863 27.3891 5.35095 27.3891 7.15556 27.3891H25.8444C27.649 27.3891 28.5514 27.3891 29.2407 27.0379C29.8469 26.729 30.3399 26.236 30.6488 25.6298C31 24.9405 31 24.0382 31 22.2335V20.9447M2 8.05577V6.76688C2 4.96228 2 4.05996 2.35121 3.37069C2.66012 2.76438 3.15306 2.27145 3.75937 1.96253C4.44863 1.61133 5.35093 1.61133 7.15556 1.61133H21.0111C22.8157 1.61133 23.7181 1.61133 24.4073 1.96253C25.0136 2.27145 25.5066 2.76438 25.8154 3.37069C26.1667 4.05996 26.1667 4.96228 26.1667 6.76688V8.05577" stroke="white" stroke-width="2.5" stroke-linecap="round" stroke-linejoin="round"/>
</svg>
